<?xml version="1.0" encoding="utf-8" standalone="no"?>
<!DOCTYPE svg PUBLIC "-//W3C//DTD SVG 1.1//EN"
  "http://www.w3.org/Graphics/SVG/1.1/DTD/svg11.dtd">
<!-- Created with matplotlib (https://matplotlib.org/) -->
<svg height="410.8615pt" version="1.1" viewBox="0 0 509.204062 410.8615" width="509.204062pt" xmlns="http://www.w3.org/2000/svg" xmlns:xlink="http://www.w3.org/1999/xlink">
 <defs>
  <style type="text/css">
*{stroke-linecap:butt;stroke-linejoin:round;}
  </style>
 </defs>
 <g id="figure_1">
  <g id="patch_1">
   <path d="M 0 410.8615 
L 509.204062 410.8615 
L 509.204062 0 
L 0 0 
z
" style="fill:none;"/>
  </g>
  <g id="axes_1">
   <g id="patch_2">
    <path d="M 47.6525 369.434 
L 494.0525 369.434 
L 494.0525 43.274 
L 47.6525 43.274 
z
" style="fill:none;"/>
   </g>
   <g id="PolyCollection_1">
    <defs>
     <path d="M 494.0525 -41.4275 
L 494.0525 -95.911894 
L 487.937432 -95.911894 
L 487.937432 -95.288784 
L 487.937432 -95.288784 
L 487.937432 -95.412603 
L 487.937432 -95.412603 
L 487.937432 -95.536993 
L 487.937432 -95.536993 
L 487.937432 -95.661957 
L 481.822363 -95.661957 
L 481.822363 -95.281826 
L 481.822363 -95.281826 
L 481.822363 -95.40736 
L 481.822363 -95.40736 
L 481.822363 -95.533481 
L 481.822363 -95.533481 
L 481.822363 -95.660193 
L 481.822363 -95.660193 
L 481.822363 -95.7875 
L 481.822363 -95.7875 
L 481.822363 -95.915406 
L 481.822363 -95.915406 
L 481.822363 -96.043915 
L 481.822363 -96.043915 
L 481.822363 -96.173032 
L 475.707295 -96.173032 
L 475.707295 -95.52987 
L 475.707295 -95.52987 
L 475.707295 -95.658379 
L 475.707295 -95.658379 
L 475.707295 -95.7875 
L 469.592226 -95.7875 
L 469.592226 -95.138813 
L 469.592226 -95.138813 
L 469.592226 -95.267309 
L 469.592226 -95.267309 
L 469.592226 -95.396421 
L 469.592226 -95.396421 
L 469.592226 -95.526154 
L 469.592226 -95.526154 
L 469.592226 -95.656512 
L 469.592226 -95.656512 
L 469.592226 -95.7875 
L 469.592226 -95.7875 
L 469.592226 -95.919122 
L 469.592226 -95.919122 
L 469.592226 -96.051383 
L 469.592226 -96.051383 
L 469.592226 -96.184288 
L 469.592226 -96.184288 
L 469.592226 -96.317841 
L 469.592226 -96.317841 
L 469.592226 -96.452048 
L 469.592226 -96.452048 
L 469.592226 -96.586912 
L 469.592226 -96.586912 
L 469.592226 -96.722439 
L 469.592226 -96.722439 
L 469.592226 -96.858633 
L 469.592226 -96.858633 
L 469.592226 -96.9955 
L 469.592226 -96.9955 
L 469.592226 -97.133045 
L 469.592226 -97.133045 
L 469.592226 -97.271272 
L 469.592226 -97.271272 
L 469.592226 -97.410187 
L 469.592226 -97.410187 
L 469.592226 -97.972827 
L 469.592226 -97.972827 
L 469.592226 -98.115258 
L 469.592226 -98.115258 
L 469.592226 -98.258409 
L 469.592226 -98.258409 
L 469.592226 -98.402285 
L 469.592226 -98.402285 
L 469.592226 -98.546891 
L 469.592226 -98.546891 
L 469.592226 -98.692233 
L 469.592226 -98.692233 
L 469.592226 -98.838316 
L 469.592226 -98.838316 
L 469.592226 -98.985147 
L 469.592226 -98.985147 
L 469.592226 -99.132731 
L 469.592226 -99.132731 
L 469.592226 -99.281073 
L 469.592226 -99.281073 
L 469.592226 -99.43018 
L 469.592226 -99.43018 
L 469.592226 -99.580058 
L 469.592226 -99.580058 
L 469.592226 -99.882149 
L 469.592226 -99.882149 
L 469.592226 -100.034375 
L 469.592226 -100.034375 
L 469.592226 -100.495846 
L 469.592226 -100.495846 
L 469.592226 -100.651289 
L 469.592226 -100.651289 
L 469.592226 -100.807553 
L 469.592226 -100.807553 
L 469.592226 -100.964643 
L 469.592226 -100.964643 
L 469.592226 -101.122566 
L 469.592226 -101.122566 
L 469.592226 -101.28133 
L 469.592226 -101.28133 
L 469.592226 -101.44094 
L 469.592226 -101.44094 
L 469.592226 -101.601404 
L 469.592226 -101.601404 
L 469.592226 -101.762728 
L 469.592226 -101.762728 
L 469.592226 -101.924919 
L 469.592226 -101.924919 
L 469.592226 -102.087985 
L 463.477158 -102.087985 
L 463.477158 -101.370419 
L 463.477158 -101.370419 
L 463.477158 -101.532866 
L 463.477158 -101.532866 
L 463.477158 -101.696196 
L 463.477158 -101.696196 
L 463.477158 -103.727725 
L 463.477158 -103.727725 
L 463.477158 -104.079703 
L 463.477158 -104.079703 
L 463.477158 -104.257188 
L 463.477158 -104.257188 
L 463.477158 -104.435682 
L 463.477158 -104.435682 
L 463.477158 -104.795729 
L 463.477158 -104.795729 
L 463.477158 -104.977299 
L 463.477158 -104.977299 
L 463.477158 -105.528309 
L 463.477158 -105.528309 
L 463.477158 -105.714109 
L 463.477158 -105.714109 
L 463.477158 -105.900988 
L 463.477158 -105.900988 
L 463.477158 -106.088958 
L 463.477158 -106.088958 
L 463.477158 -106.278026 
L 463.477158 -106.278026 
L 463.477158 -106.468204 
L 463.477158 -106.468204 
L 463.477158 -106.6595 
L 463.477158 -106.6595 
L 463.477158 -106.851925 
L 463.477158 -106.851925 
L 463.477158 -107.045488 
L 463.477158 -107.045488 
L 463.477158 -107.2402 
L 414.55661 -107.2402 
L 414.55661 -114.448396 
L 414.55661 -114.448396 
L 414.55661 -114.721882 
L 414.55661 -114.721882 
L 414.55661 -114.997425 
L 414.55661 -114.997425 
L 414.55661 -115.275047 
L 414.55661 -115.275047 
L 414.55661 -115.554773 
L 414.55661 -115.554773 
L 414.55661 -115.836625 
L 414.55661 -115.836625 
L 414.55661 -116.12063 
L 414.55661 -116.12063 
L 414.55661 -116.40681 
L 414.55661 -116.40681 
L 414.55661 -116.695192 
L 414.55661 -116.695192 
L 414.55661 -116.985801 
L 414.55661 -116.985801 
L 414.55661 -117.278663 
L 408.441541 -117.278663 
L 408.441541 -116.304698 
L 408.441541 -116.304698 
L 408.441541 -116.597187 
L 408.441541 -116.597187 
L 408.441541 -116.891971 
L 408.441541 -116.891971 
L 408.441541 -117.189075 
L 408.441541 -117.189075 
L 408.441541 -117.488528 
L 408.441541 -117.488528 
L 408.441541 -117.790357 
L 408.441541 -117.790357 
L 408.441541 -118.094592 
L 408.441541 -118.094592 
L 408.441541 -118.40126 
L 408.441541 -118.40126 
L 408.441541 -118.710392 
L 402.326473 -118.710392 
L 402.326473 -118.327012 
L 396.211404 -118.327012 
L 396.211404 -117.309622 
L 396.211404 -117.309622 
L 396.211404 -138.25625 
L 396.211404 -138.25625 
L 396.211404 -138.763207 
L 396.211404 -138.763207 
L 396.211404 -139.2755 
L 396.211404 -139.2755 
L 396.211404 -139.793214 
L 396.211404 -139.793214 
L 396.211404 -140.316436 
L 396.211404 -140.316436 
L 396.211404 -140.845254 
L 396.211404 -140.845254 
L 396.211404 -141.379758 
L 396.211404 -141.379758 
L 396.211404 -141.920041 
L 396.211404 -141.920041 
L 396.211404 -142.466196 
L 396.211404 -142.466196 
L 396.211404 -143.576511 
L 396.211404 -143.576511 
L 396.211404 -144.14087 
L 396.211404 -144.14087 
L 396.211404 -144.7115 
L 396.211404 -144.7115 
L 396.211404 -145.288506 
L 396.211404 -145.288506 
L 396.211404 -145.871994 
L 396.211404 -145.871994 
L 396.211404 -146.462076 
L 396.211404 -146.462076 
L 396.211404 -147.058864 
L 396.211404 -147.058864 
L 396.211404 -147.662471 
L 396.211404 -147.662471 
L 396.211404 -148.273017 
L 396.211404 -148.273017 
L 396.211404 -148.890621 
L 396.211404 -148.890621 
L 396.211404 -149.515407 
L 396.211404 -149.515407 
L 396.211404 -150.1475 
L 396.211404 -150.1475 
L 396.211404 -150.787029 
L 396.211404 -150.787029 
L 396.211404 -151.434127 
L 396.211404 -151.434127 
L 396.211404 -152.751572 
L 396.211404 -152.751572 
L 396.211404 -153.422199 
L 396.211404 -153.422199 
L 396.211404 -154.100955 
L 396.211404 -154.100955 
L 396.211404 -154.787988 
L 390.096336 -154.787988 
L 390.096336 -153.482469 
L 390.096336 -153.482469 
L 390.096336 -154.174167 
L 390.096336 -154.174167 
L 390.096336 -154.874457 
L 390.096336 -154.874457 
L 390.096336 -155.5835 
L 390.096336 -155.5835 
L 390.096336 -156.301462 
L 390.096336 -156.301462 
L 390.096336 -157.028513 
L 390.096336 -157.028513 
L 390.096336 -157.764825 
L 390.096336 -157.764825 
L 390.096336 -158.510577 
L 390.096336 -158.510577 
L 390.096336 -159.265952 
L 390.096336 -159.265952 
L 390.096336 -160.031136 
L 390.096336 -160.031136 
L 390.096336 -160.806324 
L 383.981267 -160.806324 
L 383.981267 -159.445921 
L 383.981267 -159.445921 
L 383.981267 -160.2275 
L 383.981267 -160.2275 
L 383.981267 -161.0195 
L 383.981267 -161.0195 
L 383.981267 -161.822131 
L 383.981267 -161.822131 
L 383.981267 -162.635608 
L 383.981267 -162.635608 
L 383.981267 -163.460153 
L 377.866199 -163.460153 
L 377.866199 -162.062021 
L 377.866199 -162.062021 
L 377.866199 -162.893983 
L 377.866199 -162.893983 
L 377.866199 -163.7375 
L 377.866199 -163.7375 
L 377.866199 -164.592815 
L 377.866199 -164.592815 
L 377.866199 -165.460176 
L 377.866199 -165.460176 
L 377.866199 -166.33984 
L 377.866199 -166.33984 
L 377.866199 -167.232071 
L 377.866199 -167.232071 
L 377.866199 -168.13714 
L 377.866199 -168.13714 
L 377.866199 -169.055326 
L 377.866199 -169.055326 
L 377.866199 -169.986916 
L 377.866199 -169.986916 
L 377.866199 -170.932206 
L 377.866199 -170.932206 
L 377.866199 -171.8915 
L 377.866199 -171.8915 
L 377.866199 -172.865112 
L 377.866199 -172.865112 
L 377.866199 -173.853365 
L 371.75113 -173.853365 
L 371.75113 -172.385682 
L 371.75113 -172.385682 
L 371.75113 -173.385363 
L 365.636062 -173.385363 
L 365.636062 -171.8915 
L 365.636062 -171.8915 
L 365.636062 -172.902849 
L 365.636062 -172.902849 
L 365.636062 -173.93 
L 365.636062 -173.93 
L 365.636062 -174.973327 
L 365.636062 -174.973327 
L 365.636062 -176.033214 
L 365.636062 -176.033214 
L 365.636062 -177.11006 
L 365.636062 -177.11006 
L 365.636062 -178.204274 
L 365.636062 -178.204274 
L 365.636062 -179.31628 
L 359.520993 -179.31628 
L 359.520993 -177.773074 
L 359.520993 -177.773074 
L 359.520993 -178.899897 
L 359.520993 -178.899897 
L 359.520993 -180.0455 
L 359.520993 -180.0455 
L 359.520993 -181.210357 
L 359.520993 -181.210357 
L 359.520993 -182.394958 
L 359.520993 -182.394958 
L 359.520993 -183.599808 
L 359.520993 -183.599808 
L 359.520993 -184.825431 
L 359.520993 -184.825431 
L 359.520993 -186.07237 
L 359.520993 -186.07237 
L 359.520993 -187.341184 
L 359.520993 -187.341184 
L 359.520993 -188.632456 
L 353.405925 -188.632456 
L 353.405925 -187.034643 
L 347.290856 -187.034643 
L 347.290856 -185.408041 
L 347.290856 -185.408041 
L 347.290856 -186.716955 
L 347.290856 -186.716955 
L 347.290856 -188.049885 
L 347.290856 -188.049885 
L 347.290856 -189.4075 
L 347.290856 -189.4075 
L 347.290856 -190.790491 
L 347.290856 -190.790491 
L 347.290856 -192.199575 
L 347.290856 -192.199575 
L 347.290856 -193.6355 
L 347.290856 -193.6355 
L 347.290856 -195.099038 
L 347.290856 -195.099038 
L 347.290856 -196.590995 
L 347.290856 -196.590995 
L 347.290856 -198.112206 
L 347.290856 -198.112206 
L 347.290856 -199.66354 
L 347.290856 -199.66354 
L 347.290856 -201.2459 
L 347.290856 -201.2459 
L 347.290856 -202.860227 
L 347.290856 -202.860227 
L 347.290856 -204.5075 
L 347.290856 -204.5075 
L 347.290856 -206.188737 
L 347.290856 -206.188737 
L 347.290856 -207.905 
L 347.290856 -207.905 
L 347.290856 -209.657395 
L 347.290856 -209.657395 
L 347.290856 -211.447074 
L 347.290856 -211.447074 
L 347.290856 -213.275242 
L 341.175788 -213.275242 
L 341.175788 -211.597935 
L 341.175788 -211.597935 
L 341.175788 -213.46794 
L 341.175788 -213.46794 
L 341.175788 -215.3795 
L 341.175788 -215.3795 
L 341.175788 -217.334017 
L 335.060719 -217.334017 
L 335.060719 -215.626591 
L 335.060719 -215.626591 
L 335.060719 -217.628879 
L 335.060719 -217.628879 
L 335.060719 -219.677733 
L 335.060719 -219.677733 
L 335.060719 -221.774794 
L 328.945651 -221.774794 
L 328.945651 -220.038929 
L 322.830582 -220.038929 
L 322.830582 -218.261235 
L 316.715514 -218.261235 
L 316.715514 -216.440183 
L 310.600445 -216.440183 
L 310.600445 -214.574167 
L 310.600445 -214.574167 
L 310.600445 -216.7385 
L 310.600445 -216.7385 
L 310.600445 -218.957627 
L 310.600445 -218.957627 
L 310.600445 -221.233654 
L 310.600445 -221.233654 
L 310.600445 -223.568799 
L 304.485377 -223.568799 
L 304.485377 -221.673816 
L 304.485377 -221.673816 
L 304.485377 -224.0771 
L 298.370308 -224.0771 
L 298.370308 -222.13777 
L 298.370308 -222.13777 
L 298.370308 -224.613253 
L 292.25524 -224.613253 
L 292.25524 -222.6275 
L 292.25524 -222.6275 
L 292.25524 -225.179613 
L 292.25524 -225.179613 
L 292.25524 -227.804643 
L 280.025103 -227.804643 
L 280.025103 -223.693382 
L 273.910034 -223.693382 
L 273.910034 -221.545709 
L 273.910034 -221.545709 
L 273.910034 -224.274773 
L 273.910034 -224.274773 
L 273.910034 -227.087808 
L 273.910034 -227.087808 
L 273.910034 -229.98875 
L 273.910034 -229.98875 
L 273.910034 -232.981786 
L 267.794966 -232.981786 
L 267.794966 -230.810726 
L 261.679897 -230.810726 
L 261.679897 -228.568484 
L 261.679897 -228.568484 
L 261.679897 -231.6875 
L 261.679897 -231.6875 
L 261.679897 -234.912246 
L 255.564829 -234.912246 
L 255.564829 -232.624741 
L 249.44976 -232.624741 
L 249.44976 -230.256974 
L 249.44976 -230.256974 
L 249.44976 -233.628929 
L 249.44976 -233.628929 
L 249.44976 -237.1235 
L 249.44976 -237.1235 
L 249.44976 -240.7475 
L 243.334692 -240.7475 
L 243.334692 -238.354292 
L 243.334692 -238.354292 
L 243.334692 -242.141346 
L 237.219623 -242.141346 
L 237.219623 -239.681618 
L 231.104555 -239.681618 
L 231.104555 -237.1235 
L 224.989486 -237.1235 
L 224.989486 -234.460969 
L 224.989486 -234.460969 
L 224.989486 -238.4825 
L 218.874418 -238.4825 
L 218.874418 -235.735585 
L 212.759349 -235.735585 
L 212.759349 -232.869239 
L 212.759349 -232.869239 
L 212.759349 -237.1235 
L 206.644281 -237.1235 
L 206.644281 -234.158409 
L 200.529212 -234.158409 
L 200.529212 -231.055407 
L 194.414144 -231.055407 
L 194.414144 -227.804643 
L 194.414144 -227.804643 
L 194.414144 -232.350427 
L 188.299075 -232.350427 
L 188.299075 -228.9695 
L 188.299075 -228.9695 
L 188.299075 -233.778269 
L 182.184007 -233.778269 
L 182.184007 -230.256974 
L 176.068938 -230.256974 
L 176.068938 -226.545338 
L 176.068938 -226.545338 
L 176.068938 -231.6875 
L 176.068938 -231.6875 
L 176.068938 -237.1235 
L 169.95387 -237.1235 
L 169.95387 -233.286324 
L 163.838801 -233.286324 
L 163.838801 -229.216591 
L 163.838801 -229.216591 
L 163.838801 -235.085 
L 163.838801 -235.085 
L 163.838801 -241.332016 
L 163.838801 -241.332016 
L 163.838801 -247.9955 
L 157.723733 -247.9955 
L 157.723733 -243.871638 
L 151.608664 -243.871638 
L 151.608664 -239.453214 
L 145.493596 -239.453214 
L 145.493596 -234.7075 
L 145.493596 -234.7075 
L 145.493596 -242.141346 
L 139.378527 -242.141346 
L 139.378527 -237.1235 
L 139.378527 -237.1235 
L 139.378527 -245.2775 
L 133.263459 -245.2775 
L 133.263459 -239.959674 
L 127.14839 -239.959674 
L 127.14839 -234.158409 
L 121.033322 -234.158409 
L 121.033322 -227.804643 
L 114.918253 -227.804643 
L 114.918253 -220.8155 
L 108.803185 -220.8155 
L 108.803185 -213.090658 
L 102.688116 -213.090658 
L 102.688116 -204.5075 
L 102.688116 -204.5075 
L 102.688116 -214.100441 
L 96.573048 -214.100441 
L 96.573048 -204.5075 
L 96.573048 -204.5075 
L 96.573048 -215.3795 
L 96.573048 -215.3795 
L 96.573048 -227.804643 
L 90.457979 -227.804643 
L 90.457979 -217.052115 
L 90.457979 -217.052115 
L 90.457979 -231.6875 
L 84.342911 -231.6875 
L 84.342911 -219.332955 
L 78.227842 -219.332955 
L 78.227842 -204.5075 
L 78.227842 -204.5075 
L 78.227842 -222.6275 
L 78.227842 -222.6275 
L 78.227842 -245.2775 
L 78.227842 -245.2775 
L 78.227842 -274.398929 
L 72.112774 -274.398929 
L 72.112774 -258.8675 
L 65.997705 -258.8675 
L 65.997705 -237.1235 
L 65.997705 -237.1235 
L 65.997705 -286.0475 
L 65.997705 -286.0475 
L 65.997705 -367.5875 
L 59.882637 -367.5875 
L 59.882637 -367.5875 
L 53.767568 -367.5875 
L 53.767568 -367.5875 
L 47.6525 -367.5875 
L 47.6525 -367.5875 
L 47.6525 -41.4275 
L 47.6525 -41.4275 
L 47.6525 -41.4275 
L 53.767568 -41.4275 
L 53.767568 -41.4275 
L 59.882637 -41.4275 
L 59.882637 -41.4275 
L 65.997705 -41.4275 
L 65.997705 -41.4275 
L 65.997705 -41.4275 
L 65.997705 -41.4275 
L 65.997705 -41.4275 
L 65.997705 -41.4275 
L 72.112774 -41.4275 
L 72.112774 -41.4275 
L 78.227842 -41.4275 
L 78.227842 -41.4275 
L 78.227842 -41.4275 
L 78.227842 -41.4275 
L 78.227842 -41.4275 
L 78.227842 -41.4275 
L 78.227842 -41.4275 
L 78.227842 -41.4275 
L 84.342911 -41.4275 
L 84.342911 -41.4275 
L 90.457979 -41.4275 
L 90.457979 -41.4275 
L 90.457979 -41.4275 
L 90.457979 -41.4275 
L 96.573048 -41.4275 
L 96.573048 -41.4275 
L 96.573048 -41.4275 
L 96.573048 -41.4275 
L 96.573048 -41.4275 
L 96.573048 -41.4275 
L 102.688116 -41.4275 
L 102.688116 -41.4275 
L 102.688116 -41.4275 
L 102.688116 -41.4275 
L 108.803185 -41.4275 
L 108.803185 -41.4275 
L 114.918253 -41.4275 
L 114.918253 -41.4275 
L 121.033322 -41.4275 
L 121.033322 -41.4275 
L 127.14839 -41.4275 
L 127.14839 -41.4275 
L 133.263459 -41.4275 
L 133.263459 -41.4275 
L 139.378527 -41.4275 
L 139.378527 -41.4275 
L 139.378527 -41.4275 
L 139.378527 -41.4275 
L 145.493596 -41.4275 
L 145.493596 -41.4275 
L 145.493596 -41.4275 
L 145.493596 -41.4275 
L 151.608664 -41.4275 
L 151.608664 -41.4275 
L 157.723733 -41.4275 
L 157.723733 -41.4275 
L 163.838801 -41.4275 
L 163.838801 -41.4275 
L 163.838801 -41.4275 
L 163.838801 -41.4275 
L 163.838801 -41.4275 
L 163.838801 -41.4275 
L 163.838801 -41.4275 
L 163.838801 -41.4275 
L 169.95387 -41.4275 
L 169.95387 -41.4275 
L 176.068938 -41.4275 
L 176.068938 -41.4275 
L 176.068938 -41.4275 
L 176.068938 -41.4275 
L 176.068938 -41.4275 
L 176.068938 -41.4275 
L 182.184007 -41.4275 
L 182.184007 -41.4275 
L 188.299075 -41.4275 
L 188.299075 -41.4275 
L 188.299075 -41.4275 
L 188.299075 -41.4275 
L 194.414144 -41.4275 
L 194.414144 -41.4275 
L 194.414144 -41.4275 
L 194.414144 -41.4275 
L 200.529212 -41.4275 
L 200.529212 -41.4275 
L 206.644281 -41.4275 
L 206.644281 -41.4275 
L 212.759349 -41.4275 
L 212.759349 -41.4275 
L 212.759349 -41.4275 
L 212.759349 -41.4275 
L 218.874418 -41.4275 
L 218.874418 -41.4275 
L 224.989486 -41.4275 
L 224.989486 -41.4275 
L 224.989486 -41.4275 
L 224.989486 -41.4275 
L 231.104555 -41.4275 
L 231.104555 -41.4275 
L 237.219623 -41.4275 
L 237.219623 -41.4275 
L 243.334692 -41.4275 
L 243.334692 -41.4275 
L 243.334692 -41.4275 
L 243.334692 -41.4275 
L 249.44976 -41.4275 
L 249.44976 -41.4275 
L 249.44976 -41.4275 
L 249.44976 -41.4275 
L 249.44976 -41.4275 
L 249.44976 -41.4275 
L 249.44976 -41.4275 
L 249.44976 -41.4275 
L 255.564829 -41.4275 
L 255.564829 -41.4275 
L 261.679897 -41.4275 
L 261.679897 -41.4275 
L 261.679897 -41.4275 
L 261.679897 -41.4275 
L 261.679897 -41.4275 
L 261.679897 -41.4275 
L 267.794966 -41.4275 
L 267.794966 -41.4275 
L 273.910034 -41.4275 
L 273.910034 -41.4275 
L 273.910034 -41.4275 
L 273.910034 -41.4275 
L 273.910034 -41.4275 
L 273.910034 -41.4275 
L 273.910034 -41.4275 
L 273.910034 -41.4275 
L 273.910034 -41.4275 
L 273.910034 -41.4275 
L 280.025103 -41.4275 
L 280.025103 -41.4275 
L 292.25524 -41.4275 
L 292.25524 -41.4275 
L 292.25524 -41.4275 
L 292.25524 -41.4275 
L 292.25524 -41.4275 
L 292.25524 -41.4275 
L 298.370308 -41.4275 
L 298.370308 -41.4275 
L 298.370308 -41.4275 
L 298.370308 -41.4275 
L 304.485377 -41.4275 
L 304.485377 -41.4275 
L 304.485377 -41.4275 
L 304.485377 -41.4275 
L 310.600445 -41.4275 
L 310.600445 -41.4275 
L 310.600445 -41.4275 
L 310.600445 -41.4275 
L 310.600445 -41.4275 
L 310.600445 -41.4275 
L 310.600445 -41.4275 
L 310.600445 -41.4275 
L 310.600445 -41.4275 
L 310.600445 -41.4275 
L 316.715514 -41.4275 
L 316.715514 -41.4275 
L 322.830582 -41.4275 
L 322.830582 -41.4275 
L 328.945651 -41.4275 
L 328.945651 -41.4275 
L 335.060719 -41.4275 
L 335.060719 -41.4275 
L 335.060719 -41.4275 
L 335.060719 -41.4275 
L 335.060719 -41.4275 
L 335.060719 -41.4275 
L 335.060719 -41.4275 
L 335.060719 -41.4275 
L 341.175788 -41.4275 
L 341.175788 -41.4275 
L 341.175788 -41.4275 
L 341.175788 -41.4275 
L 341.175788 -41.4275 
L 341.175788 -41.4275 
L 341.175788 -41.4275 
L 341.175788 -41.4275 
L 347.290856 -41.4275 
L 347.290856 -41.4275 
L 347.290856 -41.4275 
L 347.290856 -41.4275 
L 347.290856 -41.4275 
L 347.290856 -41.4275 
L 347.290856 -41.4275 
L 347.290856 -41.4275 
L 347.290856 -41.4275 
L 347.290856 -41.4275 
L 347.290856 -41.4275 
L 347.290856 -41.4275 
L 347.290856 -41.4275 
L 347.290856 -41.4275 
L 347.290856 -41.4275 
L 347.290856 -41.4275 
L 347.290856 -41.4275 
L 347.290856 -41.4275 
L 347.290856 -41.4275 
L 347.290856 -41.4275 
L 347.290856 -41.4275 
L 347.290856 -41.4275 
L 347.290856 -41.4275 
L 347.290856 -41.4275 
L 347.290856 -41.4275 
L 347.290856 -41.4275 
L 347.290856 -41.4275 
L 347.290856 -41.4275 
L 347.290856 -41.4275 
L 347.290856 -41.4275 
L 347.290856 -41.4275 
L 347.290856 -41.4275 
L 347.290856 -41.4275 
L 347.290856 -41.4275 
L 347.290856 -41.4275 
L 347.290856 -41.4275 
L 347.290856 -41.4275 
L 347.290856 -41.4275 
L 353.405925 -41.4275 
L 353.405925 -41.4275 
L 359.520993 -41.4275 
L 359.520993 -41.4275 
L 359.520993 -41.4275 
L 359.520993 -41.4275 
L 359.520993 -41.4275 
L 359.520993 -41.4275 
L 359.520993 -41.4275 
L 359.520993 -41.4275 
L 359.520993 -41.4275 
L 359.520993 -41.4275 
L 359.520993 -41.4275 
L 359.520993 -41.4275 
L 359.520993 -41.4275 
L 359.520993 -41.4275 
L 359.520993 -41.4275 
L 359.520993 -41.4275 
L 359.520993 -41.4275 
L 359.520993 -41.4275 
L 359.520993 -41.4275 
L 359.520993 -41.4275 
L 365.636062 -41.4275 
L 365.636062 -41.4275 
L 365.636062 -41.4275 
L 365.636062 -41.4275 
L 365.636062 -41.4275 
L 365.636062 -41.4275 
L 365.636062 -41.4275 
L 365.636062 -41.4275 
L 365.636062 -41.4275 
L 365.636062 -41.4275 
L 365.636062 -41.4275 
L 365.636062 -41.4275 
L 365.636062 -41.4275 
L 365.636062 -41.4275 
L 365.636062 -41.4275 
L 365.636062 -41.4275 
L 371.75113 -41.4275 
L 371.75113 -41.4275 
L 371.75113 -41.4275 
L 371.75113 -41.4275 
L 377.866199 -41.4275 
L 377.866199 -41.4275 
L 377.866199 -41.4275 
L 377.866199 -41.4275 
L 377.866199 -41.4275 
L 377.866199 -41.4275 
L 377.866199 -41.4275 
L 377.866199 -41.4275 
L 377.866199 -41.4275 
L 377.866199 -41.4275 
L 377.866199 -41.4275 
L 377.866199 -41.4275 
L 377.866199 -41.4275 
L 377.866199 -41.4275 
L 377.866199 -41.4275 
L 377.866199 -41.4275 
L 377.866199 -41.4275 
L 377.866199 -41.4275 
L 377.866199 -41.4275 
L 377.866199 -41.4275 
L 377.866199 -41.4275 
L 377.866199 -41.4275 
L 377.866199 -41.4275 
L 377.866199 -41.4275 
L 377.866199 -41.4275 
L 377.866199 -41.4275 
L 377.866199 -41.4275 
L 377.866199 -41.4275 
L 383.981267 -41.4275 
L 383.981267 -41.4275 
L 383.981267 -41.4275 
L 383.981267 -41.4275 
L 383.981267 -41.4275 
L 383.981267 -41.4275 
L 383.981267 -41.4275 
L 383.981267 -41.4275 
L 383.981267 -41.4275 
L 383.981267 -41.4275 
L 383.981267 -41.4275 
L 383.981267 -41.4275 
L 390.096336 -41.4275 
L 390.096336 -41.4275 
L 390.096336 -41.4275 
L 390.096336 -41.4275 
L 390.096336 -41.4275 
L 390.096336 -41.4275 
L 390.096336 -41.4275 
L 390.096336 -41.4275 
L 390.096336 -41.4275 
L 390.096336 -41.4275 
L 390.096336 -41.4275 
L 390.096336 -41.4275 
L 390.096336 -41.4275 
L 390.096336 -41.4275 
L 390.096336 -41.4275 
L 390.096336 -41.4275 
L 390.096336 -41.4275 
L 390.096336 -41.4275 
L 390.096336 -41.4275 
L 390.096336 -41.4275 
L 390.096336 -41.4275 
L 390.096336 -41.4275 
L 396.211404 -41.4275 
L 396.211404 -41.4275 
L 396.211404 -41.4275 
L 396.211404 -41.4275 
L 396.211404 -41.4275 
L 396.211404 -41.4275 
L 396.211404 -41.4275 
L 396.211404 -41.4275 
L 396.211404 -41.4275 
L 396.211404 -41.4275 
L 396.211404 -41.4275 
L 396.211404 -41.4275 
L 396.211404 -41.4275 
L 396.211404 -41.4275 
L 396.211404 -41.4275 
L 396.211404 -41.4275 
L 396.211404 -41.4275 
L 396.211404 -41.4275 
L 396.211404 -41.4275 
L 396.211404 -41.4275 
L 396.211404 -41.4275 
L 396.211404 -41.4275 
L 396.211404 -41.4275 
L 396.211404 -41.4275 
L 396.211404 -41.4275 
L 396.211404 -41.4275 
L 396.211404 -41.4275 
L 396.211404 -41.4275 
L 396.211404 -41.4275 
L 396.211404 -41.4275 
L 396.211404 -41.4275 
L 396.211404 -41.4275 
L 396.211404 -41.4275 
L 396.211404 -41.4275 
L 396.211404 -41.4275 
L 396.211404 -41.4275 
L 396.211404 -41.4275 
L 396.211404 -41.4275 
L 396.211404 -41.4275 
L 396.211404 -41.4275 
L 396.211404 -41.4275 
L 396.211404 -41.4275 
L 396.211404 -41.4275 
L 396.211404 -41.4275 
L 396.211404 -41.4275 
L 396.211404 -41.4275 
L 396.211404 -41.4275 
L 396.211404 -41.4275 
L 396.211404 -41.4275 
L 396.211404 -41.4275 
L 396.211404 -41.4275 
L 396.211404 -41.4275 
L 396.211404 -41.4275 
L 396.211404 -41.4275 
L 396.211404 -41.4275 
L 396.211404 -41.4275 
L 402.326473 -41.4275 
L 402.326473 -41.4275 
L 408.441541 -41.4275 
L 408.441541 -41.4275 
L 408.441541 -41.4275 
L 408.441541 -41.4275 
L 408.441541 -41.4275 
L 408.441541 -41.4275 
L 408.441541 -41.4275 
L 408.441541 -41.4275 
L 408.441541 -41.4275 
L 408.441541 -41.4275 
L 408.441541 -41.4275 
L 408.441541 -41.4275 
L 408.441541 -41.4275 
L 408.441541 -41.4275 
L 408.441541 -41.4275 
L 408.441541 -41.4275 
L 408.441541 -41.4275 
L 408.441541 -41.4275 
L 414.55661 -41.4275 
L 414.55661 -41.4275 
L 414.55661 -41.4275 
L 414.55661 -41.4275 
L 414.55661 -41.4275 
L 414.55661 -41.4275 
L 414.55661 -41.4275 
L 414.55661 -41.4275 
L 414.55661 -41.4275 
L 414.55661 -41.4275 
L 414.55661 -41.4275 
L 414.55661 -41.4275 
L 414.55661 -41.4275 
L 414.55661 -41.4275 
L 414.55661 -41.4275 
L 414.55661 -41.4275 
L 414.55661 -41.4275 
L 414.55661 -41.4275 
L 414.55661 -41.4275 
L 414.55661 -41.4275 
L 414.55661 -41.4275 
L 414.55661 -41.4275 
L 463.477158 -41.4275 
L 463.477158 -41.4275 
L 463.477158 -41.4275 
L 463.477158 -41.4275 
L 463.477158 -41.4275 
L 463.477158 -41.4275 
L 463.477158 -41.4275 
L 463.477158 -41.4275 
L 463.477158 -41.4275 
L 463.477158 -41.4275 
L 463.477158 -41.4275 
L 463.477158 -41.4275 
L 463.477158 -41.4275 
L 463.477158 -41.4275 
L 463.477158 -41.4275 
L 463.477158 -41.4275 
L 463.477158 -41.4275 
L 463.477158 -41.4275 
L 463.477158 -41.4275 
L 463.477158 -41.4275 
L 463.477158 -41.4275 
L 463.477158 -41.4275 
L 463.477158 -41.4275 
L 463.477158 -41.4275 
L 463.477158 -41.4275 
L 463.477158 -41.4275 
L 463.477158 -41.4275 
L 463.477158 -41.4275 
L 463.477158 -41.4275 
L 463.477158 -41.4275 
L 463.477158 -41.4275 
L 463.477158 -41.4275 
L 463.477158 -41.4275 
L 463.477158 -41.4275 
L 463.477158 -41.4275 
L 463.477158 -41.4275 
L 463.477158 -41.4275 
L 463.477158 -41.4275 
L 469.592226 -41.4275 
L 469.592226 -41.4275 
L 469.592226 -41.4275 
L 469.592226 -41.4275 
L 469.592226 -41.4275 
L 469.592226 -41.4275 
L 469.592226 -41.4275 
L 469.592226 -41.4275 
L 469.592226 -41.4275 
L 469.592226 -41.4275 
L 469.592226 -41.4275 
L 469.592226 -41.4275 
L 469.592226 -41.4275 
L 469.592226 -41.4275 
L 469.592226 -41.4275 
L 469.592226 -41.4275 
L 469.592226 -41.4275 
L 469.592226 -41.4275 
L 469.592226 -41.4275 
L 469.592226 -41.4275 
L 469.592226 -41.4275 
L 469.592226 -41.4275 
L 469.592226 -41.4275 
L 469.592226 -41.4275 
L 469.592226 -41.4275 
L 469.592226 -41.4275 
L 469.592226 -41.4275 
L 469.592226 -41.4275 
L 469.592226 -41.4275 
L 469.592226 -41.4275 
L 469.592226 -41.4275 
L 469.592226 -41.4275 
L 469.592226 -41.4275 
L 469.592226 -41.4275 
L 469.592226 -41.4275 
L 469.592226 -41.4275 
L 469.592226 -41.4275 
L 469.592226 -41.4275 
L 469.592226 -41.4275 
L 469.592226 -41.4275 
L 469.592226 -41.4275 
L 469.592226 -41.4275 
L 469.592226 -41.4275 
L 469.592226 -41.4275 
L 469.592226 -41.4275 
L 469.592226 -41.4275 
L 469.592226 -41.4275 
L 469.592226 -41.4275 
L 469.592226 -41.4275 
L 469.592226 -41.4275 
L 469.592226 -41.4275 
L 469.592226 -41.4275 
L 469.592226 -41.4275 
L 469.592226 -41.4275 
L 469.592226 -41.4275 
L 469.592226 -41.4275 
L 469.592226 -41.4275 
L 469.592226 -41.4275 
L 469.592226 -41.4275 
L 469.592226 -41.4275 
L 469.592226 -41.4275 
L 469.592226 -41.4275 
L 469.592226 -41.4275 
L 469.592226 -41.4275 
L 469.592226 -41.4275 
L 469.592226 -41.4275 
L 469.592226 -41.4275 
L 469.592226 -41.4275 
L 469.592226 -41.4275 
L 469.592226 -41.4275 
L 469.592226 -41.4275 
L 469.592226 -41.4275 
L 469.592226 -41.4275 
L 469.592226 -41.4275 
L 469.592226 -41.4275 
L 469.592226 -41.4275 
L 469.592226 -41.4275 
L 469.592226 -41.4275 
L 469.592226 -41.4275 
L 469.592226 -41.4275 
L 469.592226 -41.4275 
L 469.592226 -41.4275 
L 469.592226 -41.4275 
L 469.592226 -41.4275 
L 469.592226 -41.4275 
L 469.592226 -41.4275 
L 475.707295 -41.4275 
L 475.707295 -41.4275 
L 475.707295 -41.4275 
L 475.707295 -41.4275 
L 475.707295 -41.4275 
L 475.707295 -41.4275 
L 481.822363 -41.4275 
L 481.822363 -41.4275 
L 481.822363 -41.4275 
L 481.822363 -41.4275 
L 481.822363 -41.4275 
L 481.822363 -41.4275 
L 481.822363 -41.4275 
L 481.822363 -41.4275 
L 481.822363 -41.4275 
L 481.822363 -41.4275 
L 481.822363 -41.4275 
L 481.822363 -41.4275 
L 481.822363 -41.4275 
L 481.822363 -41.4275 
L 481.822363 -41.4275 
L 481.822363 -41.4275 
L 487.937432 -41.4275 
L 487.937432 -41.4275 
L 487.937432 -41.4275 
L 487.937432 -41.4275 
L 487.937432 -41.4275 
L 487.937432 -41.4275 
L 487.937432 -41.4275 
L 487.937432 -41.4275 
L 494.0525 -41.4275 
z
" id="m0a1fe9d82a" style="stroke:#dc143c;stroke-opacity:0.3;"/>
    </defs>
    <g clip-path="url(#pcc46d4cc31)">
     <use style="fill:#dc143c;fill-opacity:0.3;stroke:#dc143c;stroke-opacity:0.3;" x="0" xlink:href="#m0a1fe9d82a" y="410.8615"/>
    </g>
   </g>
   <g id="matplotlib.axis_1">
    <g id="xtick_1">
     <g id="line2d_1">
      <defs>
       <path d="M 0 0 
L 0 3.5 
" id="m7b2fe16a12" style="stroke:#000000;stroke-width:0.8;"/>
      </defs>
      <g>
       <use style="stroke:#000000;stroke-width:0.8;" x="47.6525" xlink:href="#m7b2fe16a12" y="369.434"/>
      </g>
     </g>
     <g id="text_1">
      <!-- 0.0 -->
      <defs>
       <path d="M 31.78125 66.40625 
Q 24.171875 66.40625 20.328125 58.90625 
Q 16.5 51.421875 16.5 36.375 
Q 16.5 21.390625 20.328125 13.890625 
Q 24.171875 6.390625 31.78125 6.390625 
Q 39.453125 6.390625 43.28125 13.890625 
Q 47.125 21.390625 47.125 36.375 
Q 47.125 51.421875 43.28125 58.90625 
Q 39.453125 66.40625 31.78125 66.40625 
z
M 31.78125 74.21875 
Q 44.046875 74.21875 50.515625 64.515625 
Q 56.984375 54.828125 56.984375 36.375 
Q 56.984375 17.96875 50.515625 8.265625 
Q 44.046875 -1.421875 31.78125 -1.421875 
Q 19.53125 -1.421875 13.0625 8.265625 
Q 6.59375 17.96875 6.59375 36.375 
Q 6.59375 54.828125 13.0625 64.515625 
Q 19.53125 74.21875 31.78125 74.21875 
z
" id="DejaVuSans-48"/>
       <path d="M 10.6875 12.40625 
L 21 12.40625 
L 21 0 
L 10.6875 0 
z
" id="DejaVuSans-46"/>
      </defs>
      <g transform="translate(39.700938 384.032437)scale(0.1 -0.1)">
       <use xlink:href="#DejaVuSans-48"/>
       <use x="63.623047" xlink:href="#DejaVuSans-46"/>
       <use x="95.410156" xlink:href="#DejaVuSans-48"/>
      </g>
     </g>
    </g>
    <g id="xtick_2">
     <g id="line2d_2">
      <g>
       <use style="stroke:#000000;stroke-width:0.8;" x="136.9325" xlink:href="#m7b2fe16a12" y="369.434"/>
      </g>
     </g>
     <g id="text_2">
      <!-- 0.2 -->
      <defs>
       <path d="M 19.1875 8.296875 
L 53.609375 8.296875 
L 53.609375 0 
L 7.328125 0 
L 7.328125 8.296875 
Q 12.9375 14.109375 22.625 23.890625 
Q 32.328125 33.6875 34.8125 36.53125 
Q 39.546875 41.84375 41.421875 45.53125 
Q 43.3125 49.21875 43.3125 52.78125 
Q 43.3125 58.59375 39.234375 62.25 
Q 35.15625 65.921875 28.609375 65.921875 
Q 23.96875 65.921875 18.8125 64.3125 
Q 13.671875 62.703125 7.8125 59.421875 
L 7.8125 69.390625 
Q 13.765625 71.78125 18.9375 73 
Q 24.125 74.21875 28.421875 74.21875 
Q 39.75 74.21875 46.484375 68.546875 
Q 53.21875 62.890625 53.21875 53.421875 
Q 53.21875 48.921875 51.53125 44.890625 
Q 49.859375 40.875 45.40625 35.40625 
Q 44.1875 33.984375 37.640625 27.21875 
Q 31.109375 20.453125 19.1875 8.296875 
z
" id="DejaVuSans-50"/>
      </defs>
      <g transform="translate(128.980938 384.032437)scale(0.1 -0.1)">
       <use xlink:href="#DejaVuSans-48"/>
       <use x="63.623047" xlink:href="#DejaVuSans-46"/>
       <use x="95.410156" xlink:href="#DejaVuSans-50"/>
      </g>
     </g>
    </g>
    <g id="xtick_3">
     <g id="line2d_3">
      <g>
       <use style="stroke:#000000;stroke-width:0.8;" x="226.2125" xlink:href="#m7b2fe16a12" y="369.434"/>
      </g>
     </g>
     <g id="text_3">
      <!-- 0.4 -->
      <defs>
       <path d="M 37.796875 64.3125 
L 12.890625 25.390625 
L 37.796875 25.390625 
z
M 35.203125 72.90625 
L 47.609375 72.90625 
L 47.609375 25.390625 
L 58.015625 25.390625 
L 58.015625 17.1875 
L 47.609375 17.1875 
L 47.609375 0 
L 37.796875 0 
L 37.796875 17.1875 
L 4.890625 17.1875 
L 4.890625 26.703125 
z
" id="DejaVuSans-52"/>
      </defs>
      <g transform="translate(218.260938 384.032437)scale(0.1 -0.1)">
       <use xlink:href="#DejaVuSans-48"/>
       <use x="63.623047" xlink:href="#DejaVuSans-46"/>
       <use x="95.410156" xlink:href="#DejaVuSans-52"/>
      </g>
     </g>
    </g>
    <g id="xtick_4">
     <g id="line2d_4">
      <g>
       <use style="stroke:#000000;stroke-width:0.8;" x="315.4925" xlink:href="#m7b2fe16a12" y="369.434"/>
      </g>
     </g>
     <g id="text_4">
      <!-- 0.6 -->
      <defs>
       <path d="M 33.015625 40.375 
Q 26.375 40.375 22.484375 35.828125 
Q 18.609375 31.296875 18.609375 23.390625 
Q 18.609375 15.53125 22.484375 10.953125 
Q 26.375 6.390625 33.015625 6.390625 
Q 39.65625 6.390625 43.53125 10.953125 
Q 47.40625 15.53125 47.40625 23.390625 
Q 47.40625 31.296875 43.53125 35.828125 
Q 39.65625 40.375 33.015625 40.375 
z
M 52.59375 71.296875 
L 52.59375 62.3125 
Q 48.875 64.0625 45.09375 64.984375 
Q 41.3125 65.921875 37.59375 65.921875 
Q 27.828125 65.921875 22.671875 59.328125 
Q 17.53125 52.734375 16.796875 39.40625 
Q 19.671875 43.65625 24.015625 45.921875 
Q 28.375 48.1875 33.59375 48.1875 
Q 44.578125 48.1875 50.953125 41.515625 
Q 57.328125 34.859375 57.328125 23.390625 
Q 57.328125 12.15625 50.6875 5.359375 
Q 44.046875 -1.421875 33.015625 -1.421875 
Q 20.359375 -1.421875 13.671875 8.265625 
Q 6.984375 17.96875 6.984375 36.375 
Q 6.984375 53.65625 15.1875 63.9375 
Q 23.390625 74.21875 37.203125 74.21875 
Q 40.921875 74.21875 44.703125 73.484375 
Q 48.484375 72.75 52.59375 71.296875 
z
" id="DejaVuSans-54"/>
      </defs>
      <g transform="translate(307.540938 384.032437)scale(0.1 -0.1)">
       <use xlink:href="#DejaVuSans-48"/>
       <use x="63.623047" xlink:href="#DejaVuSans-46"/>
       <use x="95.410156" xlink:href="#DejaVuSans-54"/>
      </g>
     </g>
    </g>
    <g id="xtick_5">
     <g id="line2d_5">
      <g>
       <use style="stroke:#000000;stroke-width:0.8;" x="404.7725" xlink:href="#m7b2fe16a12" y="369.434"/>
      </g>
     </g>
     <g id="text_5">
      <!-- 0.8 -->
      <defs>
       <path d="M 31.78125 34.625 
Q 24.75 34.625 20.71875 30.859375 
Q 16.703125 27.09375 16.703125 20.515625 
Q 16.703125 13.921875 20.71875 10.15625 
Q 24.75 6.390625 31.78125 6.390625 
Q 38.8125 6.390625 42.859375 10.171875 
Q 46.921875 13.96875 46.921875 20.515625 
Q 46.921875 27.09375 42.890625 30.859375 
Q 38.875 34.625 31.78125 34.625 
z
M 21.921875 38.8125 
Q 15.578125 40.375 12.03125 44.71875 
Q 8.5 49.078125 8.5 55.328125 
Q 8.5 64.0625 14.71875 69.140625 
Q 20.953125 74.21875 31.78125 74.21875 
Q 42.671875 74.21875 48.875 69.140625 
Q 55.078125 64.0625 55.078125 55.328125 
Q 55.078125 49.078125 51.53125 44.71875 
Q 48 40.375 41.703125 38.8125 
Q 48.828125 37.15625 52.796875 32.3125 
Q 56.78125 27.484375 56.78125 20.515625 
Q 56.78125 9.90625 50.3125 4.234375 
Q 43.84375 -1.421875 31.78125 -1.421875 
Q 19.734375 -1.421875 13.25 4.234375 
Q 6.78125 9.90625 6.78125 20.515625 
Q 6.78125 27.484375 10.78125 32.3125 
Q 14.796875 37.15625 21.921875 38.8125 
z
M 18.3125 54.390625 
Q 18.3125 48.734375 21.84375 45.5625 
Q 25.390625 42.390625 31.78125 42.390625 
Q 38.140625 42.390625 41.71875 45.5625 
Q 45.3125 48.734375 45.3125 54.390625 
Q 45.3125 60.0625 41.71875 63.234375 
Q 38.140625 66.40625 31.78125 66.40625 
Q 25.390625 66.40625 21.84375 63.234375 
Q 18.3125 60.0625 18.3125 54.390625 
z
" id="DejaVuSans-56"/>
      </defs>
      <g transform="translate(396.820938 384.032437)scale(0.1 -0.1)">
       <use xlink:href="#DejaVuSans-48"/>
       <use x="63.623047" xlink:href="#DejaVuSans-46"/>
       <use x="95.410156" xlink:href="#DejaVuSans-56"/>
      </g>
     </g>
    </g>
    <g id="xtick_6">
     <g id="line2d_6">
      <g>
       <use style="stroke:#000000;stroke-width:0.8;" x="494.0525" xlink:href="#m7b2fe16a12" y="369.434"/>
      </g>
     </g>
     <g id="text_6">
      <!-- 1.0 -->
      <defs>
       <path d="M 12.40625 8.296875 
L 28.515625 8.296875 
L 28.515625 63.921875 
L 10.984375 60.40625 
L 10.984375 69.390625 
L 28.421875 72.90625 
L 38.28125 72.90625 
L 38.28125 8.296875 
L 54.390625 8.296875 
L 54.390625 0 
L 12.40625 0 
z
" id="DejaVuSans-49"/>
      </defs>
      <g transform="translate(486.100937 384.032437)scale(0.1 -0.1)">
       <use xlink:href="#DejaVuSans-49"/>
       <use x="63.623047" xlink:href="#DejaVuSans-46"/>
       <use x="95.410156" xlink:href="#DejaVuSans-48"/>
      </g>
     </g>
    </g>
    <g id="text_7">
     <!-- Recall -->
     <defs>
      <path d="M 44.390625 34.1875 
Q 47.5625 33.109375 50.5625 29.59375 
Q 53.5625 26.078125 56.59375 19.921875 
L 66.609375 0 
L 56 0 
L 46.6875 18.703125 
Q 43.0625 26.03125 39.671875 28.421875 
Q 36.28125 30.8125 30.421875 30.8125 
L 19.671875 30.8125 
L 19.671875 0 
L 9.8125 0 
L 9.8125 72.90625 
L 32.078125 72.90625 
Q 44.578125 72.90625 50.734375 67.671875 
Q 56.890625 62.453125 56.890625 51.90625 
Q 56.890625 45.015625 53.6875 40.46875 
Q 50.484375 35.9375 44.390625 34.1875 
z
M 19.671875 64.796875 
L 19.671875 38.921875 
L 32.078125 38.921875 
Q 39.203125 38.921875 42.84375 42.21875 
Q 46.484375 45.515625 46.484375 51.90625 
Q 46.484375 58.296875 42.84375 61.546875 
Q 39.203125 64.796875 32.078125 64.796875 
z
" id="DejaVuSans-82"/>
      <path d="M 56.203125 29.59375 
L 56.203125 25.203125 
L 14.890625 25.203125 
Q 15.484375 15.921875 20.484375 11.0625 
Q 25.484375 6.203125 34.421875 6.203125 
Q 39.59375 6.203125 44.453125 7.46875 
Q 49.3125 8.734375 54.109375 11.28125 
L 54.109375 2.78125 
Q 49.265625 0.734375 44.1875 -0.34375 
Q 39.109375 -1.421875 33.890625 -1.421875 
Q 20.796875 -1.421875 13.15625 6.1875 
Q 5.515625 13.8125 5.515625 26.8125 
Q 5.515625 40.234375 12.765625 48.109375 
Q 20.015625 56 32.328125 56 
Q 43.359375 56 49.78125 48.890625 
Q 56.203125 41.796875 56.203125 29.59375 
z
M 47.21875 32.234375 
Q 47.125 39.59375 43.09375 43.984375 
Q 39.0625 48.390625 32.421875 48.390625 
Q 24.90625 48.390625 20.390625 44.140625 
Q 15.875 39.890625 15.1875 32.171875 
z
" id="DejaVuSans-101"/>
      <path d="M 48.78125 52.59375 
L 48.78125 44.1875 
Q 44.96875 46.296875 41.140625 47.34375 
Q 37.3125 48.390625 33.40625 48.390625 
Q 24.65625 48.390625 19.8125 42.84375 
Q 14.984375 37.3125 14.984375 27.296875 
Q 14.984375 17.28125 19.8125 11.734375 
Q 24.65625 6.203125 33.40625 6.203125 
Q 37.3125 6.203125 41.140625 7.25 
Q 44.96875 8.296875 48.78125 10.40625 
L 48.78125 2.09375 
Q 45.015625 0.34375 40.984375 -0.53125 
Q 36.96875 -1.421875 32.421875 -1.421875 
Q 20.0625 -1.421875 12.78125 6.34375 
Q 5.515625 14.109375 5.515625 27.296875 
Q 5.515625 40.671875 12.859375 48.328125 
Q 20.21875 56 33.015625 56 
Q 37.15625 56 41.109375 55.140625 
Q 45.0625 54.296875 48.78125 52.59375 
z
" id="DejaVuSans-99"/>
      <path d="M 34.28125 27.484375 
Q 23.390625 27.484375 19.1875 25 
Q 14.984375 22.515625 14.984375 16.5 
Q 14.984375 11.71875 18.140625 8.90625 
Q 21.296875 6.109375 26.703125 6.109375 
Q 34.1875 6.109375 38.703125 11.40625 
Q 43.21875 16.703125 43.21875 25.484375 
L 43.21875 27.484375 
z
M 52.203125 31.203125 
L 52.203125 0 
L 43.21875 0 
L 43.21875 8.296875 
Q 40.140625 3.328125 35.546875 0.953125 
Q 30.953125 -1.421875 24.3125 -1.421875 
Q 15.921875 -1.421875 10.953125 3.296875 
Q 6 8.015625 6 15.921875 
Q 6 25.140625 12.171875 29.828125 
Q 18.359375 34.515625 30.609375 34.515625 
L 43.21875 34.515625 
L 43.21875 35.40625 
Q 43.21875 41.609375 39.140625 45 
Q 35.0625 48.390625 27.6875 48.390625 
Q 23 48.390625 18.546875 47.265625 
Q 14.109375 46.140625 10.015625 43.890625 
L 10.015625 52.203125 
Q 14.9375 54.109375 19.578125 55.046875 
Q 24.21875 56 28.609375 56 
Q 40.484375 56 46.34375 49.84375 
Q 52.203125 43.703125 52.203125 31.203125 
z
" id="DejaVuSans-97"/>
      <path d="M 9.421875 75.984375 
L 18.40625 75.984375 
L 18.40625 0 
L 9.421875 0 
z
" id="DejaVuSans-108"/>
     </defs>
     <g transform="translate(249.657812 400.749937)scale(0.14 -0.14)">
      <use xlink:href="#DejaVuSans-82"/>
      <use x="69.419922" xlink:href="#DejaVuSans-101"/>
      <use x="130.943359" xlink:href="#DejaVuSans-99"/>
      <use x="185.923828" xlink:href="#DejaVuSans-97"/>
      <use x="247.203125" xlink:href="#DejaVuSans-108"/>
      <use x="274.986328" xlink:href="#DejaVuSans-108"/>
     </g>
    </g>
   </g>
   <g id="matplotlib.axis_2">
    <g id="ytick_1">
     <g id="line2d_7">
      <defs>
       <path d="M 0 0 
L -3.5 0 
" id="m15333df165" style="stroke:#000000;stroke-width:0.8;"/>
      </defs>
      <g>
       <use style="stroke:#000000;stroke-width:0.8;" x="47.6525" xlink:href="#m15333df165" y="369.434"/>
      </g>
     </g>
     <g id="text_8">
      <!-- 0.0 -->
      <g transform="translate(24.749375 373.233219)scale(0.1 -0.1)">
       <use xlink:href="#DejaVuSans-48"/>
       <use x="63.623047" xlink:href="#DejaVuSans-46"/>
       <use x="95.410156" xlink:href="#DejaVuSans-48"/>
      </g>
     </g>
    </g>
    <g id="ytick_2">
     <g id="line2d_8">
      <g>
       <use style="stroke:#000000;stroke-width:0.8;" x="47.6525" xlink:href="#m15333df165" y="304.202"/>
      </g>
     </g>
     <g id="text_9">
      <!-- 0.2 -->
      <g transform="translate(24.749375 308.001219)scale(0.1 -0.1)">
       <use xlink:href="#DejaVuSans-48"/>
       <use x="63.623047" xlink:href="#DejaVuSans-46"/>
       <use x="95.410156" xlink:href="#DejaVuSans-50"/>
      </g>
     </g>
    </g>
    <g id="ytick_3">
     <g id="line2d_9">
      <g>
       <use style="stroke:#000000;stroke-width:0.8;" x="47.6525" xlink:href="#m15333df165" y="238.97"/>
      </g>
     </g>
     <g id="text_10">
      <!-- 0.4 -->
      <g transform="translate(24.749375 242.769219)scale(0.1 -0.1)">
       <use xlink:href="#DejaVuSans-48"/>
       <use x="63.623047" xlink:href="#DejaVuSans-46"/>
       <use x="95.410156" xlink:href="#DejaVuSans-52"/>
      </g>
     </g>
    </g>
    <g id="ytick_4">
     <g id="line2d_10">
      <g>
       <use style="stroke:#000000;stroke-width:0.8;" x="47.6525" xlink:href="#m15333df165" y="173.738"/>
      </g>
     </g>
     <g id="text_11">
      <!-- 0.6 -->
      <g transform="translate(24.749375 177.537219)scale(0.1 -0.1)">
       <use xlink:href="#DejaVuSans-48"/>
       <use x="63.623047" xlink:href="#DejaVuSans-46"/>
       <use x="95.410156" xlink:href="#DejaVuSans-54"/>
      </g>
     </g>
    </g>
    <g id="ytick_5">
     <g id="line2d_11">
      <g>
       <use style="stroke:#000000;stroke-width:0.8;" x="47.6525" xlink:href="#m15333df165" y="108.506"/>
      </g>
     </g>
     <g id="text_12">
      <!-- 0.8 -->
      <g transform="translate(24.749375 112.305219)scale(0.1 -0.1)">
       <use xlink:href="#DejaVuSans-48"/>
       <use x="63.623047" xlink:href="#DejaVuSans-46"/>
       <use x="95.410156" xlink:href="#DejaVuSans-56"/>
      </g>
     </g>
    </g>
    <g id="ytick_6">
     <g id="line2d_12">
      <g>
       <use style="stroke:#000000;stroke-width:0.8;" x="47.6525" xlink:href="#m15333df165" y="43.274"/>
      </g>
     </g>
     <g id="text_13">
      <!-- 1.0 -->
      <g transform="translate(24.749375 47.073219)scale(0.1 -0.1)">
       <use xlink:href="#DejaVuSans-49"/>
       <use x="63.623047" xlink:href="#DejaVuSans-46"/>
       <use x="95.410156" xlink:href="#DejaVuSans-48"/>
      </g>
     </g>
    </g>
    <g id="text_14">
     <!-- Precision or F1 Score -->
     <defs>
      <path d="M 19.671875 64.796875 
L 19.671875 37.40625 
L 32.078125 37.40625 
Q 38.96875 37.40625 42.71875 40.96875 
Q 46.484375 44.53125 46.484375 51.125 
Q 46.484375 57.671875 42.71875 61.234375 
Q 38.96875 64.796875 32.078125 64.796875 
z
M 9.8125 72.90625 
L 32.078125 72.90625 
Q 44.34375 72.90625 50.609375 67.359375 
Q 56.890625 61.8125 56.890625 51.125 
Q 56.890625 40.328125 50.609375 34.8125 
Q 44.34375 29.296875 32.078125 29.296875 
L 19.671875 29.296875 
L 19.671875 0 
L 9.8125 0 
z
" id="DejaVuSans-80"/>
      <path d="M 41.109375 46.296875 
Q 39.59375 47.171875 37.8125 47.578125 
Q 36.03125 48 33.890625 48 
Q 26.265625 48 22.1875 43.046875 
Q 18.109375 38.09375 18.109375 28.8125 
L 18.109375 0 
L 9.078125 0 
L 9.078125 54.6875 
L 18.109375 54.6875 
L 18.109375 46.1875 
Q 20.953125 51.171875 25.484375 53.578125 
Q 30.03125 56 36.53125 56 
Q 37.453125 56 38.578125 55.875 
Q 39.703125 55.765625 41.0625 55.515625 
z
" id="DejaVuSans-114"/>
      <path d="M 9.421875 54.6875 
L 18.40625 54.6875 
L 18.40625 0 
L 9.421875 0 
z
M 9.421875 75.984375 
L 18.40625 75.984375 
L 18.40625 64.59375 
L 9.421875 64.59375 
z
" id="DejaVuSans-105"/>
      <path d="M 44.28125 53.078125 
L 44.28125 44.578125 
Q 40.484375 46.53125 36.375 47.5 
Q 32.28125 48.484375 27.875 48.484375 
Q 21.1875 48.484375 17.84375 46.4375 
Q 14.5 44.390625 14.5 40.28125 
Q 14.5 37.15625 16.890625 35.375 
Q 19.28125 33.59375 26.515625 31.984375 
L 29.59375 31.296875 
Q 39.15625 29.25 43.1875 25.515625 
Q 47.21875 21.78125 47.21875 15.09375 
Q 47.21875 7.46875 41.1875 3.015625 
Q 35.15625 -1.421875 24.609375 -1.421875 
Q 20.21875 -1.421875 15.453125 -0.5625 
Q 10.6875 0.296875 5.421875 2 
L 5.421875 11.28125 
Q 10.40625 8.6875 15.234375 7.390625 
Q 20.0625 6.109375 24.8125 6.109375 
Q 31.15625 6.109375 34.5625 8.28125 
Q 37.984375 10.453125 37.984375 14.40625 
Q 37.984375 18.0625 35.515625 20.015625 
Q 33.0625 21.96875 24.703125 23.78125 
L 21.578125 24.515625 
Q 13.234375 26.265625 9.515625 29.90625 
Q 5.8125 33.546875 5.8125 39.890625 
Q 5.8125 47.609375 11.28125 51.796875 
Q 16.75 56 26.8125 56 
Q 31.78125 56 36.171875 55.265625 
Q 40.578125 54.546875 44.28125 53.078125 
z
" id="DejaVuSans-115"/>
      <path d="M 30.609375 48.390625 
Q 23.390625 48.390625 19.1875 42.75 
Q 14.984375 37.109375 14.984375 27.296875 
Q 14.984375 17.484375 19.15625 11.84375 
Q 23.34375 6.203125 30.609375 6.203125 
Q 37.796875 6.203125 41.984375 11.859375 
Q 46.1875 17.53125 46.1875 27.296875 
Q 46.1875 37.015625 41.984375 42.703125 
Q 37.796875 48.390625 30.609375 48.390625 
z
M 30.609375 56 
Q 42.328125 56 49.015625 48.375 
Q 55.71875 40.765625 55.71875 27.296875 
Q 55.71875 13.875 49.015625 6.21875 
Q 42.328125 -1.421875 30.609375 -1.421875 
Q 18.84375 -1.421875 12.171875 6.21875 
Q 5.515625 13.875 5.515625 27.296875 
Q 5.515625 40.765625 12.171875 48.375 
Q 18.84375 56 30.609375 56 
z
" id="DejaVuSans-111"/>
      <path d="M 54.890625 33.015625 
L 54.890625 0 
L 45.90625 0 
L 45.90625 32.71875 
Q 45.90625 40.484375 42.875 44.328125 
Q 39.84375 48.1875 33.796875 48.1875 
Q 26.515625 48.1875 22.3125 43.546875 
Q 18.109375 38.921875 18.109375 30.90625 
L 18.109375 0 
L 9.078125 0 
L 9.078125 54.6875 
L 18.109375 54.6875 
L 18.109375 46.1875 
Q 21.34375 51.125 25.703125 53.5625 
Q 30.078125 56 35.796875 56 
Q 45.21875 56 50.046875 50.171875 
Q 54.890625 44.34375 54.890625 33.015625 
z
" id="DejaVuSans-110"/>
      <path id="DejaVuSans-32"/>
      <path d="M 9.8125 72.90625 
L 51.703125 72.90625 
L 51.703125 64.59375 
L 19.671875 64.59375 
L 19.671875 43.109375 
L 48.578125 43.109375 
L 48.578125 34.8125 
L 19.671875 34.8125 
L 19.671875 0 
L 9.8125 0 
z
" id="DejaVuSans-70"/>
      <path d="M 53.515625 70.515625 
L 53.515625 60.890625 
Q 47.90625 63.578125 42.921875 64.890625 
Q 37.9375 66.21875 33.296875 66.21875 
Q 25.25 66.21875 20.875 63.09375 
Q 16.5 59.96875 16.5 54.203125 
Q 16.5 49.359375 19.40625 46.890625 
Q 22.3125 44.4375 30.421875 42.921875 
L 36.375 41.703125 
Q 47.40625 39.59375 52.65625 34.296875 
Q 57.90625 29 57.90625 20.125 
Q 57.90625 9.515625 50.796875 4.046875 
Q 43.703125 -1.421875 29.984375 -1.421875 
Q 24.8125 -1.421875 18.96875 -0.25 
Q 13.140625 0.921875 6.890625 3.21875 
L 6.890625 13.375 
Q 12.890625 10.015625 18.65625 8.296875 
Q 24.421875 6.59375 29.984375 6.59375 
Q 38.421875 6.59375 43.015625 9.90625 
Q 47.609375 13.234375 47.609375 19.390625 
Q 47.609375 24.75 44.3125 27.78125 
Q 41.015625 30.8125 33.5 32.328125 
L 27.484375 33.5 
Q 16.453125 35.6875 11.515625 40.375 
Q 6.59375 45.0625 6.59375 53.421875 
Q 6.59375 63.09375 13.40625 68.65625 
Q 20.21875 74.21875 32.171875 74.21875 
Q 37.3125 74.21875 42.625 73.28125 
Q 47.953125 72.359375 53.515625 70.515625 
z
" id="DejaVuSans-83"/>
     </defs>
     <g transform="translate(17.837812 279.933844)rotate(-90)scale(0.14 -0.14)">
      <use xlink:href="#DejaVuSans-80"/>
      <use x="60.287109" xlink:href="#DejaVuSans-114"/>
      <use x="101.369141" xlink:href="#DejaVuSans-101"/>
      <use x="162.892578" xlink:href="#DejaVuSans-99"/>
      <use x="217.873047" xlink:href="#DejaVuSans-105"/>
      <use x="245.65625" xlink:href="#DejaVuSans-115"/>
      <use x="297.755859" xlink:href="#DejaVuSans-105"/>
      <use x="325.539062" xlink:href="#DejaVuSans-111"/>
      <use x="386.720703" xlink:href="#DejaVuSans-110"/>
      <use x="450.099609" xlink:href="#DejaVuSans-32"/>
      <use x="481.886719" xlink:href="#DejaVuSans-111"/>
      <use x="543.068359" xlink:href="#DejaVuSans-114"/>
      <use x="584.181641" xlink:href="#DejaVuSans-32"/>
      <use x="615.96875" xlink:href="#DejaVuSans-70"/>
      <use x="673.488281" xlink:href="#DejaVuSans-49"/>
      <use x="737.111328" xlink:href="#DejaVuSans-32"/>
      <use x="768.898438" xlink:href="#DejaVuSans-83"/>
      <use x="832.375" xlink:href="#DejaVuSans-99"/>
      <use x="887.355469" xlink:href="#DejaVuSans-111"/>
      <use x="948.537109" xlink:href="#DejaVuSans-114"/>
      <use x="989.619141" xlink:href="#DejaVuSans-101"/>
     </g>
    </g>
   </g>
   <g id="line2d_13">
    <path clip-path="url(#pcc46d4cc31)" d="M 494.0525 314.949606 
L 487.937432 314.949606 
L 487.937432 315.572716 
L 487.937432 315.199543 
L 481.822363 315.199543 
L 481.822363 315.579674 
L 481.822363 314.688468 
L 475.707295 314.688468 
L 475.707295 315.33163 
L 475.707295 315.074 
L 469.592226 315.074 
L 469.592226 315.722687 
L 469.592226 308.773515 
L 463.477158 308.773515 
L 463.477158 309.491081 
L 463.477158 303.6213 
L 414.55661 303.6213 
L 414.55661 293.582837 
L 408.441541 293.582837 
L 408.441541 294.556802 
L 408.441541 292.151108 
L 402.326473 292.151108 
L 402.326473 292.534488 
L 396.211404 292.534488 
L 396.211404 293.551878 
L 396.211404 256.073512 
L 390.096336 256.073512 
L 390.096336 257.379031 
L 390.096336 250.055176 
L 383.981267 250.055176 
L 383.981267 251.415579 
L 383.981267 247.401347 
L 377.866199 247.401347 
L 377.866199 248.799479 
L 377.866199 237.008135 
L 371.75113 237.008135 
L 371.75113 238.475818 
L 371.75113 237.476137 
L 365.636062 237.476137 
L 365.636062 238.97 
L 365.636062 231.54522 
L 359.520993 231.54522 
L 359.520993 233.088426 
L 359.520993 222.229044 
L 353.405925 222.229044 
L 353.405925 223.826857 
L 347.290856 223.826857 
L 347.290856 225.453459 
L 347.290856 197.586258 
L 341.175788 197.586258 
L 341.175788 199.263565 
L 341.175788 193.527483 
L 335.060719 193.527483 
L 335.060719 195.234909 
L 335.060719 189.086706 
L 328.945651 189.086706 
L 328.945651 190.822571 
L 322.830582 190.822571 
L 322.830582 192.600265 
L 316.715514 192.600265 
L 316.715514 194.421317 
L 310.600445 194.421317 
L 310.600445 196.287333 
L 310.600445 187.292701 
L 304.485377 187.292701 
L 304.485377 189.187684 
L 304.485377 186.7844 
L 298.370308 186.7844 
L 298.370308 188.72373 
L 298.370308 186.248247 
L 292.25524 186.248247 
L 292.25524 188.234 
L 292.25524 183.056857 
L 280.025103 183.056857 
L 280.025103 187.168118 
L 273.910034 187.168118 
L 273.910034 189.315791 
L 273.910034 177.879714 
L 267.794966 177.879714 
L 267.794966 180.050774 
L 261.679897 180.050774 
L 261.679897 182.293016 
L 261.679897 175.949254 
L 255.564829 175.949254 
L 255.564829 178.236759 
L 249.44976 178.236759 
L 249.44976 180.604526 
L 249.44976 170.114 
L 243.334692 170.114 
L 243.334692 172.507208 
L 243.334692 168.720154 
L 237.219623 168.720154 
L 237.219623 171.179882 
L 231.104555 171.179882 
L 231.104555 173.738 
L 224.989486 173.738 
L 224.989486 176.400531 
L 224.989486 172.379 
L 218.874418 172.379 
L 218.874418 175.125915 
L 212.759349 175.125915 
L 212.759349 177.992261 
L 212.759349 173.738 
L 206.644281 173.738 
L 206.644281 176.703091 
L 200.529212 176.703091 
L 200.529212 179.806093 
L 194.414144 179.806093 
L 194.414144 183.056857 
L 194.414144 178.511073 
L 188.299075 178.511073 
L 188.299075 181.892 
L 188.299075 177.083231 
L 182.184007 177.083231 
L 182.184007 180.604526 
L 176.068938 180.604526 
L 176.068938 184.316162 
L 176.068938 173.738 
L 169.95387 173.738 
L 169.95387 177.575176 
L 163.838801 177.575176 
L 163.838801 181.644909 
L 163.838801 162.866 
L 157.723733 162.866 
L 157.723733 166.989862 
L 151.608664 166.989862 
L 151.608664 171.408286 
L 145.493596 171.408286 
L 145.493596 176.154 
L 145.493596 168.720154 
L 139.378527 168.720154 
L 139.378527 173.738 
L 139.378527 165.584 
L 133.263459 165.584 
L 133.263459 170.901826 
L 127.14839 170.901826 
L 127.14839 176.703091 
L 121.033322 176.703091 
L 121.033322 183.056857 
L 114.918253 183.056857 
L 114.918253 190.046 
L 108.803185 190.046 
L 108.803185 197.770842 
L 102.688116 197.770842 
L 102.688116 206.354 
L 102.688116 196.761059 
L 96.573048 196.761059 
L 96.573048 206.354 
L 96.573048 183.056857 
L 90.457979 183.056857 
L 90.457979 193.809385 
L 90.457979 179.174 
L 84.342911 179.174 
L 84.342911 191.528545 
L 78.227842 191.528545 
L 78.227842 206.354 
L 78.227842 136.462571 
L 72.112774 136.462571 
L 72.112774 151.994 
L 65.997705 151.994 
L 65.997705 173.738 
L 65.997705 43.274 
L 47.6525 43.274 
L 47.6525 43.274 
" style="fill:none;stroke:#dc143c;stroke-linecap:square;stroke-opacity:0.3;stroke-width:1.5;"/>
   </g>
   <g id="line2d_14">
    <path clip-path="url(#pcc46d4cc31)" d="M 47.6525 330.401738 
L 494.0525 330.401738 
" style="fill:none;stroke:#ff0000;stroke-dasharray:5.55,2.4;stroke-dashoffset:0;stroke-width:1.5;"/>
   </g>
   <g id="line2d_15">
    <path clip-path="url(#pcc46d4cc31)" d="M 47.6525 189.086706 
L 494.0525 189.086706 
" style="fill:none;stroke:#000000;stroke-dasharray:1.5,2.475;stroke-dashoffset:0;stroke-opacity:0.4;stroke-width:1.5;"/>
   </g>
   <g id="line2d_16">
    <path clip-path="url(#pcc46d4cc31)" d="M 335.060719 369.434 
L 335.060719 43.274 
" style="fill:none;stroke:#000000;stroke-dasharray:1.5,2.475;stroke-dashoffset:0;stroke-opacity:0.4;stroke-width:1.5;"/>
   </g>
   <g id="line2d_17">
    <path clip-path="url(#pcc46d4cc31)" d="M 494.0525 276.062706 
L 487.937432 277.160837 
L 487.937432 276.613763 
L 481.822363 277.357022 
L 481.822363 276.057548 
L 475.707295 277.186727 
L 475.707295 276.812499 
L 469.592226 277.950098 
L 469.592226 268.059946 
L 463.477158 269.303616 
L 463.477158 261.244341 
L 414.55661 254.656287 
L 414.55661 251.188683 
L 408.441541 252.807091 
L 408.441541 249.909528 
L 402.326473 250.830364 
L 396.211404 252.508717 
L 396.211404 212.546911 
L 390.096336 214.646203 
L 390.096336 207.797186 
L 383.981267 209.978 
L 383.981267 206.354 
L 377.866199 208.587973 
L 377.866199 198.437495 
L 371.75113 200.785415 
L 371.75113 199.958706 
L 365.636062 202.337251 
L 365.636062 196.36951 
L 359.520993 198.827231 
L 359.520993 190.572065 
L 347.290856 195.718348 
L 347.290856 176.881711 
L 341.175788 179.668182 
L 341.175788 176.154 
L 335.060719 179.00518 
L 335.060719 175.389443 
L 316.715514 184.25929 
L 310.600445 187.292701 
L 310.600445 182.4356 
L 304.485377 185.558564 
L 304.485377 184.316162 
L 298.370308 187.494408 
L 298.370308 186.248247 
L 292.25524 189.483655 
L 292.25524 186.966867 
L 273.910034 197.035143 
L 273.910034 191.964588 
L 261.679897 199.05191 
L 261.679897 196.470364 
L 249.44976 203.845077 
L 249.44976 199.933528 
L 243.334692 203.765429 
L 243.334692 202.44008 
L 231.104555 210.331561 
L 224.989486 214.374328 
L 224.989486 213.092843 
L 212.759349 221.428622 
L 212.759349 220.174339 
L 200.529212 228.847793 
L 194.414144 233.297652 
L 194.414144 232.103474 
L 188.299075 236.660903 
L 188.299075 235.475429 
L 176.068938 244.900182 
L 176.068938 242.594 
L 163.838801 252.508717 
L 163.838801 249.103126 
L 151.608664 259.637564 
L 145.493596 265.0628 
L 145.493596 264.008545 
L 139.378527 269.589102 
L 139.378527 268.559773 
L 127.14839 280.169158 
L 114.918253 292.277871 
L 102.688116 304.918835 
L 102.688116 304.202 
L 96.573048 310.798494 
L 96.573048 309.450552 
L 90.457979 316.338186 
L 90.457979 315.713529 
L 84.342911 322.839714 
L 78.227842 330.137614 
L 78.227842 328.664 
L 72.112774 336.405139 
L 65.997705 344.344769 
L 65.997705 343.684526 
L 59.882637 352.0388 
L 53.767568 360.618865 
L 47.6525 369.434 
L 47.6525 369.434 
" style="fill:none;stroke:#000000;stroke-linecap:square;stroke-width:1.5;"/>
   </g>
   <g id="patch_3">
    <path d="M 47.6525 369.434 
L 47.6525 43.274 
" style="fill:none;stroke:#000000;stroke-linecap:square;stroke-linejoin:miter;stroke-width:0.8;"/>
   </g>
   <g id="patch_4">
    <path d="M 494.0525 369.434 
L 494.0525 43.274 
" style="fill:none;stroke:#000000;stroke-linecap:square;stroke-linejoin:miter;stroke-width:0.8;"/>
   </g>
   <g id="patch_5">
    <path d="M 47.6525 369.434 
L 494.0525 369.434 
" style="fill:none;stroke:#000000;stroke-linecap:square;stroke-linejoin:miter;stroke-width:0.8;"/>
   </g>
   <g id="patch_6">
    <path d="M 47.6525 43.274 
L 494.0525 43.274 
" style="fill:none;stroke:#000000;stroke-linecap:square;stroke-linejoin:miter;stroke-width:0.8;"/>
   </g>
   <g id="text_15">
    <!-- Max F1=0.595 -->
    <defs>
     <path d="M 9.8125 72.90625 
L 24.515625 72.90625 
L 43.109375 23.296875 
L 61.8125 72.90625 
L 76.515625 72.90625 
L 76.515625 0 
L 66.890625 0 
L 66.890625 64.015625 
L 48.09375 14.015625 
L 38.1875 14.015625 
L 19.390625 64.015625 
L 19.390625 0 
L 9.8125 0 
z
" id="DejaVuSans-77"/>
     <path d="M 54.890625 54.6875 
L 35.109375 28.078125 
L 55.90625 0 
L 45.3125 0 
L 29.390625 21.484375 
L 13.484375 0 
L 2.875 0 
L 24.125 28.609375 
L 4.6875 54.6875 
L 15.28125 54.6875 
L 29.78125 35.203125 
L 44.28125 54.6875 
z
" id="DejaVuSans-120"/>
     <path d="M 10.59375 45.40625 
L 73.1875 45.40625 
L 73.1875 37.203125 
L 10.59375 37.203125 
z
M 10.59375 25.484375 
L 73.1875 25.484375 
L 73.1875 17.1875 
L 10.59375 17.1875 
z
" id="DejaVuSans-61"/>
     <path d="M 10.796875 72.90625 
L 49.515625 72.90625 
L 49.515625 64.59375 
L 19.828125 64.59375 
L 19.828125 46.734375 
Q 21.96875 47.46875 24.109375 47.828125 
Q 26.265625 48.1875 28.421875 48.1875 
Q 40.625 48.1875 47.75 41.5 
Q 54.890625 34.8125 54.890625 23.390625 
Q 54.890625 11.625 47.5625 5.09375 
Q 40.234375 -1.421875 26.90625 -1.421875 
Q 22.3125 -1.421875 17.546875 -0.640625 
Q 12.796875 0.140625 7.71875 1.703125 
L 7.71875 11.625 
Q 12.109375 9.234375 16.796875 8.0625 
Q 21.484375 6.890625 26.703125 6.890625 
Q 35.15625 6.890625 40.078125 11.328125 
Q 45.015625 15.765625 45.015625 23.390625 
Q 45.015625 31 40.078125 35.4375 
Q 35.15625 39.890625 26.703125 39.890625 
Q 22.75 39.890625 18.8125 39.015625 
Q 14.890625 38.140625 10.796875 36.28125 
z
" id="DejaVuSans-53"/>
     <path d="M 10.984375 1.515625 
L 10.984375 10.5 
Q 14.703125 8.734375 18.5 7.8125 
Q 22.3125 6.890625 25.984375 6.890625 
Q 35.75 6.890625 40.890625 13.453125 
Q 46.046875 20.015625 46.78125 33.40625 
Q 43.953125 29.203125 39.59375 26.953125 
Q 35.25 24.703125 29.984375 24.703125 
Q 19.046875 24.703125 12.671875 31.3125 
Q 6.296875 37.9375 6.296875 49.421875 
Q 6.296875 60.640625 12.9375 67.421875 
Q 19.578125 74.21875 30.609375 74.21875 
Q 43.265625 74.21875 49.921875 64.515625 
Q 56.59375 54.828125 56.59375 36.375 
Q 56.59375 19.140625 48.40625 8.859375 
Q 40.234375 -1.421875 26.421875 -1.421875 
Q 22.703125 -1.421875 18.890625 -0.6875 
Q 15.09375 0.046875 10.984375 1.515625 
z
M 30.609375 32.421875 
Q 37.25 32.421875 41.125 36.953125 
Q 45.015625 41.5 45.015625 49.421875 
Q 45.015625 57.28125 41.125 61.84375 
Q 37.25 66.40625 30.609375 66.40625 
Q 23.96875 66.40625 20.09375 61.84375 
Q 16.21875 57.28125 16.21875 49.421875 
Q 16.21875 41.5 20.09375 36.953125 
Q 23.96875 32.421875 30.609375 32.421875 
z
" id="DejaVuSans-57"/>
    </defs>
    <g transform="translate(335.060719 172.127843)scale(0.1 -0.1)">
     <use xlink:href="#DejaVuSans-77"/>
     <use x="86.279297" xlink:href="#DejaVuSans-97"/>
     <use x="147.558594" xlink:href="#DejaVuSans-120"/>
     <use x="206.738281" xlink:href="#DejaVuSans-32"/>
     <use x="238.525391" xlink:href="#DejaVuSans-70"/>
     <use x="296.044922" xlink:href="#DejaVuSans-49"/>
     <use x="359.667969" xlink:href="#DejaVuSans-61"/>
     <use x="443.457031" xlink:href="#DejaVuSans-48"/>
     <use x="507.080078" xlink:href="#DejaVuSans-46"/>
     <use x="538.867188" xlink:href="#DejaVuSans-53"/>
     <use x="602.490234" xlink:href="#DejaVuSans-57"/>
     <use x="666.113281" xlink:href="#DejaVuSans-53"/>
    </g>
   </g>
   <g id="text_16">
    <!-- NR.AhR Neural Network -->
    <defs>
     <path d="M 9.8125 72.90625 
L 23.09375 72.90625 
L 55.421875 11.921875 
L 55.421875 72.90625 
L 64.984375 72.90625 
L 64.984375 0 
L 51.703125 0 
L 19.390625 60.984375 
L 19.390625 0 
L 9.8125 0 
z
" id="DejaVuSans-78"/>
     <path d="M 34.1875 63.1875 
L 20.796875 26.90625 
L 47.609375 26.90625 
z
M 28.609375 72.90625 
L 39.796875 72.90625 
L 67.578125 0 
L 57.328125 0 
L 50.6875 18.703125 
L 17.828125 18.703125 
L 11.1875 0 
L 0.78125 0 
z
" id="DejaVuSans-65"/>
     <path d="M 54.890625 33.015625 
L 54.890625 0 
L 45.90625 0 
L 45.90625 32.71875 
Q 45.90625 40.484375 42.875 44.328125 
Q 39.84375 48.1875 33.796875 48.1875 
Q 26.515625 48.1875 22.3125 43.546875 
Q 18.109375 38.921875 18.109375 30.90625 
L 18.109375 0 
L 9.078125 0 
L 9.078125 75.984375 
L 18.109375 75.984375 
L 18.109375 46.1875 
Q 21.34375 51.125 25.703125 53.5625 
Q 30.078125 56 35.796875 56 
Q 45.21875 56 50.046875 50.171875 
Q 54.890625 44.34375 54.890625 33.015625 
z
" id="DejaVuSans-104"/>
     <path d="M 8.5 21.578125 
L 8.5 54.6875 
L 17.484375 54.6875 
L 17.484375 21.921875 
Q 17.484375 14.15625 20.5 10.265625 
Q 23.53125 6.390625 29.59375 6.390625 
Q 36.859375 6.390625 41.078125 11.03125 
Q 45.3125 15.671875 45.3125 23.6875 
L 45.3125 54.6875 
L 54.296875 54.6875 
L 54.296875 0 
L 45.3125 0 
L 45.3125 8.40625 
Q 42.046875 3.421875 37.71875 1 
Q 33.40625 -1.421875 27.6875 -1.421875 
Q 18.265625 -1.421875 13.375 4.4375 
Q 8.5 10.296875 8.5 21.578125 
z
M 31.109375 56 
z
" id="DejaVuSans-117"/>
     <path d="M 18.3125 70.21875 
L 18.3125 54.6875 
L 36.8125 54.6875 
L 36.8125 47.703125 
L 18.3125 47.703125 
L 18.3125 18.015625 
Q 18.3125 11.328125 20.140625 9.421875 
Q 21.96875 7.515625 27.59375 7.515625 
L 36.8125 7.515625 
L 36.8125 0 
L 27.59375 0 
Q 17.1875 0 13.234375 3.875 
Q 9.28125 7.765625 9.28125 18.015625 
L 9.28125 47.703125 
L 2.6875 47.703125 
L 2.6875 54.6875 
L 9.28125 54.6875 
L 9.28125 70.21875 
z
" id="DejaVuSans-116"/>
     <path d="M 4.203125 54.6875 
L 13.1875 54.6875 
L 24.421875 12.015625 
L 35.59375 54.6875 
L 46.1875 54.6875 
L 57.421875 12.015625 
L 68.609375 54.6875 
L 77.59375 54.6875 
L 63.28125 0 
L 52.6875 0 
L 40.921875 44.828125 
L 29.109375 0 
L 18.5 0 
z
" id="DejaVuSans-119"/>
     <path d="M 9.078125 75.984375 
L 18.109375 75.984375 
L 18.109375 31.109375 
L 44.921875 54.6875 
L 56.390625 54.6875 
L 27.390625 29.109375 
L 57.625 0 
L 45.90625 0 
L 18.109375 26.703125 
L 18.109375 0 
L 9.078125 0 
z
" id="DejaVuSans-107"/>
    </defs>
    <g transform="translate(175.79 19.3575)scale(0.16 -0.16)">
     <use xlink:href="#DejaVuSans-78"/>
     <use x="74.804688" xlink:href="#DejaVuSans-82"/>
     <use x="144.240234" xlink:href="#DejaVuSans-46"/>
     <use x="176.027344" xlink:href="#DejaVuSans-65"/>
     <use x="244.435547" xlink:href="#DejaVuSans-104"/>
     <use x="307.814453" xlink:href="#DejaVuSans-82"/>
     <use x="377.296875" xlink:href="#DejaVuSans-32"/>
     <use x="409.083984" xlink:href="#DejaVuSans-78"/>
     <use x="483.888672" xlink:href="#DejaVuSans-101"/>
     <use x="545.412109" xlink:href="#DejaVuSans-117"/>
     <use x="608.791016" xlink:href="#DejaVuSans-114"/>
     <use x="649.904297" xlink:href="#DejaVuSans-97"/>
     <use x="711.183594" xlink:href="#DejaVuSans-108"/>
     <use x="738.966797" xlink:href="#DejaVuSans-32"/>
     <use x="770.753906" xlink:href="#DejaVuSans-78"/>
     <use x="845.558594" xlink:href="#DejaVuSans-101"/>
     <use x="907.082031" xlink:href="#DejaVuSans-116"/>
     <use x="946.291016" xlink:href="#DejaVuSans-119"/>
     <use x="1028.078125" xlink:href="#DejaVuSans-111"/>
     <use x="1089.259766" xlink:href="#DejaVuSans-114"/>
     <use x="1130.373047" xlink:href="#DejaVuSans-107"/>
    </g>
    <!--  Precision-Recall curve: AP=0.50 -->
    <defs>
     <path d="M 4.890625 31.390625 
L 31.203125 31.390625 
L 31.203125 23.390625 
L 4.890625 23.390625 
z
" id="DejaVuSans-45"/>
     <path d="M 2.984375 54.6875 
L 12.5 54.6875 
L 29.59375 8.796875 
L 46.6875 54.6875 
L 56.203125 54.6875 
L 35.6875 0 
L 23.484375 0 
z
" id="DejaVuSans-118"/>
     <path d="M 11.71875 12.40625 
L 22.015625 12.40625 
L 22.015625 0 
L 11.71875 0 
z
M 11.71875 51.703125 
L 22.015625 51.703125 
L 22.015625 39.3125 
L 11.71875 39.3125 
z
" id="DejaVuSans-58"/>
    </defs>
    <g transform="translate(140.18625 37.274)scale(0.16 -0.16)">
     <use xlink:href="#DejaVuSans-32"/>
     <use x="31.787109" xlink:href="#DejaVuSans-80"/>
     <use x="92.074219" xlink:href="#DejaVuSans-114"/>
     <use x="133.15625" xlink:href="#DejaVuSans-101"/>
     <use x="194.679688" xlink:href="#DejaVuSans-99"/>
     <use x="249.660156" xlink:href="#DejaVuSans-105"/>
     <use x="277.443359" xlink:href="#DejaVuSans-115"/>
     <use x="329.542969" xlink:href="#DejaVuSans-105"/>
     <use x="357.326172" xlink:href="#DejaVuSans-111"/>
     <use x="418.507812" xlink:href="#DejaVuSans-110"/>
     <use x="481.886719" xlink:href="#DejaVuSans-45"/>
     <use x="517.970703" xlink:href="#DejaVuSans-82"/>
     <use x="587.390625" xlink:href="#DejaVuSans-101"/>
     <use x="648.914062" xlink:href="#DejaVuSans-99"/>
     <use x="703.894531" xlink:href="#DejaVuSans-97"/>
     <use x="765.173828" xlink:href="#DejaVuSans-108"/>
     <use x="792.957031" xlink:href="#DejaVuSans-108"/>
     <use x="820.740234" xlink:href="#DejaVuSans-32"/>
     <use x="852.527344" xlink:href="#DejaVuSans-99"/>
     <use x="907.507812" xlink:href="#DejaVuSans-117"/>
     <use x="970.886719" xlink:href="#DejaVuSans-114"/>
     <use x="1012" xlink:href="#DejaVuSans-118"/>
     <use x="1071.179688" xlink:href="#DejaVuSans-101"/>
     <use x="1132.703125" xlink:href="#DejaVuSans-58"/>
     <use x="1166.394531" xlink:href="#DejaVuSans-32"/>
     <use x="1198.181641" xlink:href="#DejaVuSans-65"/>
     <use x="1266.589844" xlink:href="#DejaVuSans-80"/>
     <use x="1326.892578" xlink:href="#DejaVuSans-61"/>
     <use x="1410.681641" xlink:href="#DejaVuSans-48"/>
     <use x="1474.304688" xlink:href="#DejaVuSans-46"/>
     <use x="1506.091797" xlink:href="#DejaVuSans-53"/>
     <use x="1569.714844" xlink:href="#DejaVuSans-48"/>
    </g>
   </g>
   <g id="legend_1">
    <g id="patch_7">
     <path d="M 358.979062 109.9865 
L 487.0525 109.9865 
Q 489.0525 109.9865 489.0525 107.9865 
L 489.0525 50.274 
Q 489.0525 48.274 487.0525 48.274 
L 358.979062 48.274 
Q 356.979062 48.274 356.979062 50.274 
L 356.979062 107.9865 
Q 356.979062 109.9865 358.979062 109.9865 
z
" style="fill:#ffffff;opacity:0.8;stroke:#cccccc;stroke-linejoin:miter;"/>
    </g>
    <g id="line2d_18">
     <path d="M 360.979062 56.372437 
L 380.979062 56.372437 
" style="fill:none;stroke:#ff0000;stroke-dasharray:5.55,2.4;stroke-dashoffset:0;stroke-width:1.5;"/>
    </g>
    <g id="line2d_19"/>
    <g id="text_17">
     <!-- No Skill: 0.120 -->
     <g transform="translate(388.979062 59.872437)scale(0.1 -0.1)">
      <use xlink:href="#DejaVuSans-78"/>
      <use x="74.804688" xlink:href="#DejaVuSans-111"/>
      <use x="135.986328" xlink:href="#DejaVuSans-32"/>
      <use x="167.773438" xlink:href="#DejaVuSans-83"/>
      <use x="231.25" xlink:href="#DejaVuSans-107"/>
      <use x="289.160156" xlink:href="#DejaVuSans-105"/>
      <use x="316.943359" xlink:href="#DejaVuSans-108"/>
      <use x="344.726562" xlink:href="#DejaVuSans-108"/>
      <use x="372.509766" xlink:href="#DejaVuSans-58"/>
      <use x="406.201172" xlink:href="#DejaVuSans-32"/>
      <use x="437.988281" xlink:href="#DejaVuSans-48"/>
      <use x="501.611328" xlink:href="#DejaVuSans-46"/>
      <use x="533.398438" xlink:href="#DejaVuSans-49"/>
      <use x="597.021484" xlink:href="#DejaVuSans-50"/>
      <use x="660.644531" xlink:href="#DejaVuSans-48"/>
     </g>
    </g>
    <g id="line2d_20">
     <path d="M 360.979062 71.050563 
L 380.979062 71.050563 
" style="fill:none;stroke:#000000;stroke-dasharray:1.5,2.475;stroke-dashoffset:0;stroke-opacity:0.4;stroke-width:1.5;"/>
    </g>
    <g id="line2d_21"/>
    <g id="text_18">
     <!-- Prec/Rec @ Max F1 -->
     <defs>
      <path d="M 25.390625 72.90625 
L 33.6875 72.90625 
L 8.296875 -9.28125 
L 0 -9.28125 
z
" id="DejaVuSans-47"/>
      <path d="M 37.203125 26.21875 
Q 37.203125 19.234375 40.671875 15.25 
Q 44.140625 11.28125 50.203125 11.28125 
Q 56.203125 11.28125 59.640625 15.28125 
Q 63.09375 19.28125 63.09375 26.21875 
Q 63.09375 33.0625 59.578125 37.078125 
Q 56.0625 41.109375 50.09375 41.109375 
Q 44.1875 41.109375 40.6875 37.109375 
Q 37.203125 33.109375 37.203125 26.21875 
z
M 63.8125 11.625 
Q 60.890625 7.859375 57.109375 6.078125 
Q 53.328125 4.296875 48.296875 4.296875 
Q 39.890625 4.296875 34.640625 10.375 
Q 29.390625 16.453125 29.390625 26.21875 
Q 29.390625 35.984375 34.65625 42.078125 
Q 39.9375 48.1875 48.296875 48.1875 
Q 53.328125 48.1875 57.125 46.359375 
Q 60.9375 44.53125 63.8125 40.828125 
L 63.8125 47.21875 
L 70.796875 47.21875 
L 70.796875 11.28125 
Q 77.9375 12.359375 81.953125 17.796875 
Q 85.984375 23.25 85.984375 31.890625 
Q 85.984375 37.109375 84.4375 41.703125 
Q 82.90625 46.296875 79.78125 50.203125 
Q 74.703125 56.59375 67.40625 59.984375 
Q 60.109375 63.375 51.515625 63.375 
Q 45.515625 63.375 39.984375 61.78125 
Q 34.46875 60.203125 29.78125 57.078125 
Q 22.125 52.09375 17.796875 44.015625 
Q 13.484375 35.9375 13.484375 26.515625 
Q 13.484375 18.75 16.28125 11.953125 
Q 19.09375 5.171875 24.421875 0 
Q 29.546875 -5.078125 36.28125 -7.734375 
Q 43.015625 -10.40625 50.6875 -10.40625 
Q 56.984375 -10.40625 63.0625 -8.28125 
Q 69.140625 -6.15625 74.21875 -2.203125 
L 78.609375 -7.625 
Q 72.515625 -12.359375 65.3125 -14.875 
Q 58.109375 -17.390625 50.6875 -17.390625 
Q 41.65625 -17.390625 33.640625 -14.1875 
Q 25.640625 -10.984375 19.390625 -4.890625 
Q 13.140625 1.21875 9.859375 9.25 
Q 6.59375 17.28125 6.59375 26.515625 
Q 6.59375 35.40625 9.90625 43.453125 
Q 13.234375 51.515625 19.390625 57.625 
Q 25.6875 63.8125 33.9375 67.109375 
Q 42.1875 70.40625 51.421875 70.40625 
Q 61.765625 70.40625 70.625 66.15625 
Q 79.5 61.921875 85.5 54.109375 
Q 89.15625 49.3125 91.078125 43.703125 
Q 93.015625 38.09375 93.015625 32.078125 
Q 93.015625 19.234375 85.25 11.8125 
Q 77.484375 4.390625 63.8125 4.109375 
z
" id="DejaVuSans-64"/>
     </defs>
     <g transform="translate(388.979062 74.550563)scale(0.1 -0.1)">
      <use xlink:href="#DejaVuSans-80"/>
      <use x="60.287109" xlink:href="#DejaVuSans-114"/>
      <use x="101.369141" xlink:href="#DejaVuSans-101"/>
      <use x="162.892578" xlink:href="#DejaVuSans-99"/>
      <use x="217.873047" xlink:href="#DejaVuSans-47"/>
      <use x="251.564453" xlink:href="#DejaVuSans-82"/>
      <use x="320.984375" xlink:href="#DejaVuSans-101"/>
      <use x="382.507812" xlink:href="#DejaVuSans-99"/>
      <use x="437.488281" xlink:href="#DejaVuSans-32"/>
      <use x="469.275391" xlink:href="#DejaVuSans-64"/>
      <use x="569.275391" xlink:href="#DejaVuSans-32"/>
      <use x="601.0625" xlink:href="#DejaVuSans-77"/>
      <use x="687.341797" xlink:href="#DejaVuSans-97"/>
      <use x="748.621094" xlink:href="#DejaVuSans-120"/>
      <use x="807.800781" xlink:href="#DejaVuSans-32"/>
      <use x="839.587891" xlink:href="#DejaVuSans-70"/>
      <use x="897.107422" xlink:href="#DejaVuSans-49"/>
     </g>
    </g>
    <g id="line2d_22">
     <path d="M 360.979062 85.728687 
L 380.979062 85.728687 
" style="fill:none;stroke:#000000;stroke-linecap:square;stroke-width:1.5;"/>
    </g>
    <g id="line2d_23"/>
    <g id="text_19">
     <!-- F1 -->
     <g transform="translate(388.979062 89.228687)scale(0.1 -0.1)">
      <use xlink:href="#DejaVuSans-70"/>
      <use x="57.519531" xlink:href="#DejaVuSans-49"/>
     </g>
    </g>
    <g id="patch_8">
     <path d="M 360.979062 103.906813 
L 380.979062 103.906813 
L 380.979062 96.906813 
L 360.979062 96.906813 
z
" style="fill:#dc143c;opacity:0.3;stroke:#dc143c;stroke-linejoin:miter;"/>
    </g>
    <g id="text_20">
     <!-- DNN -->
     <defs>
      <path d="M 19.671875 64.796875 
L 19.671875 8.109375 
L 31.59375 8.109375 
Q 46.6875 8.109375 53.6875 14.9375 
Q 60.6875 21.78125 60.6875 36.53125 
Q 60.6875 51.171875 53.6875 57.984375 
Q 46.6875 64.796875 31.59375 64.796875 
z
M 9.8125 72.90625 
L 30.078125 72.90625 
Q 51.265625 72.90625 61.171875 64.09375 
Q 71.09375 55.28125 71.09375 36.53125 
Q 71.09375 17.671875 61.125 8.828125 
Q 51.171875 0 30.078125 0 
L 9.8125 0 
z
" id="DejaVuSans-68"/>
     </defs>
     <g transform="translate(388.979062 103.906813)scale(0.1 -0.1)">
      <use xlink:href="#DejaVuSans-68"/>
      <use x="77.001953" xlink:href="#DejaVuSans-78"/>
      <use x="151.806641" xlink:href="#DejaVuSans-78"/>
     </g>
    </g>
   </g>
  </g>
 </g>
 <defs>
  <clipPath id="pcc46d4cc31">
   <rect height="326.16" width="446.4" x="47.6525" y="43.274"/>
  </clipPath>
 </defs>
</svg>
