<?xml version="1.0" encoding="utf-8" standalone="no"?>
<!DOCTYPE svg PUBLIC "-//W3C//DTD SVG 1.1//EN"
  "http://www.w3.org/Graphics/SVG/1.1/DTD/svg11.dtd">
<!-- Created with matplotlib (https://matplotlib.org/) -->
<svg height="302.1415pt" version="1.1" viewBox="0 0 425.937089 302.1415" width="425.937089pt" xmlns="http://www.w3.org/2000/svg" xmlns:xlink="http://www.w3.org/1999/xlink">
 <defs>
  <style type="text/css">
*{stroke-linecap:butt;stroke-linejoin:round;}
  </style>
 </defs>
 <g id="figure_1">
  <g id="patch_1">
   <path d="M 0 302.1415 
L 425.937089 302.1415 
L 425.937089 0 
L 0 0 
z
" style="fill:none;"/>
  </g>
  <g id="axes_1">
   <g id="patch_2">
    <path d="M 47.6525 260.714 
L 382.4525 260.714 
L 382.4525 43.274 
L 47.6525 43.274 
z
" style="fill:none;"/>
   </g>
   <g id="PolyCollection_1">
    <defs>
     <path d="M 382.4525 -41.4275 
L 382.4525 -72.551265 
L 377.866199 -72.551265 
L 377.866199 -74.879808 
L 377.866199 -74.879808 
L 377.866199 -74.95144 
L 377.866199 -74.95144 
L 377.866199 -77.252855 
L 377.866199 -77.252855 
L 377.866199 -77.335023 
L 377.866199 -77.335023 
L 377.866199 -77.500495 
L 377.866199 -77.500495 
L 377.866199 -77.583805 
L 377.866199 -77.583805 
L 377.866199 -79.799265 
L 377.866199 -79.799265 
L 377.866199 -79.988288 
L 377.866199 -79.988288 
L 377.866199 -80.0835 
L 377.866199 -80.0835 
L 377.866199 -80.179183 
L 377.866199 -80.179183 
L 377.866199 -80.275341 
L 377.866199 -80.275341 
L 377.866199 -82.844643 
L 377.866199 -82.844643 
L 377.866199 -82.954503 
L 377.866199 -82.954503 
L 377.866199 -83.064947 
L 377.866199 -83.064947 
L 377.866199 -83.17598 
L 377.866199 -83.17598 
L 377.866199 -83.287607 
L 377.866199 -83.287607 
L 377.866199 -83.399832 
L 368.693596 -83.399832 
L 368.693596 -86.063277 
L 368.693596 -86.063277 
L 368.693596 -86.194559 
L 368.693596 -86.194559 
L 368.693596 -86.459453 
L 368.693596 -86.459453 
L 368.693596 -86.593079 
L 368.693596 -86.593079 
L 368.693596 -86.7275 
L 368.693596 -86.7275 
L 368.693596 -88.697065 
L 368.693596 -88.697065 
L 368.693596 -88.844322 
L 368.693596 -88.844322 
L 368.693596 -88.9925 
L 368.693596 -88.9925 
L 368.693596 -91.495921 
L 368.693596 -91.495921 
L 368.693596 -91.661163 
L 368.693596 -91.661163 
L 368.693596 -91.8275 
L 368.693596 -91.8275 
L 368.693596 -91.994942 
L 368.693596 -91.994942 
L 368.693596 -93.732655 
L 368.693596 -93.732655 
L 368.693596 -93.913017 
L 368.693596 -93.913017 
L 368.693596 -95.7875 
L 368.693596 -95.7875 
L 368.693596 -95.982339 
L 368.693596 -95.982339 
L 368.693596 -96.178579 
L 368.693596 -96.178579 
L 368.693596 -96.376236 
L 368.693596 -96.376236 
L 368.693596 -96.575326 
L 364.107295 -96.575326 
L 364.107295 -97.831109 
L 364.107295 -97.831109 
L 364.107295 -98.258409 
L 364.107295 -98.258409 
L 364.107295 -100.264206 
L 364.107295 -100.264206 
L 364.107295 -100.495846 
L 364.107295 -100.495846 
L 364.107295 -102.416768 
L 364.107295 -102.416768 
L 364.107295 -102.665704 
L 364.107295 -102.665704 
L 364.107295 -102.91668 
L 359.520993 -102.91668 
L 359.520993 -104.079703 
L 359.520993 -104.079703 
L 359.520993 -104.346309 
L 359.520993 -104.346309 
L 359.520993 -104.615192 
L 359.520993 -104.615192 
L 359.520993 -104.886384 
L 359.520993 -104.886384 
L 359.520993 -107.1427 
L 359.520993 -107.1427 
L 359.520993 -107.436071 
L 359.520993 -107.436071 
L 359.520993 -108.030743 
L 359.520993 -108.030743 
L 359.520993 -108.332115 
L 359.520993 -108.332115 
L 359.520993 -111.836643 
L 359.520993 -111.836643 
L 359.520993 -112.173529 
L 359.520993 -112.173529 
L 359.520993 -112.513654 
L 354.934692 -112.513654 
L 354.934692 -114.2699 
L 354.934692 -114.2699 
L 354.934692 -114.635942 
L 350.34839 -114.635942 
L 350.34839 -116.1725 
L 350.34839 -116.1725 
L 350.34839 -116.563835 
L 350.34839 -116.563835 
L 350.34839 -119.848484 
L 350.34839 -119.848484 
L 350.34839 -120.279368 
L 350.34839 -120.279368 
L 350.34839 -120.715014 
L 350.34839 -120.715014 
L 350.34839 -123.433443 
L 345.762089 -123.433443 
L 345.762089 -123.12461 
L 345.762089 -123.12461 
L 345.762089 -126.059835 
L 345.762089 -126.059835 
L 345.762089 -126.569669 
L 345.762089 -126.569669 
L 345.762089 -127.085682 
L 345.762089 -127.085682 
L 345.762089 -129.7625 
L 345.762089 -129.7625 
L 345.762089 -130.318066 
L 345.762089 -130.318066 
L 345.762089 -130.880665 
L 345.762089 -130.880665 
L 345.762089 -132.612016 
L 345.762089 -132.612016 
L 345.762089 -133.204123 
L 345.762089 -133.204123 
L 345.762089 -133.803971 
L 341.175788 -133.803971 
L 341.175788 -133.5875 
L 336.589486 -133.5875 
L 336.589486 -132.7523 
L 332.003185 -132.7523 
L 332.003185 -133.765034 
L 332.003185 -133.765034 
L 332.003185 -134.401845 
L 332.003185 -134.401845 
L 332.003185 -135.0475 
L 322.830582 -135.0475 
L 322.830582 -134.616071 
L 322.830582 -134.616071 
L 322.830582 -135.286493 
L 309.071678 -135.286493 
L 309.071678 -136.766577 
L 309.071678 -136.766577 
L 309.071678 -137.50564 
L 309.071678 -137.50564 
L 309.071678 -138.25625 
L 290.726473 -138.25625 
L 290.726473 -136.669814 
L 290.726473 -136.669814 
L 290.726473 -137.4635 
L 286.140171 -137.4635 
L 286.140171 -136.443298 
L 281.55387 -136.443298 
L 281.55387 -136.209038 
L 281.55387 -136.209038 
L 281.55387 -137.026121 
L 281.55387 -137.026121 
L 281.55387 -137.857413 
L 272.381267 -137.857413 
L 272.381267 -140.080833 
L 272.381267 -140.080833 
L 272.381267 -141.002827 
L 272.381267 -141.002827 
L 272.381267 -141.942217 
L 272.381267 -141.942217 
L 272.381267 -142.8995 
L 263.208664 -142.8995 
L 263.208664 -143.6243 
L 258.622363 -143.6243 
L 258.622363 -142.460227 
L 254.036062 -142.460227 
L 254.036062 -142.301727 
L 249.44976 -142.301727 
L 249.44976 -141.0875 
L 249.44976 -141.0875 
L 249.44976 -144.302339 
L 249.44976 -144.302339 
L 249.44976 -145.420543 
L 244.863459 -145.420543 
L 244.863459 -146.482781 
L 240.277158 -146.482781 
L 240.277158 -145.205682 
L 235.690856 -145.205682 
L 235.690856 -151.489722 
L 235.690856 -151.489722 
L 235.690856 -152.8655 
L 231.104555 -152.8655 
L 231.104555 -151.523703 
L 221.931952 -151.523703 
L 221.931952 -151.5971 
L 221.931952 -151.5971 
L 221.931952 -153.085878 
L 221.931952 -153.085878 
L 221.931952 -154.615445 
L 221.931952 -154.615445 
L 221.931952 -156.1875 
L 217.345651 -156.1875 
L 217.345651 -158.025761 
L 212.759349 -158.025761 
L 212.759349 -158.260933 
L 212.759349 -158.260933 
L 212.759349 -160.031136 
L 212.759349 -160.031136 
L 212.759349 -161.855808 
L 212.759349 -161.855808 
L 212.759349 -163.7375 
L 208.173048 -163.7375 
L 208.173048 -162.2275 
L 208.173048 -162.2275 
L 208.173048 -164.175887 
L 208.173048 -164.175887 
L 208.173048 -170.417331 
L 203.586747 -170.417331 
L 203.586747 -168.892328 
L 203.586747 -168.892328 
L 203.586747 -171.128553 
L 199.000445 -171.128553 
L 199.000445 -171.8915 
L 199.000445 -171.8915 
L 199.000445 -174.3075 
L 199.000445 -174.3075 
L 199.000445 -176.81467 
L 199.000445 -176.81467 
L 199.000445 -179.418269 
L 199.000445 -179.418269 
L 199.000445 -184.9379 
L 194.414144 -184.9379 
L 194.414144 -183.429133 
L 194.414144 -183.429133 
L 194.414144 -186.3875 
L 194.414144 -186.3875 
L 194.414144 -189.471755 
L 194.414144 -189.471755 
L 194.414144 -196.0515 
L 194.414144 -196.0515 
L 194.414144 -199.565682 
L 189.827842 -199.565682 
L 189.827842 -201.918929 
L 185.241541 -201.918929 
L 185.241541 -200.529939 
L 180.65524 -200.529939 
L 180.65524 -199.0715 
L 180.65524 -199.0715 
L 180.65524 -203.113654 
L 180.65524 -203.113654 
L 180.65524 -207.368553 
L 176.068938 -207.368553 
L 176.068938 -205.976689 
L 171.482637 -205.976689 
L 171.482637 -209.166929 
L 166.896336 -209.166929 
L 166.896336 -207.705147 
L 157.723733 -207.705147 
L 157.723733 -209.768145 
L 157.723733 -209.768145 
L 157.723733 -215.3795 
L 153.137432 -215.3795 
L 153.137432 -220.038929 
L 148.55113 -220.038929 
L 148.55113 -218.600833 
L 148.55113 -218.600833 
L 148.55113 -225.415192 
L 143.964829 -225.415192 
L 143.964829 -224.0771 
L 139.378527 -224.0771 
L 139.378527 -222.6275 
L 134.792226 -222.6275 
L 134.792226 -221.051848 
L 134.792226 -221.051848 
L 134.792226 -229.216591 
L 130.205925 -229.216591 
L 130.205925 -227.804643 
L 130.205925 -227.804643 
L 130.205925 -237.1235 
L 125.619623 -237.1235 
L 125.619623 -235.979079 
L 116.447021 -235.979079 
L 116.447021 -233.286324 
L 111.860719 -233.286324 
L 111.860719 -231.6875 
L 107.274418 -231.6875 
L 107.274418 -229.8755 
L 102.688116 -229.8755 
L 102.688116 -227.804643 
L 98.101815 -227.804643 
L 98.101815 -225.415192 
L 88.929212 -225.415192 
L 88.929212 -219.332955 
L 84.342911 -219.332955 
L 84.342911 -215.3795 
L 75.170308 -215.3795 
L 75.170308 -204.5075 
L 70.584007 -204.5075 
L 70.584007 -196.741786 
L 70.584007 -196.741786 
L 70.584007 -222.6275 
L 65.997705 -222.6275 
L 65.997705 -215.3795 
L 61.411404 -215.3795 
L 61.411404 -204.5075 
L 56.825103 -204.5075 
L 56.825103 -186.3875 
L 52.238801 -186.3875 
L 52.238801 -150.1475 
L 52.238801 -150.1475 
L 52.238801 -258.8675 
L 47.6525 -258.8675 
L 47.6525 -258.8675 
L 47.6525 -41.4275 
L 47.6525 -41.4275 
L 47.6525 -41.4275 
L 52.238801 -41.4275 
L 52.238801 -41.4275 
L 52.238801 -41.4275 
L 52.238801 -41.4275 
L 56.825103 -41.4275 
L 56.825103 -41.4275 
L 61.411404 -41.4275 
L 61.411404 -41.4275 
L 65.997705 -41.4275 
L 65.997705 -41.4275 
L 70.584007 -41.4275 
L 70.584007 -41.4275 
L 70.584007 -41.4275 
L 70.584007 -41.4275 
L 75.170308 -41.4275 
L 75.170308 -41.4275 
L 84.342911 -41.4275 
L 84.342911 -41.4275 
L 88.929212 -41.4275 
L 88.929212 -41.4275 
L 98.101815 -41.4275 
L 98.101815 -41.4275 
L 102.688116 -41.4275 
L 102.688116 -41.4275 
L 107.274418 -41.4275 
L 107.274418 -41.4275 
L 111.860719 -41.4275 
L 111.860719 -41.4275 
L 116.447021 -41.4275 
L 116.447021 -41.4275 
L 125.619623 -41.4275 
L 125.619623 -41.4275 
L 130.205925 -41.4275 
L 130.205925 -41.4275 
L 130.205925 -41.4275 
L 130.205925 -41.4275 
L 134.792226 -41.4275 
L 134.792226 -41.4275 
L 134.792226 -41.4275 
L 134.792226 -41.4275 
L 139.378527 -41.4275 
L 139.378527 -41.4275 
L 143.964829 -41.4275 
L 143.964829 -41.4275 
L 148.55113 -41.4275 
L 148.55113 -41.4275 
L 148.55113 -41.4275 
L 148.55113 -41.4275 
L 153.137432 -41.4275 
L 153.137432 -41.4275 
L 157.723733 -41.4275 
L 157.723733 -41.4275 
L 157.723733 -41.4275 
L 157.723733 -41.4275 
L 166.896336 -41.4275 
L 166.896336 -41.4275 
L 171.482637 -41.4275 
L 171.482637 -41.4275 
L 176.068938 -41.4275 
L 176.068938 -41.4275 
L 180.65524 -41.4275 
L 180.65524 -41.4275 
L 180.65524 -41.4275 
L 180.65524 -41.4275 
L 180.65524 -41.4275 
L 180.65524 -41.4275 
L 185.241541 -41.4275 
L 185.241541 -41.4275 
L 189.827842 -41.4275 
L 189.827842 -41.4275 
L 194.414144 -41.4275 
L 194.414144 -41.4275 
L 194.414144 -41.4275 
L 194.414144 -41.4275 
L 194.414144 -41.4275 
L 194.414144 -41.4275 
L 194.414144 -41.4275 
L 194.414144 -41.4275 
L 194.414144 -41.4275 
L 194.414144 -41.4275 
L 199.000445 -41.4275 
L 199.000445 -41.4275 
L 199.000445 -41.4275 
L 199.000445 -41.4275 
L 199.000445 -41.4275 
L 199.000445 -41.4275 
L 199.000445 -41.4275 
L 199.000445 -41.4275 
L 199.000445 -41.4275 
L 199.000445 -41.4275 
L 203.586747 -41.4275 
L 203.586747 -41.4275 
L 203.586747 -41.4275 
L 203.586747 -41.4275 
L 208.173048 -41.4275 
L 208.173048 -41.4275 
L 208.173048 -41.4275 
L 208.173048 -41.4275 
L 208.173048 -41.4275 
L 208.173048 -41.4275 
L 212.759349 -41.4275 
L 212.759349 -41.4275 
L 212.759349 -41.4275 
L 212.759349 -41.4275 
L 212.759349 -41.4275 
L 212.759349 -41.4275 
L 212.759349 -41.4275 
L 212.759349 -41.4275 
L 217.345651 -41.4275 
L 217.345651 -41.4275 
L 221.931952 -41.4275 
L 221.931952 -41.4275 
L 221.931952 -41.4275 
L 221.931952 -41.4275 
L 221.931952 -41.4275 
L 221.931952 -41.4275 
L 221.931952 -41.4275 
L 221.931952 -41.4275 
L 231.104555 -41.4275 
L 231.104555 -41.4275 
L 235.690856 -41.4275 
L 235.690856 -41.4275 
L 235.690856 -41.4275 
L 235.690856 -41.4275 
L 240.277158 -41.4275 
L 240.277158 -41.4275 
L 244.863459 -41.4275 
L 244.863459 -41.4275 
L 249.44976 -41.4275 
L 249.44976 -41.4275 
L 249.44976 -41.4275 
L 249.44976 -41.4275 
L 249.44976 -41.4275 
L 249.44976 -41.4275 
L 254.036062 -41.4275 
L 254.036062 -41.4275 
L 258.622363 -41.4275 
L 258.622363 -41.4275 
L 263.208664 -41.4275 
L 263.208664 -41.4275 
L 272.381267 -41.4275 
L 272.381267 -41.4275 
L 272.381267 -41.4275 
L 272.381267 -41.4275 
L 272.381267 -41.4275 
L 272.381267 -41.4275 
L 272.381267 -41.4275 
L 272.381267 -41.4275 
L 281.55387 -41.4275 
L 281.55387 -41.4275 
L 281.55387 -41.4275 
L 281.55387 -41.4275 
L 281.55387 -41.4275 
L 281.55387 -41.4275 
L 286.140171 -41.4275 
L 286.140171 -41.4275 
L 290.726473 -41.4275 
L 290.726473 -41.4275 
L 290.726473 -41.4275 
L 290.726473 -41.4275 
L 309.071678 -41.4275 
L 309.071678 -41.4275 
L 309.071678 -41.4275 
L 309.071678 -41.4275 
L 309.071678 -41.4275 
L 309.071678 -41.4275 
L 322.830582 -41.4275 
L 322.830582 -41.4275 
L 322.830582 -41.4275 
L 322.830582 -41.4275 
L 332.003185 -41.4275 
L 332.003185 -41.4275 
L 332.003185 -41.4275 
L 332.003185 -41.4275 
L 332.003185 -41.4275 
L 332.003185 -41.4275 
L 336.589486 -41.4275 
L 336.589486 -41.4275 
L 341.175788 -41.4275 
L 341.175788 -41.4275 
L 345.762089 -41.4275 
L 345.762089 -41.4275 
L 345.762089 -41.4275 
L 345.762089 -41.4275 
L 345.762089 -41.4275 
L 345.762089 -41.4275 
L 345.762089 -41.4275 
L 345.762089 -41.4275 
L 345.762089 -41.4275 
L 345.762089 -41.4275 
L 345.762089 -41.4275 
L 345.762089 -41.4275 
L 345.762089 -41.4275 
L 345.762089 -41.4275 
L 345.762089 -41.4275 
L 345.762089 -41.4275 
L 345.762089 -41.4275 
L 345.762089 -41.4275 
L 345.762089 -41.4275 
L 345.762089 -41.4275 
L 350.34839 -41.4275 
L 350.34839 -41.4275 
L 350.34839 -41.4275 
L 350.34839 -41.4275 
L 350.34839 -41.4275 
L 350.34839 -41.4275 
L 350.34839 -41.4275 
L 350.34839 -41.4275 
L 350.34839 -41.4275 
L 350.34839 -41.4275 
L 350.34839 -41.4275 
L 350.34839 -41.4275 
L 354.934692 -41.4275 
L 354.934692 -41.4275 
L 354.934692 -41.4275 
L 354.934692 -41.4275 
L 359.520993 -41.4275 
L 359.520993 -41.4275 
L 359.520993 -41.4275 
L 359.520993 -41.4275 
L 359.520993 -41.4275 
L 359.520993 -41.4275 
L 359.520993 -41.4275 
L 359.520993 -41.4275 
L 359.520993 -41.4275 
L 359.520993 -41.4275 
L 359.520993 -41.4275 
L 359.520993 -41.4275 
L 359.520993 -41.4275 
L 359.520993 -41.4275 
L 359.520993 -41.4275 
L 359.520993 -41.4275 
L 359.520993 -41.4275 
L 359.520993 -41.4275 
L 359.520993 -41.4275 
L 359.520993 -41.4275 
L 359.520993 -41.4275 
L 359.520993 -41.4275 
L 364.107295 -41.4275 
L 364.107295 -41.4275 
L 364.107295 -41.4275 
L 364.107295 -41.4275 
L 364.107295 -41.4275 
L 364.107295 -41.4275 
L 364.107295 -41.4275 
L 364.107295 -41.4275 
L 364.107295 -41.4275 
L 364.107295 -41.4275 
L 364.107295 -41.4275 
L 364.107295 -41.4275 
L 364.107295 -41.4275 
L 364.107295 -41.4275 
L 368.693596 -41.4275 
L 368.693596 -41.4275 
L 368.693596 -41.4275 
L 368.693596 -41.4275 
L 368.693596 -41.4275 
L 368.693596 -41.4275 
L 368.693596 -41.4275 
L 368.693596 -41.4275 
L 368.693596 -41.4275 
L 368.693596 -41.4275 
L 368.693596 -41.4275 
L 368.693596 -41.4275 
L 368.693596 -41.4275 
L 368.693596 -41.4275 
L 368.693596 -41.4275 
L 368.693596 -41.4275 
L 368.693596 -41.4275 
L 368.693596 -41.4275 
L 368.693596 -41.4275 
L 368.693596 -41.4275 
L 368.693596 -41.4275 
L 368.693596 -41.4275 
L 368.693596 -41.4275 
L 368.693596 -41.4275 
L 368.693596 -41.4275 
L 368.693596 -41.4275 
L 368.693596 -41.4275 
L 368.693596 -41.4275 
L 368.693596 -41.4275 
L 368.693596 -41.4275 
L 368.693596 -41.4275 
L 368.693596 -41.4275 
L 368.693596 -41.4275 
L 368.693596 -41.4275 
L 368.693596 -41.4275 
L 368.693596 -41.4275 
L 368.693596 -41.4275 
L 368.693596 -41.4275 
L 377.866199 -41.4275 
L 377.866199 -41.4275 
L 377.866199 -41.4275 
L 377.866199 -41.4275 
L 377.866199 -41.4275 
L 377.866199 -41.4275 
L 377.866199 -41.4275 
L 377.866199 -41.4275 
L 377.866199 -41.4275 
L 377.866199 -41.4275 
L 377.866199 -41.4275 
L 377.866199 -41.4275 
L 377.866199 -41.4275 
L 377.866199 -41.4275 
L 377.866199 -41.4275 
L 377.866199 -41.4275 
L 377.866199 -41.4275 
L 377.866199 -41.4275 
L 377.866199 -41.4275 
L 377.866199 -41.4275 
L 377.866199 -41.4275 
L 377.866199 -41.4275 
L 377.866199 -41.4275 
L 377.866199 -41.4275 
L 377.866199 -41.4275 
L 377.866199 -41.4275 
L 377.866199 -41.4275 
L 377.866199 -41.4275 
L 377.866199 -41.4275 
L 377.866199 -41.4275 
L 377.866199 -41.4275 
L 377.866199 -41.4275 
L 377.866199 -41.4275 
L 377.866199 -41.4275 
L 382.4525 -41.4275 
z
" id="m38dbdad8b3" style="stroke:#0000ff;stroke-opacity:0.2;"/>
    </defs>
    <g clip-path="url(#p15b41a01ac)">
     <use style="fill:#0000ff;fill-opacity:0.2;stroke:#0000ff;stroke-opacity:0.2;" x="0" xlink:href="#m38dbdad8b3" y="302.1415"/>
    </g>
   </g>
   <g id="matplotlib.axis_1">
    <g id="xtick_1">
     <g id="line2d_1">
      <defs>
       <path d="M 0 0 
L 0 3.5 
" id="m94d714173c" style="stroke:#000000;stroke-width:0.8;"/>
      </defs>
      <g>
       <use style="stroke:#000000;stroke-width:0.8;" x="47.6525" xlink:href="#m94d714173c" y="260.714"/>
      </g>
     </g>
     <g id="text_1">
      <!-- 0.0 -->
      <defs>
       <path d="M 31.78125 66.40625 
Q 24.171875 66.40625 20.328125 58.90625 
Q 16.5 51.421875 16.5 36.375 
Q 16.5 21.390625 20.328125 13.890625 
Q 24.171875 6.390625 31.78125 6.390625 
Q 39.453125 6.390625 43.28125 13.890625 
Q 47.125 21.390625 47.125 36.375 
Q 47.125 51.421875 43.28125 58.90625 
Q 39.453125 66.40625 31.78125 66.40625 
z
M 31.78125 74.21875 
Q 44.046875 74.21875 50.515625 64.515625 
Q 56.984375 54.828125 56.984375 36.375 
Q 56.984375 17.96875 50.515625 8.265625 
Q 44.046875 -1.421875 31.78125 -1.421875 
Q 19.53125 -1.421875 13.0625 8.265625 
Q 6.59375 17.96875 6.59375 36.375 
Q 6.59375 54.828125 13.0625 64.515625 
Q 19.53125 74.21875 31.78125 74.21875 
z
" id="DejaVuSans-48"/>
       <path d="M 10.6875 12.40625 
L 21 12.40625 
L 21 0 
L 10.6875 0 
z
" id="DejaVuSans-46"/>
      </defs>
      <g transform="translate(39.700938 275.312437)scale(0.1 -0.1)">
       <use xlink:href="#DejaVuSans-48"/>
       <use x="63.623047" xlink:href="#DejaVuSans-46"/>
       <use x="95.410156" xlink:href="#DejaVuSans-48"/>
      </g>
     </g>
    </g>
    <g id="xtick_2">
     <g id="line2d_2">
      <g>
       <use style="stroke:#000000;stroke-width:0.8;" x="114.6125" xlink:href="#m94d714173c" y="260.714"/>
      </g>
     </g>
     <g id="text_2">
      <!-- 0.2 -->
      <defs>
       <path d="M 19.1875 8.296875 
L 53.609375 8.296875 
L 53.609375 0 
L 7.328125 0 
L 7.328125 8.296875 
Q 12.9375 14.109375 22.625 23.890625 
Q 32.328125 33.6875 34.8125 36.53125 
Q 39.546875 41.84375 41.421875 45.53125 
Q 43.3125 49.21875 43.3125 52.78125 
Q 43.3125 58.59375 39.234375 62.25 
Q 35.15625 65.921875 28.609375 65.921875 
Q 23.96875 65.921875 18.8125 64.3125 
Q 13.671875 62.703125 7.8125 59.421875 
L 7.8125 69.390625 
Q 13.765625 71.78125 18.9375 73 
Q 24.125 74.21875 28.421875 74.21875 
Q 39.75 74.21875 46.484375 68.546875 
Q 53.21875 62.890625 53.21875 53.421875 
Q 53.21875 48.921875 51.53125 44.890625 
Q 49.859375 40.875 45.40625 35.40625 
Q 44.1875 33.984375 37.640625 27.21875 
Q 31.109375 20.453125 19.1875 8.296875 
z
" id="DejaVuSans-50"/>
      </defs>
      <g transform="translate(106.660938 275.312437)scale(0.1 -0.1)">
       <use xlink:href="#DejaVuSans-48"/>
       <use x="63.623047" xlink:href="#DejaVuSans-46"/>
       <use x="95.410156" xlink:href="#DejaVuSans-50"/>
      </g>
     </g>
    </g>
    <g id="xtick_3">
     <g id="line2d_3">
      <g>
       <use style="stroke:#000000;stroke-width:0.8;" x="181.5725" xlink:href="#m94d714173c" y="260.714"/>
      </g>
     </g>
     <g id="text_3">
      <!-- 0.4 -->
      <defs>
       <path d="M 37.796875 64.3125 
L 12.890625 25.390625 
L 37.796875 25.390625 
z
M 35.203125 72.90625 
L 47.609375 72.90625 
L 47.609375 25.390625 
L 58.015625 25.390625 
L 58.015625 17.1875 
L 47.609375 17.1875 
L 47.609375 0 
L 37.796875 0 
L 37.796875 17.1875 
L 4.890625 17.1875 
L 4.890625 26.703125 
z
" id="DejaVuSans-52"/>
      </defs>
      <g transform="translate(173.620938 275.312437)scale(0.1 -0.1)">
       <use xlink:href="#DejaVuSans-48"/>
       <use x="63.623047" xlink:href="#DejaVuSans-46"/>
       <use x="95.410156" xlink:href="#DejaVuSans-52"/>
      </g>
     </g>
    </g>
    <g id="xtick_4">
     <g id="line2d_4">
      <g>
       <use style="stroke:#000000;stroke-width:0.8;" x="248.5325" xlink:href="#m94d714173c" y="260.714"/>
      </g>
     </g>
     <g id="text_4">
      <!-- 0.6 -->
      <defs>
       <path d="M 33.015625 40.375 
Q 26.375 40.375 22.484375 35.828125 
Q 18.609375 31.296875 18.609375 23.390625 
Q 18.609375 15.53125 22.484375 10.953125 
Q 26.375 6.390625 33.015625 6.390625 
Q 39.65625 6.390625 43.53125 10.953125 
Q 47.40625 15.53125 47.40625 23.390625 
Q 47.40625 31.296875 43.53125 35.828125 
Q 39.65625 40.375 33.015625 40.375 
z
M 52.59375 71.296875 
L 52.59375 62.3125 
Q 48.875 64.0625 45.09375 64.984375 
Q 41.3125 65.921875 37.59375 65.921875 
Q 27.828125 65.921875 22.671875 59.328125 
Q 17.53125 52.734375 16.796875 39.40625 
Q 19.671875 43.65625 24.015625 45.921875 
Q 28.375 48.1875 33.59375 48.1875 
Q 44.578125 48.1875 50.953125 41.515625 
Q 57.328125 34.859375 57.328125 23.390625 
Q 57.328125 12.15625 50.6875 5.359375 
Q 44.046875 -1.421875 33.015625 -1.421875 
Q 20.359375 -1.421875 13.671875 8.265625 
Q 6.984375 17.96875 6.984375 36.375 
Q 6.984375 53.65625 15.1875 63.9375 
Q 23.390625 74.21875 37.203125 74.21875 
Q 40.921875 74.21875 44.703125 73.484375 
Q 48.484375 72.75 52.59375 71.296875 
z
" id="DejaVuSans-54"/>
      </defs>
      <g transform="translate(240.580938 275.312437)scale(0.1 -0.1)">
       <use xlink:href="#DejaVuSans-48"/>
       <use x="63.623047" xlink:href="#DejaVuSans-46"/>
       <use x="95.410156" xlink:href="#DejaVuSans-54"/>
      </g>
     </g>
    </g>
    <g id="xtick_5">
     <g id="line2d_5">
      <g>
       <use style="stroke:#000000;stroke-width:0.8;" x="315.4925" xlink:href="#m94d714173c" y="260.714"/>
      </g>
     </g>
     <g id="text_5">
      <!-- 0.8 -->
      <defs>
       <path d="M 31.78125 34.625 
Q 24.75 34.625 20.71875 30.859375 
Q 16.703125 27.09375 16.703125 20.515625 
Q 16.703125 13.921875 20.71875 10.15625 
Q 24.75 6.390625 31.78125 6.390625 
Q 38.8125 6.390625 42.859375 10.171875 
Q 46.921875 13.96875 46.921875 20.515625 
Q 46.921875 27.09375 42.890625 30.859375 
Q 38.875 34.625 31.78125 34.625 
z
M 21.921875 38.8125 
Q 15.578125 40.375 12.03125 44.71875 
Q 8.5 49.078125 8.5 55.328125 
Q 8.5 64.0625 14.71875 69.140625 
Q 20.953125 74.21875 31.78125 74.21875 
Q 42.671875 74.21875 48.875 69.140625 
Q 55.078125 64.0625 55.078125 55.328125 
Q 55.078125 49.078125 51.53125 44.71875 
Q 48 40.375 41.703125 38.8125 
Q 48.828125 37.15625 52.796875 32.3125 
Q 56.78125 27.484375 56.78125 20.515625 
Q 56.78125 9.90625 50.3125 4.234375 
Q 43.84375 -1.421875 31.78125 -1.421875 
Q 19.734375 -1.421875 13.25 4.234375 
Q 6.78125 9.90625 6.78125 20.515625 
Q 6.78125 27.484375 10.78125 32.3125 
Q 14.796875 37.15625 21.921875 38.8125 
z
M 18.3125 54.390625 
Q 18.3125 48.734375 21.84375 45.5625 
Q 25.390625 42.390625 31.78125 42.390625 
Q 38.140625 42.390625 41.71875 45.5625 
Q 45.3125 48.734375 45.3125 54.390625 
Q 45.3125 60.0625 41.71875 63.234375 
Q 38.140625 66.40625 31.78125 66.40625 
Q 25.390625 66.40625 21.84375 63.234375 
Q 18.3125 60.0625 18.3125 54.390625 
z
" id="DejaVuSans-56"/>
      </defs>
      <g transform="translate(307.540938 275.312437)scale(0.1 -0.1)">
       <use xlink:href="#DejaVuSans-48"/>
       <use x="63.623047" xlink:href="#DejaVuSans-46"/>
       <use x="95.410156" xlink:href="#DejaVuSans-56"/>
      </g>
     </g>
    </g>
    <g id="xtick_6">
     <g id="line2d_6">
      <g>
       <use style="stroke:#000000;stroke-width:0.8;" x="382.4525" xlink:href="#m94d714173c" y="260.714"/>
      </g>
     </g>
     <g id="text_6">
      <!-- 1.0 -->
      <defs>
       <path d="M 12.40625 8.296875 
L 28.515625 8.296875 
L 28.515625 63.921875 
L 10.984375 60.40625 
L 10.984375 69.390625 
L 28.421875 72.90625 
L 38.28125 72.90625 
L 38.28125 8.296875 
L 54.390625 8.296875 
L 54.390625 0 
L 12.40625 0 
z
" id="DejaVuSans-49"/>
      </defs>
      <g transform="translate(374.500938 275.312437)scale(0.1 -0.1)">
       <use xlink:href="#DejaVuSans-49"/>
       <use x="63.623047" xlink:href="#DejaVuSans-46"/>
       <use x="95.410156" xlink:href="#DejaVuSans-48"/>
      </g>
     </g>
    </g>
    <g id="text_7">
     <!-- Recall -->
     <defs>
      <path d="M 44.390625 34.1875 
Q 47.5625 33.109375 50.5625 29.59375 
Q 53.5625 26.078125 56.59375 19.921875 
L 66.609375 0 
L 56 0 
L 46.6875 18.703125 
Q 43.0625 26.03125 39.671875 28.421875 
Q 36.28125 30.8125 30.421875 30.8125 
L 19.671875 30.8125 
L 19.671875 0 
L 9.8125 0 
L 9.8125 72.90625 
L 32.078125 72.90625 
Q 44.578125 72.90625 50.734375 67.671875 
Q 56.890625 62.453125 56.890625 51.90625 
Q 56.890625 45.015625 53.6875 40.46875 
Q 50.484375 35.9375 44.390625 34.1875 
z
M 19.671875 64.796875 
L 19.671875 38.921875 
L 32.078125 38.921875 
Q 39.203125 38.921875 42.84375 42.21875 
Q 46.484375 45.515625 46.484375 51.90625 
Q 46.484375 58.296875 42.84375 61.546875 
Q 39.203125 64.796875 32.078125 64.796875 
z
" id="DejaVuSans-82"/>
      <path d="M 56.203125 29.59375 
L 56.203125 25.203125 
L 14.890625 25.203125 
Q 15.484375 15.921875 20.484375 11.0625 
Q 25.484375 6.203125 34.421875 6.203125 
Q 39.59375 6.203125 44.453125 7.46875 
Q 49.3125 8.734375 54.109375 11.28125 
L 54.109375 2.78125 
Q 49.265625 0.734375 44.1875 -0.34375 
Q 39.109375 -1.421875 33.890625 -1.421875 
Q 20.796875 -1.421875 13.15625 6.1875 
Q 5.515625 13.8125 5.515625 26.8125 
Q 5.515625 40.234375 12.765625 48.109375 
Q 20.015625 56 32.328125 56 
Q 43.359375 56 49.78125 48.890625 
Q 56.203125 41.796875 56.203125 29.59375 
z
M 47.21875 32.234375 
Q 47.125 39.59375 43.09375 43.984375 
Q 39.0625 48.390625 32.421875 48.390625 
Q 24.90625 48.390625 20.390625 44.140625 
Q 15.875 39.890625 15.1875 32.171875 
z
" id="DejaVuSans-101"/>
      <path d="M 48.78125 52.59375 
L 48.78125 44.1875 
Q 44.96875 46.296875 41.140625 47.34375 
Q 37.3125 48.390625 33.40625 48.390625 
Q 24.65625 48.390625 19.8125 42.84375 
Q 14.984375 37.3125 14.984375 27.296875 
Q 14.984375 17.28125 19.8125 11.734375 
Q 24.65625 6.203125 33.40625 6.203125 
Q 37.3125 6.203125 41.140625 7.25 
Q 44.96875 8.296875 48.78125 10.40625 
L 48.78125 2.09375 
Q 45.015625 0.34375 40.984375 -0.53125 
Q 36.96875 -1.421875 32.421875 -1.421875 
Q 20.0625 -1.421875 12.78125 6.34375 
Q 5.515625 14.109375 5.515625 27.296875 
Q 5.515625 40.671875 12.859375 48.328125 
Q 20.21875 56 33.015625 56 
Q 37.15625 56 41.109375 55.140625 
Q 45.0625 54.296875 48.78125 52.59375 
z
" id="DejaVuSans-99"/>
      <path d="M 34.28125 27.484375 
Q 23.390625 27.484375 19.1875 25 
Q 14.984375 22.515625 14.984375 16.5 
Q 14.984375 11.71875 18.140625 8.90625 
Q 21.296875 6.109375 26.703125 6.109375 
Q 34.1875 6.109375 38.703125 11.40625 
Q 43.21875 16.703125 43.21875 25.484375 
L 43.21875 27.484375 
z
M 52.203125 31.203125 
L 52.203125 0 
L 43.21875 0 
L 43.21875 8.296875 
Q 40.140625 3.328125 35.546875 0.953125 
Q 30.953125 -1.421875 24.3125 -1.421875 
Q 15.921875 -1.421875 10.953125 3.296875 
Q 6 8.015625 6 15.921875 
Q 6 25.140625 12.171875 29.828125 
Q 18.359375 34.515625 30.609375 34.515625 
L 43.21875 34.515625 
L 43.21875 35.40625 
Q 43.21875 41.609375 39.140625 45 
Q 35.0625 48.390625 27.6875 48.390625 
Q 23 48.390625 18.546875 47.265625 
Q 14.109375 46.140625 10.015625 43.890625 
L 10.015625 52.203125 
Q 14.9375 54.109375 19.578125 55.046875 
Q 24.21875 56 28.609375 56 
Q 40.484375 56 46.34375 49.84375 
Q 52.203125 43.703125 52.203125 31.203125 
z
" id="DejaVuSans-97"/>
      <path d="M 9.421875 75.984375 
L 18.40625 75.984375 
L 18.40625 0 
L 9.421875 0 
z
" id="DejaVuSans-108"/>
     </defs>
     <g transform="translate(193.857813 292.029937)scale(0.14 -0.14)">
      <use xlink:href="#DejaVuSans-82"/>
      <use x="69.419922" xlink:href="#DejaVuSans-101"/>
      <use x="130.943359" xlink:href="#DejaVuSans-99"/>
      <use x="185.923828" xlink:href="#DejaVuSans-97"/>
      <use x="247.203125" xlink:href="#DejaVuSans-108"/>
      <use x="274.986328" xlink:href="#DejaVuSans-108"/>
     </g>
    </g>
   </g>
   <g id="matplotlib.axis_2">
    <g id="ytick_1">
     <g id="line2d_7">
      <defs>
       <path d="M 0 0 
L -3.5 0 
" id="m5dc739f025" style="stroke:#000000;stroke-width:0.8;"/>
      </defs>
      <g>
       <use style="stroke:#000000;stroke-width:0.8;" x="47.6525" xlink:href="#m5dc739f025" y="260.714"/>
      </g>
     </g>
     <g id="text_8">
      <!-- 0.0 -->
      <g transform="translate(24.749375 264.513219)scale(0.1 -0.1)">
       <use xlink:href="#DejaVuSans-48"/>
       <use x="63.623047" xlink:href="#DejaVuSans-46"/>
       <use x="95.410156" xlink:href="#DejaVuSans-48"/>
      </g>
     </g>
    </g>
    <g id="ytick_2">
     <g id="line2d_8">
      <g>
       <use style="stroke:#000000;stroke-width:0.8;" x="47.6525" xlink:href="#m5dc739f025" y="217.226"/>
      </g>
     </g>
     <g id="text_9">
      <!-- 0.2 -->
      <g transform="translate(24.749375 221.025219)scale(0.1 -0.1)">
       <use xlink:href="#DejaVuSans-48"/>
       <use x="63.623047" xlink:href="#DejaVuSans-46"/>
       <use x="95.410156" xlink:href="#DejaVuSans-50"/>
      </g>
     </g>
    </g>
    <g id="ytick_3">
     <g id="line2d_9">
      <g>
       <use style="stroke:#000000;stroke-width:0.8;" x="47.6525" xlink:href="#m5dc739f025" y="173.738"/>
      </g>
     </g>
     <g id="text_10">
      <!-- 0.4 -->
      <g transform="translate(24.749375 177.537219)scale(0.1 -0.1)">
       <use xlink:href="#DejaVuSans-48"/>
       <use x="63.623047" xlink:href="#DejaVuSans-46"/>
       <use x="95.410156" xlink:href="#DejaVuSans-52"/>
      </g>
     </g>
    </g>
    <g id="ytick_4">
     <g id="line2d_10">
      <g>
       <use style="stroke:#000000;stroke-width:0.8;" x="47.6525" xlink:href="#m5dc739f025" y="130.25"/>
      </g>
     </g>
     <g id="text_11">
      <!-- 0.6 -->
      <g transform="translate(24.749375 134.049219)scale(0.1 -0.1)">
       <use xlink:href="#DejaVuSans-48"/>
       <use x="63.623047" xlink:href="#DejaVuSans-46"/>
       <use x="95.410156" xlink:href="#DejaVuSans-54"/>
      </g>
     </g>
    </g>
    <g id="ytick_5">
     <g id="line2d_11">
      <g>
       <use style="stroke:#000000;stroke-width:0.8;" x="47.6525" xlink:href="#m5dc739f025" y="86.762"/>
      </g>
     </g>
     <g id="text_12">
      <!-- 0.8 -->
      <g transform="translate(24.749375 90.561219)scale(0.1 -0.1)">
       <use xlink:href="#DejaVuSans-48"/>
       <use x="63.623047" xlink:href="#DejaVuSans-46"/>
       <use x="95.410156" xlink:href="#DejaVuSans-56"/>
      </g>
     </g>
    </g>
    <g id="ytick_6">
     <g id="line2d_12">
      <g>
       <use style="stroke:#000000;stroke-width:0.8;" x="47.6525" xlink:href="#m5dc739f025" y="43.274"/>
      </g>
     </g>
     <g id="text_13">
      <!-- 1.0 -->
      <g transform="translate(24.749375 47.073219)scale(0.1 -0.1)">
       <use xlink:href="#DejaVuSans-49"/>
       <use x="63.623047" xlink:href="#DejaVuSans-46"/>
       <use x="95.410156" xlink:href="#DejaVuSans-48"/>
      </g>
     </g>
    </g>
    <g id="text_14">
     <!-- Precision or F1 Score -->
     <defs>
      <path d="M 19.671875 64.796875 
L 19.671875 37.40625 
L 32.078125 37.40625 
Q 38.96875 37.40625 42.71875 40.96875 
Q 46.484375 44.53125 46.484375 51.125 
Q 46.484375 57.671875 42.71875 61.234375 
Q 38.96875 64.796875 32.078125 64.796875 
z
M 9.8125 72.90625 
L 32.078125 72.90625 
Q 44.34375 72.90625 50.609375 67.359375 
Q 56.890625 61.8125 56.890625 51.125 
Q 56.890625 40.328125 50.609375 34.8125 
Q 44.34375 29.296875 32.078125 29.296875 
L 19.671875 29.296875 
L 19.671875 0 
L 9.8125 0 
z
" id="DejaVuSans-80"/>
      <path d="M 41.109375 46.296875 
Q 39.59375 47.171875 37.8125 47.578125 
Q 36.03125 48 33.890625 48 
Q 26.265625 48 22.1875 43.046875 
Q 18.109375 38.09375 18.109375 28.8125 
L 18.109375 0 
L 9.078125 0 
L 9.078125 54.6875 
L 18.109375 54.6875 
L 18.109375 46.1875 
Q 20.953125 51.171875 25.484375 53.578125 
Q 30.03125 56 36.53125 56 
Q 37.453125 56 38.578125 55.875 
Q 39.703125 55.765625 41.0625 55.515625 
z
" id="DejaVuSans-114"/>
      <path d="M 9.421875 54.6875 
L 18.40625 54.6875 
L 18.40625 0 
L 9.421875 0 
z
M 9.421875 75.984375 
L 18.40625 75.984375 
L 18.40625 64.59375 
L 9.421875 64.59375 
z
" id="DejaVuSans-105"/>
      <path d="M 44.28125 53.078125 
L 44.28125 44.578125 
Q 40.484375 46.53125 36.375 47.5 
Q 32.28125 48.484375 27.875 48.484375 
Q 21.1875 48.484375 17.84375 46.4375 
Q 14.5 44.390625 14.5 40.28125 
Q 14.5 37.15625 16.890625 35.375 
Q 19.28125 33.59375 26.515625 31.984375 
L 29.59375 31.296875 
Q 39.15625 29.25 43.1875 25.515625 
Q 47.21875 21.78125 47.21875 15.09375 
Q 47.21875 7.46875 41.1875 3.015625 
Q 35.15625 -1.421875 24.609375 -1.421875 
Q 20.21875 -1.421875 15.453125 -0.5625 
Q 10.6875 0.296875 5.421875 2 
L 5.421875 11.28125 
Q 10.40625 8.6875 15.234375 7.390625 
Q 20.0625 6.109375 24.8125 6.109375 
Q 31.15625 6.109375 34.5625 8.28125 
Q 37.984375 10.453125 37.984375 14.40625 
Q 37.984375 18.0625 35.515625 20.015625 
Q 33.0625 21.96875 24.703125 23.78125 
L 21.578125 24.515625 
Q 13.234375 26.265625 9.515625 29.90625 
Q 5.8125 33.546875 5.8125 39.890625 
Q 5.8125 47.609375 11.28125 51.796875 
Q 16.75 56 26.8125 56 
Q 31.78125 56 36.171875 55.265625 
Q 40.578125 54.546875 44.28125 53.078125 
z
" id="DejaVuSans-115"/>
      <path d="M 30.609375 48.390625 
Q 23.390625 48.390625 19.1875 42.75 
Q 14.984375 37.109375 14.984375 27.296875 
Q 14.984375 17.484375 19.15625 11.84375 
Q 23.34375 6.203125 30.609375 6.203125 
Q 37.796875 6.203125 41.984375 11.859375 
Q 46.1875 17.53125 46.1875 27.296875 
Q 46.1875 37.015625 41.984375 42.703125 
Q 37.796875 48.390625 30.609375 48.390625 
z
M 30.609375 56 
Q 42.328125 56 49.015625 48.375 
Q 55.71875 40.765625 55.71875 27.296875 
Q 55.71875 13.875 49.015625 6.21875 
Q 42.328125 -1.421875 30.609375 -1.421875 
Q 18.84375 -1.421875 12.171875 6.21875 
Q 5.515625 13.875 5.515625 27.296875 
Q 5.515625 40.765625 12.171875 48.375 
Q 18.84375 56 30.609375 56 
z
" id="DejaVuSans-111"/>
      <path d="M 54.890625 33.015625 
L 54.890625 0 
L 45.90625 0 
L 45.90625 32.71875 
Q 45.90625 40.484375 42.875 44.328125 
Q 39.84375 48.1875 33.796875 48.1875 
Q 26.515625 48.1875 22.3125 43.546875 
Q 18.109375 38.921875 18.109375 30.90625 
L 18.109375 0 
L 9.078125 0 
L 9.078125 54.6875 
L 18.109375 54.6875 
L 18.109375 46.1875 
Q 21.34375 51.125 25.703125 53.5625 
Q 30.078125 56 35.796875 56 
Q 45.21875 56 50.046875 50.171875 
Q 54.890625 44.34375 54.890625 33.015625 
z
" id="DejaVuSans-110"/>
      <path id="DejaVuSans-32"/>
      <path d="M 9.8125 72.90625 
L 51.703125 72.90625 
L 51.703125 64.59375 
L 19.671875 64.59375 
L 19.671875 43.109375 
L 48.578125 43.109375 
L 48.578125 34.8125 
L 19.671875 34.8125 
L 19.671875 0 
L 9.8125 0 
z
" id="DejaVuSans-70"/>
      <path d="M 53.515625 70.515625 
L 53.515625 60.890625 
Q 47.90625 63.578125 42.921875 64.890625 
Q 37.9375 66.21875 33.296875 66.21875 
Q 25.25 66.21875 20.875 63.09375 
Q 16.5 59.96875 16.5 54.203125 
Q 16.5 49.359375 19.40625 46.890625 
Q 22.3125 44.4375 30.421875 42.921875 
L 36.375 41.703125 
Q 47.40625 39.59375 52.65625 34.296875 
Q 57.90625 29 57.90625 20.125 
Q 57.90625 9.515625 50.796875 4.046875 
Q 43.703125 -1.421875 29.984375 -1.421875 
Q 24.8125 -1.421875 18.96875 -0.25 
Q 13.140625 0.921875 6.890625 3.21875 
L 6.890625 13.375 
Q 12.890625 10.015625 18.65625 8.296875 
Q 24.421875 6.59375 29.984375 6.59375 
Q 38.421875 6.59375 43.015625 9.90625 
Q 47.609375 13.234375 47.609375 19.390625 
Q 47.609375 24.75 44.3125 27.78125 
Q 41.015625 30.8125 33.5 32.328125 
L 27.484375 33.5 
Q 16.453125 35.6875 11.515625 40.375 
Q 6.59375 45.0625 6.59375 53.421875 
Q 6.59375 63.09375 13.40625 68.65625 
Q 20.21875 74.21875 32.171875 74.21875 
Q 37.3125 74.21875 42.625 73.28125 
Q 47.953125 72.359375 53.515625 70.515625 
z
" id="DejaVuSans-83"/>
     </defs>
     <g transform="translate(17.837813 225.573844)rotate(-90)scale(0.14 -0.14)">
      <use xlink:href="#DejaVuSans-80"/>
      <use x="60.287109" xlink:href="#DejaVuSans-114"/>
      <use x="101.369141" xlink:href="#DejaVuSans-101"/>
      <use x="162.892578" xlink:href="#DejaVuSans-99"/>
      <use x="217.873047" xlink:href="#DejaVuSans-105"/>
      <use x="245.65625" xlink:href="#DejaVuSans-115"/>
      <use x="297.755859" xlink:href="#DejaVuSans-105"/>
      <use x="325.539062" xlink:href="#DejaVuSans-111"/>
      <use x="386.720703" xlink:href="#DejaVuSans-110"/>
      <use x="450.099609" xlink:href="#DejaVuSans-32"/>
      <use x="481.886719" xlink:href="#DejaVuSans-111"/>
      <use x="543.068359" xlink:href="#DejaVuSans-114"/>
      <use x="584.181641" xlink:href="#DejaVuSans-32"/>
      <use x="615.96875" xlink:href="#DejaVuSans-70"/>
      <use x="673.488281" xlink:href="#DejaVuSans-49"/>
      <use x="737.111328" xlink:href="#DejaVuSans-32"/>
      <use x="768.898438" xlink:href="#DejaVuSans-83"/>
      <use x="832.375" xlink:href="#DejaVuSans-99"/>
      <use x="887.355469" xlink:href="#DejaVuSans-111"/>
      <use x="948.537109" xlink:href="#DejaVuSans-114"/>
      <use x="989.619141" xlink:href="#DejaVuSans-101"/>
     </g>
    </g>
   </g>
   <g id="line2d_13">
    <path clip-path="url(#p15b41a01ac)" d="M 382.4525 229.590235 
L 377.866199 229.590235 
L 377.866199 218.741668 
L 368.693596 218.741668 
L 368.693596 205.566174 
L 364.107295 205.566174 
L 364.107295 199.22482 
L 359.520993 199.22482 
L 359.520993 189.627846 
L 354.934692 189.627846 
L 354.934692 187.505558 
L 350.34839 187.505558 
L 350.34839 178.708057 
L 345.762089 178.708057 
L 345.762089 179.01689 
L 345.762089 168.337529 
L 341.175788 168.337529 
L 341.175788 168.554 
L 336.589486 168.554 
L 336.589486 169.3892 
L 332.003185 169.3892 
L 332.003185 167.094 
L 322.830582 167.094 
L 322.830582 167.525429 
L 322.830582 166.855007 
L 309.071678 166.855007 
L 309.071678 163.88525 
L 290.726473 163.88525 
L 290.726473 165.471686 
L 290.726473 164.678 
L 286.140171 164.678 
L 286.140171 165.698202 
L 281.55387 165.698202 
L 281.55387 165.932462 
L 281.55387 164.284087 
L 272.381267 164.284087 
L 272.381267 159.242 
L 263.208664 159.242 
L 263.208664 158.5172 
L 258.622363 158.5172 
L 258.622363 159.681273 
L 254.036062 159.681273 
L 254.036062 159.839773 
L 249.44976 159.839773 
L 249.44976 161.054 
L 249.44976 156.720957 
L 244.863459 156.720957 
L 244.863459 155.658719 
L 240.277158 155.658719 
L 240.277158 156.935818 
L 235.690856 156.935818 
L 235.690856 149.276 
L 231.104555 149.276 
L 231.104555 150.617797 
L 221.931952 150.617797 
L 221.931952 150.5444 
L 221.931952 145.954 
L 217.345651 145.954 
L 217.345651 144.115739 
L 212.759349 144.115739 
L 212.759349 138.404 
L 208.173048 138.404 
L 208.173048 139.914 
L 208.173048 131.724169 
L 203.586747 131.724169 
L 203.586747 133.249172 
L 203.586747 131.012947 
L 199.000445 131.012947 
L 199.000445 117.2036 
L 194.414144 117.2036 
L 194.414144 118.712367 
L 194.414144 102.575818 
L 189.827842 102.575818 
L 189.827842 100.222571 
L 185.241541 100.222571 
L 185.241541 101.611561 
L 180.65524 101.611561 
L 180.65524 103.07 
L 180.65524 94.772947 
L 176.068938 94.772947 
L 176.068938 96.164811 
L 171.482637 96.164811 
L 171.482637 92.974571 
L 166.896336 92.974571 
L 166.896336 94.436353 
L 157.723733 94.436353 
L 157.723733 86.762 
L 153.137432 86.762 
L 153.137432 82.102571 
L 148.55113 82.102571 
L 148.55113 83.540667 
L 148.55113 76.726308 
L 143.964829 76.726308 
L 143.964829 78.0644 
L 139.378527 78.0644 
L 139.378527 79.514 
L 134.792226 79.514 
L 134.792226 81.089652 
L 134.792226 72.924909 
L 130.205925 72.924909 
L 130.205925 74.336857 
L 130.205925 65.018 
L 125.619623 65.018 
L 125.619623 66.162421 
L 116.447021 66.162421 
L 116.447021 68.855176 
L 111.860719 68.855176 
L 111.860719 70.454 
L 107.274418 70.454 
L 107.274418 72.266 
L 102.688116 72.266 
L 102.688116 74.336857 
L 98.101815 74.336857 
L 98.101815 76.726308 
L 88.929212 76.726308 
L 88.929212 82.808545 
L 84.342911 82.808545 
L 84.342911 86.762 
L 75.170308 86.762 
L 75.170308 97.634 
L 70.584007 97.634 
L 70.584007 105.399714 
L 70.584007 79.514 
L 65.997705 79.514 
L 65.997705 86.762 
L 61.411404 86.762 
L 61.411404 97.634 
L 56.825103 97.634 
L 56.825103 115.754 
L 52.238801 115.754 
L 52.238801 151.994 
L 52.238801 43.274 
L 47.6525 43.274 
L 47.6525 43.274 
" style="fill:none;stroke:#0000ff;stroke-linecap:square;stroke-opacity:0.2;stroke-width:1.5;"/>
   </g>
   <g id="line2d_14">
    <path clip-path="url(#p15b41a01ac)" d="M 47.6525 234.692492 
L 382.4525 234.692492 
" style="fill:none;stroke:#ff0000;stroke-dasharray:5.55,2.4;stroke-dashoffset:0;stroke-width:1.5;"/>
   </g>
   <g id="line2d_15">
    <path clip-path="url(#p15b41a01ac)" d="M 47.6525 168.337529 
L 382.4525 168.337529 
" style="fill:none;stroke:#000000;stroke-dasharray:1.5,2.475;stroke-dashoffset:0;stroke-opacity:0.4;stroke-width:1.5;"/>
   </g>
   <g id="line2d_16">
    <path clip-path="url(#p15b41a01ac)" d="M 345.762089 260.714 
L 345.762089 43.274 
" style="fill:none;stroke:#000000;stroke-dasharray:1.5,2.475;stroke-dashoffset:0;stroke-opacity:0.4;stroke-width:1.5;"/>
   </g>
   <g id="line2d_17">
    <path clip-path="url(#p15b41a01ac)" d="M 382.4525 206.260758 
L 377.866199 202.73 
L 377.866199 190.509157 
L 368.693596 187.183565 
L 368.693596 173.488785 
L 364.107295 172.198602 
L 364.107295 166.055577 
L 359.520993 165.012252 
L 359.520993 155.476135 
L 354.934692 153.985209 
L 354.934692 153.592824 
L 350.34839 152.404264 
L 350.34839 144.979806 
L 345.762089 145.806683 
L 345.762089 135.637894 
L 341.175788 136.462571 
L 336.589486 137.855525 
L 332.003185 137.597288 
L 332.003185 136.462571 
L 322.830582 138.212592 
L 322.830582 137.634755 
L 309.071678 138.604837 
L 309.071678 137.389821 
L 290.726473 141.906577 
L 290.726473 141.290995 
L 286.140171 142.934 
L 281.55387 143.983053 
L 281.55387 142.741234 
L 272.381267 142.984055 
L 272.381267 140.999843 
L 263.208664 142.56741 
L 258.622363 144.408884 
L 254.036062 145.598706 
L 249.44976 147.490805 
L 249.44976 144.746 
L 244.863459 145.282889 
L 240.277158 147.267043 
L 235.690856 144.93426 
L 235.690856 144.177529 
L 231.104555 146.271895 
L 221.931952 149.055622 
L 221.931952 146.745448 
L 217.345651 147.400197 
L 212.759349 148.887714 
L 212.759349 146.438964 
L 208.173048 148.796353 
L 208.173048 145.404909 
L 203.586747 147.844382 
L 203.586747 146.976154 
L 199.000445 148.5965 
L 199.000445 144.038878 
L 194.414144 146.647115 
L 194.414144 141.772462 
L 189.827842 143.485478 
L 180.65524 149.107628 
L 180.65524 147.096703 
L 176.068938 150.017273 
L 171.482637 151.994 
L 166.896336 155.042224 
L 157.723733 160.357077 
L 157.723733 159.382738 
L 153.137432 161.681921 
L 148.55113 165.0404 
L 148.55113 164.074 
L 139.378527 171.048021 
L 134.792226 174.644 
L 134.792226 173.738 
L 130.205925 177.439106 
L 130.205925 176.543677 
L 125.619623 180.355739 
L 111.860719 192.30591 
L 102.688116 200.730552 
L 98.101815 205.089814 
L 88.929212 214.119714 
L 84.342911 218.797855 
L 75.170308 228.500667 
L 70.584007 233.534 
L 70.584007 233.189949 
L 61.411404 243.770623 
L 52.238801 254.9156 
L 52.238801 254.837243 
L 47.6525 260.714 
L 47.6525 260.714 
" style="fill:none;stroke:#000000;stroke-linecap:square;stroke-width:1.5;"/>
   </g>
   <g id="patch_3">
    <path d="M 47.6525 260.714 
L 47.6525 43.274 
" style="fill:none;stroke:#000000;stroke-linecap:square;stroke-linejoin:miter;stroke-width:0.8;"/>
   </g>
   <g id="patch_4">
    <path d="M 382.4525 260.714 
L 382.4525 43.274 
" style="fill:none;stroke:#000000;stroke-linecap:square;stroke-linejoin:miter;stroke-width:0.8;"/>
   </g>
   <g id="patch_5">
    <path d="M 47.6525 260.714 
L 382.4525 260.714 
" style="fill:none;stroke:#000000;stroke-linecap:square;stroke-linejoin:miter;stroke-width:0.8;"/>
   </g>
   <g id="patch_6">
    <path d="M 47.6525 43.274 
L 382.4525 43.274 
" style="fill:none;stroke:#000000;stroke-linecap:square;stroke-linejoin:miter;stroke-width:0.8;"/>
   </g>
   <g id="text_15">
    <!-- Max F1=0.575 -->
    <defs>
     <path d="M 9.8125 72.90625 
L 24.515625 72.90625 
L 43.109375 23.296875 
L 61.8125 72.90625 
L 76.515625 72.90625 
L 76.515625 0 
L 66.890625 0 
L 66.890625 64.015625 
L 48.09375 14.015625 
L 38.1875 14.015625 
L 19.390625 64.015625 
L 19.390625 0 
L 9.8125 0 
z
" id="DejaVuSans-77"/>
     <path d="M 54.890625 54.6875 
L 35.109375 28.078125 
L 55.90625 0 
L 45.3125 0 
L 29.390625 21.484375 
L 13.484375 0 
L 2.875 0 
L 24.125 28.609375 
L 4.6875 54.6875 
L 15.28125 54.6875 
L 29.78125 35.203125 
L 44.28125 54.6875 
z
" id="DejaVuSans-120"/>
     <path d="M 10.59375 45.40625 
L 73.1875 45.40625 
L 73.1875 37.203125 
L 10.59375 37.203125 
z
M 10.59375 25.484375 
L 73.1875 25.484375 
L 73.1875 17.1875 
L 10.59375 17.1875 
z
" id="DejaVuSans-61"/>
     <path d="M 10.796875 72.90625 
L 49.515625 72.90625 
L 49.515625 64.59375 
L 19.828125 64.59375 
L 19.828125 46.734375 
Q 21.96875 47.46875 24.109375 47.828125 
Q 26.265625 48.1875 28.421875 48.1875 
Q 40.625 48.1875 47.75 41.5 
Q 54.890625 34.8125 54.890625 23.390625 
Q 54.890625 11.625 47.5625 5.09375 
Q 40.234375 -1.421875 26.90625 -1.421875 
Q 22.3125 -1.421875 17.546875 -0.640625 
Q 12.796875 0.140625 7.71875 1.703125 
L 7.71875 11.625 
Q 12.109375 9.234375 16.796875 8.0625 
Q 21.484375 6.890625 26.703125 6.890625 
Q 35.15625 6.890625 40.078125 11.328125 
Q 45.015625 15.765625 45.015625 23.390625 
Q 45.015625 31 40.078125 35.4375 
Q 35.15625 39.890625 26.703125 39.890625 
Q 22.75 39.890625 18.8125 39.015625 
Q 14.890625 38.140625 10.796875 36.28125 
z
" id="DejaVuSans-53"/>
     <path d="M 8.203125 72.90625 
L 55.078125 72.90625 
L 55.078125 68.703125 
L 28.609375 0 
L 18.3125 0 
L 43.21875 64.59375 
L 8.203125 64.59375 
z
" id="DejaVuSans-55"/>
    </defs>
    <g transform="translate(345.762089 133.463494)scale(0.1 -0.1)">
     <use xlink:href="#DejaVuSans-77"/>
     <use x="86.279297" xlink:href="#DejaVuSans-97"/>
     <use x="147.558594" xlink:href="#DejaVuSans-120"/>
     <use x="206.738281" xlink:href="#DejaVuSans-32"/>
     <use x="238.525391" xlink:href="#DejaVuSans-70"/>
     <use x="296.044922" xlink:href="#DejaVuSans-49"/>
     <use x="359.667969" xlink:href="#DejaVuSans-61"/>
     <use x="443.457031" xlink:href="#DejaVuSans-48"/>
     <use x="507.080078" xlink:href="#DejaVuSans-46"/>
     <use x="538.867188" xlink:href="#DejaVuSans-53"/>
     <use x="602.490234" xlink:href="#DejaVuSans-55"/>
     <use x="666.113281" xlink:href="#DejaVuSans-53"/>
    </g>
   </g>
   <g id="text_16">
    <!-- NR.AhR Random Forest -->
    <defs>
     <path d="M 9.8125 72.90625 
L 23.09375 72.90625 
L 55.421875 11.921875 
L 55.421875 72.90625 
L 64.984375 72.90625 
L 64.984375 0 
L 51.703125 0 
L 19.390625 60.984375 
L 19.390625 0 
L 9.8125 0 
z
" id="DejaVuSans-78"/>
     <path d="M 34.1875 63.1875 
L 20.796875 26.90625 
L 47.609375 26.90625 
z
M 28.609375 72.90625 
L 39.796875 72.90625 
L 67.578125 0 
L 57.328125 0 
L 50.6875 18.703125 
L 17.828125 18.703125 
L 11.1875 0 
L 0.78125 0 
z
" id="DejaVuSans-65"/>
     <path d="M 54.890625 33.015625 
L 54.890625 0 
L 45.90625 0 
L 45.90625 32.71875 
Q 45.90625 40.484375 42.875 44.328125 
Q 39.84375 48.1875 33.796875 48.1875 
Q 26.515625 48.1875 22.3125 43.546875 
Q 18.109375 38.921875 18.109375 30.90625 
L 18.109375 0 
L 9.078125 0 
L 9.078125 75.984375 
L 18.109375 75.984375 
L 18.109375 46.1875 
Q 21.34375 51.125 25.703125 53.5625 
Q 30.078125 56 35.796875 56 
Q 45.21875 56 50.046875 50.171875 
Q 54.890625 44.34375 54.890625 33.015625 
z
" id="DejaVuSans-104"/>
     <path d="M 45.40625 46.390625 
L 45.40625 75.984375 
L 54.390625 75.984375 
L 54.390625 0 
L 45.40625 0 
L 45.40625 8.203125 
Q 42.578125 3.328125 38.25 0.953125 
Q 33.9375 -1.421875 27.875 -1.421875 
Q 17.96875 -1.421875 11.734375 6.484375 
Q 5.515625 14.40625 5.515625 27.296875 
Q 5.515625 40.1875 11.734375 48.09375 
Q 17.96875 56 27.875 56 
Q 33.9375 56 38.25 53.625 
Q 42.578125 51.265625 45.40625 46.390625 
z
M 14.796875 27.296875 
Q 14.796875 17.390625 18.875 11.75 
Q 22.953125 6.109375 30.078125 6.109375 
Q 37.203125 6.109375 41.296875 11.75 
Q 45.40625 17.390625 45.40625 27.296875 
Q 45.40625 37.203125 41.296875 42.84375 
Q 37.203125 48.484375 30.078125 48.484375 
Q 22.953125 48.484375 18.875 42.84375 
Q 14.796875 37.203125 14.796875 27.296875 
z
" id="DejaVuSans-100"/>
     <path d="M 52 44.1875 
Q 55.375 50.25 60.0625 53.125 
Q 64.75 56 71.09375 56 
Q 79.640625 56 84.28125 50.015625 
Q 88.921875 44.046875 88.921875 33.015625 
L 88.921875 0 
L 79.890625 0 
L 79.890625 32.71875 
Q 79.890625 40.578125 77.09375 44.375 
Q 74.3125 48.1875 68.609375 48.1875 
Q 61.625 48.1875 57.5625 43.546875 
Q 53.515625 38.921875 53.515625 30.90625 
L 53.515625 0 
L 44.484375 0 
L 44.484375 32.71875 
Q 44.484375 40.625 41.703125 44.40625 
Q 38.921875 48.1875 33.109375 48.1875 
Q 26.21875 48.1875 22.15625 43.53125 
Q 18.109375 38.875 18.109375 30.90625 
L 18.109375 0 
L 9.078125 0 
L 9.078125 54.6875 
L 18.109375 54.6875 
L 18.109375 46.1875 
Q 21.1875 51.21875 25.484375 53.609375 
Q 29.78125 56 35.6875 56 
Q 41.65625 56 45.828125 52.96875 
Q 50 49.953125 52 44.1875 
z
" id="DejaVuSans-109"/>
     <path d="M 18.3125 70.21875 
L 18.3125 54.6875 
L 36.8125 54.6875 
L 36.8125 47.703125 
L 18.3125 47.703125 
L 18.3125 18.015625 
Q 18.3125 11.328125 20.140625 9.421875 
Q 21.96875 7.515625 27.59375 7.515625 
L 36.8125 7.515625 
L 36.8125 0 
L 27.59375 0 
Q 17.1875 0 13.234375 3.875 
Q 9.28125 7.765625 9.28125 18.015625 
L 9.28125 47.703125 
L 2.6875 47.703125 
L 2.6875 54.6875 
L 9.28125 54.6875 
L 9.28125 70.21875 
z
" id="DejaVuSans-116"/>
    </defs>
    <g transform="translate(121.48375 19.3575)scale(0.16 -0.16)">
     <use xlink:href="#DejaVuSans-78"/>
     <use x="74.804688" xlink:href="#DejaVuSans-82"/>
     <use x="144.240234" xlink:href="#DejaVuSans-46"/>
     <use x="176.027344" xlink:href="#DejaVuSans-65"/>
     <use x="244.435547" xlink:href="#DejaVuSans-104"/>
     <use x="307.814453" xlink:href="#DejaVuSans-82"/>
     <use x="377.296875" xlink:href="#DejaVuSans-32"/>
     <use x="409.083984" xlink:href="#DejaVuSans-82"/>
     <use x="478.535156" xlink:href="#DejaVuSans-97"/>
     <use x="539.814453" xlink:href="#DejaVuSans-110"/>
     <use x="603.193359" xlink:href="#DejaVuSans-100"/>
     <use x="666.669922" xlink:href="#DejaVuSans-111"/>
     <use x="727.851562" xlink:href="#DejaVuSans-109"/>
     <use x="825.263672" xlink:href="#DejaVuSans-32"/>
     <use x="857.050781" xlink:href="#DejaVuSans-70"/>
     <use x="914.523438" xlink:href="#DejaVuSans-111"/>
     <use x="975.705078" xlink:href="#DejaVuSans-114"/>
     <use x="1016.787109" xlink:href="#DejaVuSans-101"/>
     <use x="1078.310547" xlink:href="#DejaVuSans-115"/>
     <use x="1130.410156" xlink:href="#DejaVuSans-116"/>
    </g>
    <!--  Precision-Recall curve: AP=0.60 -->
    <defs>
     <path d="M 4.890625 31.390625 
L 31.203125 31.390625 
L 31.203125 23.390625 
L 4.890625 23.390625 
z
" id="DejaVuSans-45"/>
     <path d="M 8.5 21.578125 
L 8.5 54.6875 
L 17.484375 54.6875 
L 17.484375 21.921875 
Q 17.484375 14.15625 20.5 10.265625 
Q 23.53125 6.390625 29.59375 6.390625 
Q 36.859375 6.390625 41.078125 11.03125 
Q 45.3125 15.671875 45.3125 23.6875 
L 45.3125 54.6875 
L 54.296875 54.6875 
L 54.296875 0 
L 45.3125 0 
L 45.3125 8.40625 
Q 42.046875 3.421875 37.71875 1 
Q 33.40625 -1.421875 27.6875 -1.421875 
Q 18.265625 -1.421875 13.375 4.4375 
Q 8.5 10.296875 8.5 21.578125 
z
M 31.109375 56 
z
" id="DejaVuSans-117"/>
     <path d="M 2.984375 54.6875 
L 12.5 54.6875 
L 29.59375 8.796875 
L 46.6875 54.6875 
L 56.203125 54.6875 
L 35.6875 0 
L 23.484375 0 
z
" id="DejaVuSans-118"/>
     <path d="M 11.71875 12.40625 
L 22.015625 12.40625 
L 22.015625 0 
L 11.71875 0 
z
M 11.71875 51.703125 
L 22.015625 51.703125 
L 22.015625 39.3125 
L 11.71875 39.3125 
z
" id="DejaVuSans-58"/>
    </defs>
    <g transform="translate(84.38625 37.274)scale(0.16 -0.16)">
     <use xlink:href="#DejaVuSans-32"/>
     <use x="31.787109" xlink:href="#DejaVuSans-80"/>
     <use x="92.074219" xlink:href="#DejaVuSans-114"/>
     <use x="133.15625" xlink:href="#DejaVuSans-101"/>
     <use x="194.679688" xlink:href="#DejaVuSans-99"/>
     <use x="249.660156" xlink:href="#DejaVuSans-105"/>
     <use x="277.443359" xlink:href="#DejaVuSans-115"/>
     <use x="329.542969" xlink:href="#DejaVuSans-105"/>
     <use x="357.326172" xlink:href="#DejaVuSans-111"/>
     <use x="418.507812" xlink:href="#DejaVuSans-110"/>
     <use x="481.886719" xlink:href="#DejaVuSans-45"/>
     <use x="517.970703" xlink:href="#DejaVuSans-82"/>
     <use x="587.390625" xlink:href="#DejaVuSans-101"/>
     <use x="648.914062" xlink:href="#DejaVuSans-99"/>
     <use x="703.894531" xlink:href="#DejaVuSans-97"/>
     <use x="765.173828" xlink:href="#DejaVuSans-108"/>
     <use x="792.957031" xlink:href="#DejaVuSans-108"/>
     <use x="820.740234" xlink:href="#DejaVuSans-32"/>
     <use x="852.527344" xlink:href="#DejaVuSans-99"/>
     <use x="907.507812" xlink:href="#DejaVuSans-117"/>
     <use x="970.886719" xlink:href="#DejaVuSans-114"/>
     <use x="1012" xlink:href="#DejaVuSans-118"/>
     <use x="1071.179688" xlink:href="#DejaVuSans-101"/>
     <use x="1132.703125" xlink:href="#DejaVuSans-58"/>
     <use x="1166.394531" xlink:href="#DejaVuSans-32"/>
     <use x="1198.181641" xlink:href="#DejaVuSans-65"/>
     <use x="1266.589844" xlink:href="#DejaVuSans-80"/>
     <use x="1326.892578" xlink:href="#DejaVuSans-61"/>
     <use x="1410.681641" xlink:href="#DejaVuSans-48"/>
     <use x="1474.304688" xlink:href="#DejaVuSans-46"/>
     <use x="1506.091797" xlink:href="#DejaVuSans-54"/>
     <use x="1569.714844" xlink:href="#DejaVuSans-48"/>
    </g>
   </g>
   <g id="legend_1">
    <g id="patch_7">
     <path d="M 247.379063 109.9865 
L 375.4525 109.9865 
Q 377.4525 109.9865 377.4525 107.9865 
L 377.4525 50.274 
Q 377.4525 48.274 375.4525 48.274 
L 247.379063 48.274 
Q 245.379063 48.274 245.379063 50.274 
L 245.379063 107.9865 
Q 245.379063 109.9865 247.379063 109.9865 
z
" style="fill:#ffffff;opacity:0.8;stroke:#cccccc;stroke-linejoin:miter;"/>
    </g>
    <g id="line2d_18">
     <path d="M 249.379063 56.372437 
L 269.379063 56.372437 
" style="fill:none;stroke:#ff0000;stroke-dasharray:5.55,2.4;stroke-dashoffset:0;stroke-width:1.5;"/>
    </g>
    <g id="line2d_19"/>
    <g id="text_17">
     <!-- No Skill -->
     <defs>
      <path d="M 9.078125 75.984375 
L 18.109375 75.984375 
L 18.109375 31.109375 
L 44.921875 54.6875 
L 56.390625 54.6875 
L 27.390625 29.109375 
L 57.625 0 
L 45.90625 0 
L 18.109375 26.703125 
L 18.109375 0 
L 9.078125 0 
z
" id="DejaVuSans-107"/>
     </defs>
     <g transform="translate(277.379063 59.872437)scale(0.1 -0.1)">
      <use xlink:href="#DejaVuSans-78"/>
      <use x="74.804688" xlink:href="#DejaVuSans-111"/>
      <use x="135.986328" xlink:href="#DejaVuSans-32"/>
      <use x="167.773438" xlink:href="#DejaVuSans-83"/>
      <use x="231.25" xlink:href="#DejaVuSans-107"/>
      <use x="289.160156" xlink:href="#DejaVuSans-105"/>
      <use x="316.943359" xlink:href="#DejaVuSans-108"/>
      <use x="344.726562" xlink:href="#DejaVuSans-108"/>
     </g>
    </g>
    <g id="line2d_20">
     <path d="M 249.379063 71.050562 
L 269.379063 71.050562 
" style="fill:none;stroke:#000000;stroke-dasharray:1.5,2.475;stroke-dashoffset:0;stroke-opacity:0.4;stroke-width:1.5;"/>
    </g>
    <g id="line2d_21"/>
    <g id="text_18">
     <!-- Prec/Rec @ Max F1 -->
     <defs>
      <path d="M 25.390625 72.90625 
L 33.6875 72.90625 
L 8.296875 -9.28125 
L 0 -9.28125 
z
" id="DejaVuSans-47"/>
      <path d="M 37.203125 26.21875 
Q 37.203125 19.234375 40.671875 15.25 
Q 44.140625 11.28125 50.203125 11.28125 
Q 56.203125 11.28125 59.640625 15.28125 
Q 63.09375 19.28125 63.09375 26.21875 
Q 63.09375 33.0625 59.578125 37.078125 
Q 56.0625 41.109375 50.09375 41.109375 
Q 44.1875 41.109375 40.6875 37.109375 
Q 37.203125 33.109375 37.203125 26.21875 
z
M 63.8125 11.625 
Q 60.890625 7.859375 57.109375 6.078125 
Q 53.328125 4.296875 48.296875 4.296875 
Q 39.890625 4.296875 34.640625 10.375 
Q 29.390625 16.453125 29.390625 26.21875 
Q 29.390625 35.984375 34.65625 42.078125 
Q 39.9375 48.1875 48.296875 48.1875 
Q 53.328125 48.1875 57.125 46.359375 
Q 60.9375 44.53125 63.8125 40.828125 
L 63.8125 47.21875 
L 70.796875 47.21875 
L 70.796875 11.28125 
Q 77.9375 12.359375 81.953125 17.796875 
Q 85.984375 23.25 85.984375 31.890625 
Q 85.984375 37.109375 84.4375 41.703125 
Q 82.90625 46.296875 79.78125 50.203125 
Q 74.703125 56.59375 67.40625 59.984375 
Q 60.109375 63.375 51.515625 63.375 
Q 45.515625 63.375 39.984375 61.78125 
Q 34.46875 60.203125 29.78125 57.078125 
Q 22.125 52.09375 17.796875 44.015625 
Q 13.484375 35.9375 13.484375 26.515625 
Q 13.484375 18.75 16.28125 11.953125 
Q 19.09375 5.171875 24.421875 0 
Q 29.546875 -5.078125 36.28125 -7.734375 
Q 43.015625 -10.40625 50.6875 -10.40625 
Q 56.984375 -10.40625 63.0625 -8.28125 
Q 69.140625 -6.15625 74.21875 -2.203125 
L 78.609375 -7.625 
Q 72.515625 -12.359375 65.3125 -14.875 
Q 58.109375 -17.390625 50.6875 -17.390625 
Q 41.65625 -17.390625 33.640625 -14.1875 
Q 25.640625 -10.984375 19.390625 -4.890625 
Q 13.140625 1.21875 9.859375 9.25 
Q 6.59375 17.28125 6.59375 26.515625 
Q 6.59375 35.40625 9.90625 43.453125 
Q 13.234375 51.515625 19.390625 57.625 
Q 25.6875 63.8125 33.9375 67.109375 
Q 42.1875 70.40625 51.421875 70.40625 
Q 61.765625 70.40625 70.625 66.15625 
Q 79.5 61.921875 85.5 54.109375 
Q 89.15625 49.3125 91.078125 43.703125 
Q 93.015625 38.09375 93.015625 32.078125 
Q 93.015625 19.234375 85.25 11.8125 
Q 77.484375 4.390625 63.8125 4.109375 
z
" id="DejaVuSans-64"/>
     </defs>
     <g transform="translate(277.379063 74.550562)scale(0.1 -0.1)">
      <use xlink:href="#DejaVuSans-80"/>
      <use x="60.287109" xlink:href="#DejaVuSans-114"/>
      <use x="101.369141" xlink:href="#DejaVuSans-101"/>
      <use x="162.892578" xlink:href="#DejaVuSans-99"/>
      <use x="217.873047" xlink:href="#DejaVuSans-47"/>
      <use x="251.564453" xlink:href="#DejaVuSans-82"/>
      <use x="320.984375" xlink:href="#DejaVuSans-101"/>
      <use x="382.507812" xlink:href="#DejaVuSans-99"/>
      <use x="437.488281" xlink:href="#DejaVuSans-32"/>
      <use x="469.275391" xlink:href="#DejaVuSans-64"/>
      <use x="569.275391" xlink:href="#DejaVuSans-32"/>
      <use x="601.0625" xlink:href="#DejaVuSans-77"/>
      <use x="687.341797" xlink:href="#DejaVuSans-97"/>
      <use x="748.621094" xlink:href="#DejaVuSans-120"/>
      <use x="807.800781" xlink:href="#DejaVuSans-32"/>
      <use x="839.587891" xlink:href="#DejaVuSans-70"/>
      <use x="897.107422" xlink:href="#DejaVuSans-49"/>
     </g>
    </g>
    <g id="line2d_22">
     <path d="M 249.379063 85.728687 
L 269.379063 85.728687 
" style="fill:none;stroke:#000000;stroke-linecap:square;stroke-width:1.5;"/>
    </g>
    <g id="line2d_23"/>
    <g id="text_19">
     <!-- F1 -->
     <g transform="translate(277.379063 89.228687)scale(0.1 -0.1)">
      <use xlink:href="#DejaVuSans-70"/>
      <use x="57.519531" xlink:href="#DejaVuSans-49"/>
     </g>
    </g>
    <g id="patch_8">
     <path d="M 249.379063 103.906812 
L 269.379063 103.906812 
L 269.379063 96.906812 
L 249.379063 96.906812 
z
" style="fill:#0000ff;opacity:0.2;stroke:#0000ff;stroke-linejoin:miter;"/>
    </g>
    <g id="text_20">
     <!-- Random Forest -->
     <g transform="translate(277.379063 103.906812)scale(0.1 -0.1)">
      <use xlink:href="#DejaVuSans-82"/>
      <use x="69.451172" xlink:href="#DejaVuSans-97"/>
      <use x="130.730469" xlink:href="#DejaVuSans-110"/>
      <use x="194.109375" xlink:href="#DejaVuSans-100"/>
      <use x="257.585938" xlink:href="#DejaVuSans-111"/>
      <use x="318.767578" xlink:href="#DejaVuSans-109"/>
      <use x="416.179688" xlink:href="#DejaVuSans-32"/>
      <use x="447.966797" xlink:href="#DejaVuSans-70"/>
      <use x="505.439453" xlink:href="#DejaVuSans-111"/>
      <use x="566.621094" xlink:href="#DejaVuSans-114"/>
      <use x="607.703125" xlink:href="#DejaVuSans-101"/>
      <use x="669.226562" xlink:href="#DejaVuSans-115"/>
      <use x="721.326172" xlink:href="#DejaVuSans-116"/>
     </g>
    </g>
   </g>
  </g>
 </g>
 <defs>
  <clipPath id="p15b41a01ac">
   <rect height="217.44" width="334.8" x="47.6525" y="43.274"/>
  </clipPath>
 </defs>
</svg>
