<?xml version="1.0" encoding="utf-8" standalone="no"?>
<!DOCTYPE svg PUBLIC "-//W3C//DTD SVG 1.1//EN"
  "http://www.w3.org/Graphics/SVG/1.1/DTD/svg11.dtd">
<!-- Created with matplotlib (https://matplotlib.org/) -->
<svg height="410.8615pt" version="1.1" viewBox="0 0 509.204062 410.8615" width="509.204062pt" xmlns="http://www.w3.org/2000/svg" xmlns:xlink="http://www.w3.org/1999/xlink">
 <defs>
  <style type="text/css">
*{stroke-linecap:butt;stroke-linejoin:round;}
  </style>
 </defs>
 <g id="figure_1">
  <g id="patch_1">
   <path d="M 0 410.8615 
L 509.204062 410.8615 
L 509.204062 0 
L 0 0 
z
" style="fill:none;"/>
  </g>
  <g id="axes_1">
   <g id="patch_2">
    <path d="M 47.6525 369.434 
L 494.0525 369.434 
L 494.0525 43.274 
L 47.6525 43.274 
z
" style="fill:none;"/>
   </g>
   <g id="PolyCollection_1">
    <defs>
     <path d="M 494.0525 -41.4275 
L 494.0525 -53.406665 
L 473.761591 -53.406665 
L 473.761591 -52.881279 
L 473.761591 -52.881279 
L 473.761591 -52.900465 
L 473.761591 -52.900465 
L 473.761591 -52.919715 
L 473.761591 -52.919715 
L 473.761591 -52.939029 
L 473.761591 -52.939029 
L 473.761591 -52.958409 
L 473.761591 -52.958409 
L 473.761591 -52.977854 
L 473.761591 -52.977854 
L 473.761591 -52.997365 
L 473.761591 -52.997365 
L 473.761591 -53.016942 
L 473.761591 -53.016942 
L 473.761591 -53.036585 
L 473.761591 -53.036585 
L 473.761591 -53.056295 
L 473.761591 -53.056295 
L 473.761591 -53.076071 
L 473.761591 -53.076071 
L 473.761591 -53.095916 
L 473.761591 -53.095916 
L 473.761591 -53.115828 
L 473.761591 -53.115828 
L 473.761591 -53.135808 
L 473.761591 -53.135808 
L 473.761591 -53.155856 
L 473.761591 -53.155856 
L 473.761591 -53.175973 
L 473.761591 -53.175973 
L 473.761591 -53.19616 
L 473.761591 -53.19616 
L 473.761591 -53.216416 
L 473.761591 -53.216416 
L 473.761591 -53.236741 
L 473.761591 -53.236741 
L 473.761591 -53.257137 
L 473.761591 -53.257137 
L 473.761591 -53.277604 
L 473.761591 -53.277604 
L 473.761591 -53.298141 
L 473.761591 -53.298141 
L 473.761591 -53.31875 
L 473.761591 -53.31875 
L 473.761591 -53.33943 
L 473.761591 -53.33943 
L 473.761591 -53.360183 
L 473.761591 -53.360183 
L 473.761591 -53.381008 
L 473.761591 -53.381008 
L 473.761591 -53.401906 
L 473.761591 -53.401906 
L 473.761591 -53.422877 
L 473.761591 -53.422877 
L 473.761591 -53.443921 
L 473.761591 -53.443921 
L 473.761591 -53.46504 
L 473.761591 -53.46504 
L 473.761591 -53.486232 
L 473.761591 -53.486232 
L 473.761591 -53.5075 
L 473.761591 -53.5075 
L 473.761591 -53.528843 
L 473.761591 -53.528843 
L 473.761591 -53.550261 
L 473.761591 -53.550261 
L 473.761591 -53.571755 
L 473.761591 -53.571755 
L 473.761591 -53.593326 
L 473.761591 -53.593326 
L 473.761591 -53.614973 
L 473.761591 -53.614973 
L 473.761591 -53.636698 
L 473.761591 -53.636698 
L 473.761591 -53.6585 
L 473.761591 -53.6585 
L 473.761591 -53.68038 
L 473.761591 -53.68038 
L 473.761591 -53.702339 
L 473.761591 -53.702339 
L 473.761591 -53.724376 
L 473.761591 -53.724376 
L 473.761591 -53.746493 
L 473.761591 -53.746493 
L 473.761591 -53.768689 
L 473.761591 -53.768689 
L 473.761591 -53.790966 
L 473.761591 -53.790966 
L 473.761591 -53.813323 
L 473.761591 -53.813323 
L 473.761591 -53.835761 
L 473.761591 -53.835761 
L 473.761591 -53.85828 
L 473.761591 -53.85828 
L 473.761591 -53.880882 
L 473.761591 -53.880882 
L 473.761591 -53.903566 
L 473.761591 -53.903566 
L 473.761591 -53.926332 
L 473.761591 -53.926332 
L 473.761591 -53.949182 
L 473.761591 -53.949182 
L 473.761591 -53.972115 
L 473.761591 -53.972115 
L 473.761591 -53.995133 
L 473.761591 -53.995133 
L 473.761591 -54.018235 
L 473.761591 -54.018235 
L 473.761591 -54.041423 
L 473.761591 -54.041423 
L 473.761591 -54.064696 
L 473.761591 -54.064696 
L 473.761591 -54.088055 
L 473.761591 -54.088055 
L 473.761591 -54.1115 
L 473.761591 -54.1115 
L 473.761591 -54.135032 
L 473.761591 -54.135032 
L 473.761591 -54.158652 
L 473.761591 -54.158652 
L 473.761591 -54.18236 
L 473.761591 -54.18236 
L 473.761591 -54.206157 
L 473.761591 -54.206157 
L 473.761591 -54.230042 
L 473.761591 -54.230042 
L 473.761591 -54.254017 
L 473.761591 -54.254017 
L 473.761591 -54.278082 
L 473.761591 -54.278082 
L 473.761591 -54.302237 
L 473.761591 -54.302237 
L 473.761591 -54.326483 
L 473.761591 -54.326483 
L 473.761591 -54.350821 
L 473.761591 -54.350821 
L 473.761591 -54.37525 
L 473.761591 -54.37525 
L 473.761591 -54.399773 
L 473.761591 -54.399773 
L 473.761591 -54.424388 
L 473.761591 -54.424388 
L 473.761591 -54.449097 
L 473.761591 -54.449097 
L 473.761591 -54.4739 
L 473.761591 -54.4739 
L 473.761591 -54.498798 
L 473.761591 -54.498798 
L 473.761591 -54.523791 
L 473.761591 -54.523791 
L 473.761591 -54.548879 
L 473.761591 -54.548879 
L 473.761591 -54.574064 
L 473.761591 -54.574064 
L 473.761591 -54.599346 
L 473.761591 -54.599346 
L 473.761591 -54.624725 
L 473.761591 -54.624725 
L 473.761591 -54.650203 
L 473.761591 -54.650203 
L 473.761591 -54.675779 
L 473.761591 -54.675779 
L 473.761591 -54.701453 
L 473.761591 -54.701453 
L 473.761591 -54.727228 
L 473.761591 -54.727228 
L 473.761591 -54.753103 
L 473.761591 -54.753103 
L 473.761591 -54.779079 
L 473.761591 -54.779079 
L 473.761591 -54.805156 
L 473.761591 -54.805156 
L 473.761591 -54.831336 
L 473.761591 -54.831336 
L 473.761591 -54.857618 
L 473.761591 -54.857618 
L 473.761591 -54.884003 
L 473.761591 -54.884003 
L 473.761591 -54.910492 
L 473.761591 -54.910492 
L 473.761591 -54.937086 
L 473.761591 -54.937086 
L 473.761591 -54.963785 
L 473.761591 -54.963785 
L 473.761591 -54.990589 
L 473.761591 -54.990589 
L 473.761591 -55.0175 
L 473.761591 -55.0175 
L 473.761591 -55.044518 
L 473.761591 -55.044518 
L 473.761591 -55.071643 
L 473.761591 -55.071643 
L 473.761591 -55.098877 
L 473.761591 -55.098877 
L 473.761591 -55.12622 
L 473.761591 -55.12622 
L 473.761591 -55.153672 
L 473.761591 -55.153672 
L 473.761591 -55.181235 
L 473.761591 -55.181235 
L 473.761591 -55.208908 
L 473.761591 -55.208908 
L 473.761591 -55.236694 
L 473.761591 -55.236694 
L 473.761591 -55.264591 
L 473.761591 -55.264591 
L 473.761591 -55.292601 
L 473.761591 -55.292601 
L 473.761591 -55.320725 
L 473.761591 -55.320725 
L 473.761591 -55.348963 
L 473.761591 -55.348963 
L 473.761591 -55.377317 
L 473.761591 -55.377317 
L 473.761591 -55.405786 
L 473.761591 -55.405786 
L 473.761591 -55.434371 
L 473.761591 -55.434371 
L 473.761591 -55.463074 
L 473.761591 -55.463074 
L 473.761591 -55.491894 
L 473.761591 -55.491894 
L 473.761591 -55.520833 
L 473.761591 -55.520833 
L 473.761591 -55.549892 
L 473.761591 -55.549892 
L 473.761591 -55.57907 
L 473.761591 -55.57907 
L 473.761591 -55.60837 
L 473.761591 -55.60837 
L 473.761591 -55.63779 
L 473.761591 -55.63779 
L 473.761591 -55.667334 
L 473.761591 -55.667334 
L 473.761591 -55.697 
L 473.761591 -55.697 
L 473.761591 -55.72679 
L 473.761591 -55.72679 
L 473.761591 -55.756705 
L 473.761591 -55.756705 
L 473.761591 -55.786745 
L 473.761591 -55.786745 
L 473.761591 -55.816912 
L 473.761591 -55.816912 
L 473.761591 -55.847205 
L 473.761591 -55.847205 
L 473.761591 -55.877627 
L 473.761591 -55.877627 
L 473.761591 -55.908177 
L 473.761591 -55.908177 
L 473.761591 -55.938856 
L 473.761591 -55.938856 
L 473.761591 -55.969666 
L 473.761591 -55.969666 
L 473.761591 -56.000606 
L 473.761591 -56.000606 
L 473.761591 -56.031679 
L 473.761591 -56.031679 
L 473.761591 -56.062885 
L 473.761591 -56.062885 
L 473.761591 -56.094224 
L 473.761591 -56.094224 
L 473.761591 -56.125697 
L 473.761591 -56.125697 
L 473.761591 -56.157306 
L 473.761591 -56.157306 
L 473.761591 -56.189052 
L 473.761591 -56.189052 
L 473.761591 -56.220934 
L 473.761591 -56.220934 
L 473.761591 -56.252955 
L 473.761591 -56.252955 
L 473.761591 -56.285114 
L 473.761591 -56.285114 
L 473.761591 -56.317413 
L 473.761591 -56.317413 
L 473.761591 -56.349853 
L 473.761591 -56.349853 
L 473.761591 -56.382434 
L 473.761591 -56.382434 
L 473.761591 -56.415159 
L 473.761591 -56.415159 
L 473.761591 -56.448026 
L 473.761591 -56.448026 
L 473.761591 -56.481038 
L 473.761591 -56.481038 
L 473.761591 -56.514196 
L 473.761591 -56.514196 
L 473.761591 -56.5475 
L 473.761591 -56.5475 
L 473.761591 -56.580951 
L 473.761591 -56.580951 
L 473.761591 -56.614551 
L 473.761591 -56.614551 
L 473.761591 -56.6483 
L 473.761591 -56.6483 
L 473.761591 -56.682199 
L 473.761591 -56.682199 
L 473.761591 -56.71625 
L 473.761591 -56.71625 
L 473.761591 -56.750453 
L 473.761591 -56.750453 
L 473.761591 -56.784809 
L 453.470682 -56.784809 
L 453.470682 -56.086376 
L 453.470682 -56.086376 
L 453.470682 -56.119392 
L 453.470682 -56.119392 
L 453.470682 -56.152556 
L 453.470682 -56.152556 
L 453.470682 -56.185871 
L 453.470682 -56.185871 
L 453.470682 -56.219337 
L 453.470682 -56.219337 
L 453.470682 -56.252955 
L 453.470682 -56.252955 
L 453.470682 -56.286726 
L 453.470682 -56.286726 
L 453.470682 -56.320651 
L 453.470682 -56.320651 
L 453.470682 -56.354731 
L 453.470682 -56.354731 
L 453.470682 -56.388968 
L 453.470682 -56.388968 
L 453.470682 -56.423362 
L 453.470682 -56.423362 
L 453.470682 -56.457915 
L 453.470682 -56.457915 
L 453.470682 -56.492627 
L 453.470682 -56.492627 
L 453.470682 -56.5275 
L 453.470682 -56.5275 
L 453.470682 -56.562535 
L 453.470682 -56.562535 
L 453.470682 -56.597733 
L 453.470682 -56.597733 
L 453.470682 -56.633094 
L 453.470682 -56.633094 
L 453.470682 -56.668621 
L 453.470682 -56.668621 
L 453.470682 -56.704315 
L 453.470682 -56.704315 
L 453.470682 -56.740176 
L 453.470682 -56.740176 
L 453.470682 -56.776206 
L 453.470682 -56.776206 
L 453.470682 -56.812406 
L 453.470682 -56.812406 
L 453.470682 -56.848777 
L 453.470682 -56.848777 
L 453.470682 -56.88532 
L 453.470682 -56.88532 
L 453.470682 -56.922037 
L 453.470682 -56.922037 
L 453.470682 -56.958929 
L 453.470682 -56.958929 
L 453.470682 -56.995996 
L 453.470682 -56.995996 
L 453.470682 -57.033242 
L 453.470682 -57.033242 
L 453.470682 -57.070665 
L 453.470682 -57.070665 
L 453.470682 -57.108269 
L 453.470682 -57.108269 
L 453.470682 -57.146054 
L 453.470682 -57.146054 
L 453.470682 -57.184022 
L 453.470682 -57.184022 
L 453.470682 -57.222173 
L 453.470682 -57.222173 
L 453.470682 -57.26051 
L 453.470682 -57.26051 
L 453.470682 -57.299033 
L 453.470682 -57.299033 
L 453.470682 -57.337744 
L 453.470682 -57.337744 
L 453.470682 -57.376644 
L 453.470682 -57.376644 
L 453.470682 -57.415735 
L 453.470682 -57.415735 
L 453.470682 -57.455018 
L 453.470682 -57.455018 
L 453.470682 -57.494495 
L 453.470682 -57.494495 
L 453.470682 -57.534167 
L 453.470682 -57.534167 
L 453.470682 -57.574035 
L 453.470682 -57.574035 
L 453.470682 -57.6141 
L 453.470682 -57.6141 
L 453.470682 -57.654366 
L 453.470682 -57.654366 
L 453.470682 -57.694832 
L 433.179773 -57.694832 
L 433.179773 -56.9201 
L 433.179773 -56.9201 
L 433.179773 -56.958929 
L 433.179773 -56.958929 
L 433.179773 -56.997952 
L 433.179773 -56.997952 
L 433.179773 -57.037173 
L 433.179773 -57.037173 
L 433.179773 -57.076591 
L 433.179773 -57.076591 
L 433.179773 -57.116209 
L 433.179773 -57.116209 
L 433.179773 -57.156028 
L 433.179773 -57.156028 
L 433.179773 -57.19605 
L 433.179773 -57.19605 
L 433.179773 -57.236276 
L 433.179773 -57.236276 
L 433.179773 -57.276707 
L 433.179773 -57.276707 
L 433.179773 -57.317346 
L 433.179773 -57.317346 
L 433.179773 -57.358194 
L 433.179773 -57.358194 
L 433.179773 -57.399253 
L 433.179773 -57.399253 
L 433.179773 -57.440523 
L 433.179773 -57.440523 
L 433.179773 -57.482008 
L 433.179773 -57.482008 
L 433.179773 -57.523708 
L 433.179773 -57.523708 
L 433.179773 -57.565625 
L 433.179773 -57.565625 
L 433.179773 -57.607761 
L 433.179773 -57.607761 
L 433.179773 -57.650118 
L 433.179773 -57.650118 
L 433.179773 -57.692697 
L 433.179773 -57.692697 
L 433.179773 -57.7355 
L 433.179773 -57.7355 
L 433.179773 -57.778529 
L 433.179773 -57.778529 
L 433.179773 -57.821786 
L 433.179773 -57.821786 
L 433.179773 -57.865272 
L 433.179773 -57.865272 
L 433.179773 -57.908989 
L 433.179773 -57.908989 
L 433.179773 -57.95294 
L 433.179773 -57.95294 
L 433.179773 -57.997126 
L 433.179773 -57.997126 
L 433.179773 -58.041548 
L 433.179773 -58.041548 
L 433.179773 -58.08621 
L 433.179773 -58.08621 
L 433.179773 -58.131112 
L 433.179773 -58.131112 
L 433.179773 -58.176257 
L 433.179773 -58.176257 
L 433.179773 -58.221646 
L 433.179773 -58.221646 
L 433.179773 -58.267283 
L 433.179773 -58.267283 
L 433.179773 -58.313168 
L 433.179773 -58.313168 
L 433.179773 -58.359303 
L 433.179773 -58.359303 
L 433.179773 -58.405692 
L 433.179773 -58.405692 
L 433.179773 -58.452335 
L 433.179773 -58.452335 
L 433.179773 -58.499236 
L 433.179773 -58.499236 
L 433.179773 -58.546395 
L 433.179773 -58.546395 
L 433.179773 -58.593816 
L 433.179773 -58.593816 
L 433.179773 -58.6415 
L 433.179773 -58.6415 
L 433.179773 -58.68945 
L 433.179773 -58.68945 
L 433.179773 -58.737668 
L 433.179773 -58.737668 
L 433.179773 -58.786155 
L 433.179773 -58.786155 
L 433.179773 -58.834916 
L 433.179773 -58.834916 
L 433.179773 -58.883951 
L 433.179773 -58.883951 
L 433.179773 -58.933263 
L 433.179773 -58.933263 
L 433.179773 -58.982854 
L 433.179773 -58.982854 
L 433.179773 -59.032727 
L 433.179773 -59.032727 
L 433.179773 -59.082885 
L 433.179773 -59.082885 
L 433.179773 -59.133329 
L 433.179773 -59.133329 
L 433.179773 -59.184062 
L 433.179773 -59.184062 
L 433.179773 -59.5475 
L 433.179773 -59.5475 
L 433.179773 -59.600638 
L 433.179773 -59.600638 
L 433.179773 -59.654088 
L 433.179773 -59.654088 
L 433.179773 -59.707854 
L 433.179773 -59.707854 
L 433.179773 -59.761938 
L 433.179773 -59.761938 
L 433.179773 -59.816343 
L 433.179773 -59.816343 
L 433.179773 -59.871071 
L 433.179773 -59.871071 
L 433.179773 -60.03723 
L 433.179773 -60.03723 
L 433.179773 -60.206409 
L 412.888864 -60.206409 
L 412.888864 -59.27212 
L 412.888864 -59.27212 
L 412.888864 -59.660047 
L 412.888864 -59.660047 
L 412.888864 -59.774 
L 412.888864 -59.774 
L 412.888864 -59.831513 
L 412.888864 -59.831513 
L 412.888864 -60.550888 
L 412.888864 -60.550888 
L 412.888864 -60.676287 
L 412.888864 -60.676287 
L 412.888864 -60.739605 
L 412.888864 -60.739605 
L 412.888864 -60.803342 
L 412.888864 -60.803342 
L 412.888864 -60.8675 
L 412.888864 -60.8675 
L 412.888864 -60.932085 
L 412.888864 -60.932085 
L 412.888864 -60.9971 
L 412.888864 -60.9971 
L 412.888864 -61.06255 
L 412.888864 -61.06255 
L 412.888864 -61.12844 
L 412.888864 -61.12844 
L 412.888864 -61.194773 
L 412.888864 -61.194773 
L 412.888864 -61.261554 
L 412.888864 -61.261554 
L 412.888864 -61.328788 
L 412.888864 -61.328788 
L 412.888864 -61.39648 
L 412.888864 -61.39648 
L 412.888864 -61.464633 
L 412.888864 -61.464633 
L 412.888864 -61.533253 
L 412.888864 -61.533253 
L 412.888864 -62.394929 
L 412.888864 -62.394929 
L 412.888864 -62.470081 
L 412.888864 -62.470081 
L 412.888864 -62.545773 
L 412.888864 -62.545773 
L 412.888864 -62.698804 
L 412.888864 -62.698804 
L 412.888864 -62.776155 
L 412.888864 -62.776155 
L 412.888864 -62.854069 
L 412.888864 -62.854069 
L 412.888864 -62.932555 
L 412.888864 -62.932555 
L 412.888864 -63.011618 
L 412.888864 -63.011618 
L 412.888864 -63.091264 
L 412.888864 -63.091264 
L 412.888864 -63.1715 
L 412.888864 -63.1715 
L 412.888864 -63.581764 
L 412.888864 -63.581764 
L 412.888864 -63.665682 
L 412.888864 -63.665682 
L 412.888864 -63.750238 
L 412.888864 -63.750238 
L 412.888864 -63.835439 
L 412.888864 -63.835439 
L 412.888864 -63.921293 
L 412.888864 -63.921293 
L 412.888864 -64.007808 
L 412.888864 -64.007808 
L 412.888864 -64.09499 
L 412.888864 -64.09499 
L 412.888864 -64.182849 
L 412.888864 -64.182849 
L 412.888864 -64.271391 
L 412.888864 -64.271391 
L 412.888864 -64.360625 
L 412.888864 -64.360625 
L 412.888864 -64.450559 
L 412.888864 -64.450559 
L 412.888864 -64.541201 
L 412.888864 -64.541201 
L 412.888864 -64.632559 
L 412.888864 -64.632559 
L 412.888864 -64.724643 
L 412.888864 -64.724643 
L 412.888864 -64.81746 
L 412.888864 -64.81746 
L 412.888864 -65.100403 
L 412.888864 -65.100403 
L 412.888864 -65.196245 
L 412.888864 -65.196245 
L 412.888864 -65.292866 
L 412.888864 -65.292866 
L 412.888864 -65.390276 
L 412.888864 -65.390276 
L 412.888864 -65.488484 
L 412.888864 -65.488484 
L 412.888864 -65.5875 
L 412.888864 -65.5875 
L 412.888864 -65.687335 
L 392.597955 -65.687335 
L 392.597955 -66.0707 
L 372.307045 -66.0707 
L 372.307045 -64.829114 
L 372.307045 -64.829114 
L 372.307045 -64.934527 
L 372.307045 -64.934527 
L 372.307045 -65.040894 
L 372.307045 -65.040894 
L 372.307045 -65.148227 
L 372.307045 -65.148227 
L 372.307045 -65.256541 
L 372.307045 -65.256541 
L 372.307045 -65.5875 
L 372.307045 -65.5875 
L 372.307045 -65.699872 
L 372.307045 -65.699872 
L 372.307045 -65.813294 
L 372.307045 -65.813294 
L 372.307045 -65.927782 
L 372.307045 -65.927782 
L 372.307045 -66.516731 
L 372.307045 -66.516731 
L 372.307045 -66.637935 
L 372.307045 -66.637935 
L 372.307045 -66.760316 
L 372.307045 -66.760316 
L 372.307045 -66.88389 
L 372.307045 -66.88389 
L 372.307045 -67.008676 
L 372.307045 -67.008676 
L 372.307045 -67.134692 
L 352.016136 -67.134692 
L 352.016136 -66.646057 
L 352.016136 -66.646057 
L 352.016136 -66.776723 
L 352.016136 -66.776723 
L 352.016136 -66.90875 
L 352.016136 -66.90875 
L 352.016136 -67.04216 
L 331.725227 -67.04216 
L 331.725227 -65.460342 
L 331.725227 -65.460342 
L 331.725227 -65.5875 
L 331.725227 -65.5875 
L 331.725227 -65.845896 
L 331.725227 -65.845896 
L 331.725227 -65.977177 
L 331.725227 -65.977177 
L 331.725227 -66.244022 
L 331.725227 -66.244022 
L 331.725227 -66.379631 
L 331.725227 -66.379631 
L 331.725227 -66.516731 
L 331.725227 -66.516731 
L 331.725227 -66.655345 
L 331.725227 -66.655345 
L 331.725227 -66.7955 
L 331.725227 -66.7955 
L 331.725227 -67.372045 
L 331.725227 -67.372045 
L 331.725227 -67.5203 
L 331.725227 -67.5203 
L 331.725227 -67.670259 
L 331.725227 -67.670259 
L 331.725227 -67.821951 
L 331.725227 -67.821951 
L 331.725227 -68.287735 
L 331.725227 -68.287735 
L 331.725227 -68.446672 
L 331.725227 -68.446672 
L 331.725227 -68.6075 
L 311.434318 -68.6075 
L 311.434318 -71.713786 
L 311.434318 -71.713786 
L 311.434318 -71.931673 
L 311.434318 -71.931673 
L 311.434318 -72.152717 
L 311.434318 -72.152717 
L 311.434318 -72.376989 
L 311.434318 -72.376989 
L 311.434318 -72.604559 
L 311.434318 -72.604559 
L 311.434318 -72.8355 
L 311.434318 -72.8355 
L 311.434318 -73.069888 
L 311.434318 -73.069888 
L 311.434318 -73.307801 
L 311.434318 -73.307801 
L 311.434318 -73.549318 
L 311.434318 -73.549318 
L 311.434318 -73.794523 
L 311.434318 -73.794523 
L 311.434318 -74.0435 
L 311.434318 -74.0435 
L 311.434318 -74.296337 
L 311.434318 -74.296337 
L 311.434318 -74.553125 
L 311.434318 -74.553125 
L 311.434318 -74.813957 
L 311.434318 -74.813957 
L 311.434318 -75.078929 
L 311.434318 -75.078929 
L 311.434318 -75.34814 
L 311.434318 -75.34814 
L 311.434318 -77.058424 
L 311.434318 -77.058424 
L 311.434318 -78.950332 
L 311.434318 -78.950332 
L 311.434318 -79.285357 
L 311.434318 -79.285357 
L 311.434318 -79.626419 
L 311.434318 -79.626419 
L 311.434318 -79.973682 
L 311.434318 -79.973682 
L 311.434318 -80.327317 
L 311.434318 -80.327317 
L 311.434318 -80.6875 
L 311.434318 -80.6875 
L 311.434318 -81.054416 
L 311.434318 -81.054416 
L 311.434318 -81.428255 
L 311.434318 -81.428255 
L 311.434318 -81.809214 
L 311.434318 -81.809214 
L 311.434318 -82.593325 
L 311.434318 -82.593325 
L 311.434318 -82.996912 
L 311.434318 -82.996912 
L 311.434318 -83.40849 
L 311.434318 -83.40849 
L 311.434318 -83.8283 
L 311.434318 -83.8283 
L 311.434318 -84.256591 
L 311.434318 -84.256591 
L 311.434318 -84.693622 
L 311.434318 -84.693622 
L 311.434318 -85.139665 
L 311.434318 -85.139665 
L 311.434318 -85.595 
L 311.434318 -85.595 
L 311.434318 -86.059921 
L 311.434318 -86.059921 
L 311.434318 -86.534734 
L 311.434318 -86.534734 
L 311.434318 -87.019758 
L 291.143409 -87.019758 
L 291.143409 -83.970109 
L 291.143409 -83.970109 
L 291.143409 -84.9155 
L 291.143409 -84.9155 
L 291.143409 -85.404129 
L 291.143409 -85.404129 
L 291.143409 -85.903864 
L 291.143409 -85.903864 
L 291.143409 -86.415086 
L 291.143409 -86.415086 
L 291.143409 -86.938198 
L 291.143409 -86.938198 
L 291.143409 -87.473618 
L 291.143409 -87.473618 
L 291.143409 -88.021786 
L 291.143409 -88.021786 
L 291.143409 -88.583163 
L 291.143409 -88.583163 
L 291.143409 -89.158232 
L 291.143409 -89.158232 
L 291.143409 -89.7475 
L 291.143409 -89.7475 
L 291.143409 -90.3515 
L 291.143409 -90.3515 
L 291.143409 -90.970791 
L 270.8525 -90.970791 
L 270.8525 -91.959331 
L 270.8525 -91.959331 
L 270.8525 -92.681214 
L 270.8525 -92.681214 
L 270.8525 -93.424022 
L 270.8525 -93.424022 
L 270.8525 -94.188676 
L 270.8525 -94.188676 
L 270.8525 -94.976157 
L 270.8525 -94.976157 
L 270.8525 -95.7875 
L 270.8525 -95.7875 
L 270.8525 -96.623808 
L 270.8525 -96.623808 
L 270.8525 -97.48625 
L 270.8525 -97.48625 
L 270.8525 -98.376071 
L 270.8525 -98.376071 
L 270.8525 -99.294597 
L 270.8525 -99.294597 
L 270.8525 -100.243238 
L 270.8525 -100.243238 
L 270.8525 -101.2235 
L 250.561591 -101.2235 
L 250.561591 -96.708856 
L 250.561591 -96.708856 
L 250.561591 -97.661983 
L 250.561591 -97.661983 
L 250.561591 -98.648553 
L 250.561591 -98.648553 
L 250.561591 -100.729318 
L 250.561591 -100.729318 
L 250.561591 -101.8275 
L 250.561591 -101.8275 
L 250.561591 -102.967123 
L 250.561591 -102.967123 
L 250.561591 -104.150577 
L 250.561591 -104.150577 
L 250.561591 -109.3775 
L 230.270682 -109.3775 
L 230.270682 -103.88367 
L 230.270682 -103.88367 
L 230.270682 -105.241413 
L 230.270682 -105.241413 
L 230.270682 -106.6595 
L 230.270682 -106.6595 
L 230.270682 -108.142045 
L 230.270682 -108.142045 
L 230.270682 -109.693547 
L 230.270682 -109.693547 
L 230.270682 -111.318929 
L 209.979773 -111.318929 
L 209.979773 -108.332115 
L 209.979773 -108.332115 
L 209.979773 -118.171029 
L 209.979773 -118.171029 
L 209.979773 -120.496591 
L 209.979773 -120.496591 
L 209.979773 -122.9675 
L 209.979773 -122.9675 
L 209.979773 -125.597823 
L 209.979773 -125.597823 
L 209.979773 -131.402672 
L 209.979773 -131.402672 
L 209.979773 -134.616071 
L 209.979773 -134.616071 
L 209.979773 -138.0675 
L 209.979773 -138.0675 
L 209.979773 -141.784423 
L 209.979773 -141.784423 
L 209.979773 -145.7987 
L 209.979773 -145.7987 
L 209.979773 -150.1475 
L 209.979773 -150.1475 
L 209.979773 -154.874457 
L 209.979773 -154.874457 
L 209.979773 -160.031136 
L 209.979773 -160.031136 
L 209.979773 -165.678929 
L 209.979773 -165.678929 
L 209.979773 -171.8915 
L 209.979773 -171.8915 
L 209.979773 -178.758026 
L 209.979773 -178.758026 
L 209.979773 -186.3875 
L 209.979773 -186.3875 
L 209.979773 -194.914559 
L 209.979773 -194.914559 
L 209.979773 -204.5075 
L 209.979773 -204.5075 
L 209.979773 -215.3795 
L 209.979773 -215.3795 
L 209.979773 -227.804643 
L 209.979773 -227.804643 
L 209.979773 -242.141346 
L 209.979773 -242.141346 
L 209.979773 -258.8675 
L 189.688864 -258.8675 
L 189.688864 -248.983864 
L 189.688864 -248.983864 
L 189.688864 -269.7395 
L 169.397955 -269.7395 
L 169.397955 -258.8675 
L 149.107045 -258.8675 
L 149.107045 -245.2775 
L 128.816136 -245.2775 
L 128.816136 -227.804643 
L 108.525227 -227.804643 
L 108.525227 -204.5075 
L 108.525227 -204.5075 
L 108.525227 -237.1235 
L 88.234318 -237.1235 
L 88.234318 -204.5075 
L 88.234318 -204.5075 
L 88.234318 -258.8675 
L 67.943409 -258.8675 
L 67.943409 -204.5075 
L 47.6525 -204.5075 
L 47.6525 -367.5875 
L 47.6525 -41.4275 
L 47.6525 -41.4275 
L 47.6525 -41.4275 
L 67.943409 -41.4275 
L 67.943409 -41.4275 
L 88.234318 -41.4275 
L 88.234318 -41.4275 
L 88.234318 -41.4275 
L 88.234318 -41.4275 
L 108.525227 -41.4275 
L 108.525227 -41.4275 
L 108.525227 -41.4275 
L 108.525227 -41.4275 
L 128.816136 -41.4275 
L 128.816136 -41.4275 
L 149.107045 -41.4275 
L 149.107045 -41.4275 
L 169.397955 -41.4275 
L 169.397955 -41.4275 
L 189.688864 -41.4275 
L 189.688864 -41.4275 
L 189.688864 -41.4275 
L 189.688864 -41.4275 
L 209.979773 -41.4275 
L 209.979773 -41.4275 
L 209.979773 -41.4275 
L 209.979773 -41.4275 
L 209.979773 -41.4275 
L 209.979773 -41.4275 
L 209.979773 -41.4275 
L 209.979773 -41.4275 
L 209.979773 -41.4275 
L 209.979773 -41.4275 
L 209.979773 -41.4275 
L 209.979773 -41.4275 
L 209.979773 -41.4275 
L 209.979773 -41.4275 
L 209.979773 -41.4275 
L 209.979773 -41.4275 
L 209.979773 -41.4275 
L 209.979773 -41.4275 
L 209.979773 -41.4275 
L 209.979773 -41.4275 
L 209.979773 -41.4275 
L 209.979773 -41.4275 
L 209.979773 -41.4275 
L 209.979773 -41.4275 
L 209.979773 -41.4275 
L 209.979773 -41.4275 
L 209.979773 -41.4275 
L 209.979773 -41.4275 
L 209.979773 -41.4275 
L 209.979773 -41.4275 
L 209.979773 -41.4275 
L 209.979773 -41.4275 
L 209.979773 -41.4275 
L 209.979773 -41.4275 
L 209.979773 -41.4275 
L 209.979773 -41.4275 
L 209.979773 -41.4275 
L 209.979773 -41.4275 
L 209.979773 -41.4275 
L 209.979773 -41.4275 
L 209.979773 -41.4275 
L 209.979773 -41.4275 
L 209.979773 -41.4275 
L 209.979773 -41.4275 
L 209.979773 -41.4275 
L 209.979773 -41.4275 
L 230.270682 -41.4275 
L 230.270682 -41.4275 
L 230.270682 -41.4275 
L 230.270682 -41.4275 
L 230.270682 -41.4275 
L 230.270682 -41.4275 
L 230.270682 -41.4275 
L 230.270682 -41.4275 
L 230.270682 -41.4275 
L 230.270682 -41.4275 
L 230.270682 -41.4275 
L 230.270682 -41.4275 
L 250.561591 -41.4275 
L 250.561591 -41.4275 
L 250.561591 -41.4275 
L 250.561591 -41.4275 
L 250.561591 -41.4275 
L 250.561591 -41.4275 
L 250.561591 -41.4275 
L 250.561591 -41.4275 
L 250.561591 -41.4275 
L 250.561591 -41.4275 
L 250.561591 -41.4275 
L 250.561591 -41.4275 
L 250.561591 -41.4275 
L 250.561591 -41.4275 
L 250.561591 -41.4275 
L 250.561591 -41.4275 
L 270.8525 -41.4275 
L 270.8525 -41.4275 
L 270.8525 -41.4275 
L 270.8525 -41.4275 
L 270.8525 -41.4275 
L 270.8525 -41.4275 
L 270.8525 -41.4275 
L 270.8525 -41.4275 
L 270.8525 -41.4275 
L 270.8525 -41.4275 
L 270.8525 -41.4275 
L 270.8525 -41.4275 
L 270.8525 -41.4275 
L 270.8525 -41.4275 
L 270.8525 -41.4275 
L 270.8525 -41.4275 
L 270.8525 -41.4275 
L 270.8525 -41.4275 
L 270.8525 -41.4275 
L 270.8525 -41.4275 
L 270.8525 -41.4275 
L 270.8525 -41.4275 
L 270.8525 -41.4275 
L 270.8525 -41.4275 
L 291.143409 -41.4275 
L 291.143409 -41.4275 
L 291.143409 -41.4275 
L 291.143409 -41.4275 
L 291.143409 -41.4275 
L 291.143409 -41.4275 
L 291.143409 -41.4275 
L 291.143409 -41.4275 
L 291.143409 -41.4275 
L 291.143409 -41.4275 
L 291.143409 -41.4275 
L 291.143409 -41.4275 
L 291.143409 -41.4275 
L 291.143409 -41.4275 
L 291.143409 -41.4275 
L 291.143409 -41.4275 
L 291.143409 -41.4275 
L 291.143409 -41.4275 
L 291.143409 -41.4275 
L 291.143409 -41.4275 
L 291.143409 -41.4275 
L 291.143409 -41.4275 
L 291.143409 -41.4275 
L 291.143409 -41.4275 
L 291.143409 -41.4275 
L 291.143409 -41.4275 
L 311.434318 -41.4275 
L 311.434318 -41.4275 
L 311.434318 -41.4275 
L 311.434318 -41.4275 
L 311.434318 -41.4275 
L 311.434318 -41.4275 
L 311.434318 -41.4275 
L 311.434318 -41.4275 
L 311.434318 -41.4275 
L 311.434318 -41.4275 
L 311.434318 -41.4275 
L 311.434318 -41.4275 
L 311.434318 -41.4275 
L 311.434318 -41.4275 
L 311.434318 -41.4275 
L 311.434318 -41.4275 
L 311.434318 -41.4275 
L 311.434318 -41.4275 
L 311.434318 -41.4275 
L 311.434318 -41.4275 
L 311.434318 -41.4275 
L 311.434318 -41.4275 
L 311.434318 -41.4275 
L 311.434318 -41.4275 
L 311.434318 -41.4275 
L 311.434318 -41.4275 
L 311.434318 -41.4275 
L 311.434318 -41.4275 
L 311.434318 -41.4275 
L 311.434318 -41.4275 
L 311.434318 -41.4275 
L 311.434318 -41.4275 
L 311.434318 -41.4275 
L 311.434318 -41.4275 
L 311.434318 -41.4275 
L 311.434318 -41.4275 
L 311.434318 -41.4275 
L 311.434318 -41.4275 
L 311.434318 -41.4275 
L 311.434318 -41.4275 
L 311.434318 -41.4275 
L 311.434318 -41.4275 
L 311.434318 -41.4275 
L 311.434318 -41.4275 
L 311.434318 -41.4275 
L 311.434318 -41.4275 
L 311.434318 -41.4275 
L 311.434318 -41.4275 
L 311.434318 -41.4275 
L 311.434318 -41.4275 
L 311.434318 -41.4275 
L 311.434318 -41.4275 
L 311.434318 -41.4275 
L 311.434318 -41.4275 
L 311.434318 -41.4275 
L 311.434318 -41.4275 
L 311.434318 -41.4275 
L 311.434318 -41.4275 
L 311.434318 -41.4275 
L 311.434318 -41.4275 
L 311.434318 -41.4275 
L 311.434318 -41.4275 
L 311.434318 -41.4275 
L 311.434318 -41.4275 
L 311.434318 -41.4275 
L 311.434318 -41.4275 
L 311.434318 -41.4275 
L 311.434318 -41.4275 
L 311.434318 -41.4275 
L 311.434318 -41.4275 
L 311.434318 -41.4275 
L 311.434318 -41.4275 
L 311.434318 -41.4275 
L 311.434318 -41.4275 
L 331.725227 -41.4275 
L 331.725227 -41.4275 
L 331.725227 -41.4275 
L 331.725227 -41.4275 
L 331.725227 -41.4275 
L 331.725227 -41.4275 
L 331.725227 -41.4275 
L 331.725227 -41.4275 
L 331.725227 -41.4275 
L 331.725227 -41.4275 
L 331.725227 -41.4275 
L 331.725227 -41.4275 
L 331.725227 -41.4275 
L 331.725227 -41.4275 
L 331.725227 -41.4275 
L 331.725227 -41.4275 
L 331.725227 -41.4275 
L 331.725227 -41.4275 
L 331.725227 -41.4275 
L 331.725227 -41.4275 
L 331.725227 -41.4275 
L 331.725227 -41.4275 
L 331.725227 -41.4275 
L 331.725227 -41.4275 
L 331.725227 -41.4275 
L 331.725227 -41.4275 
L 331.725227 -41.4275 
L 331.725227 -41.4275 
L 331.725227 -41.4275 
L 331.725227 -41.4275 
L 331.725227 -41.4275 
L 331.725227 -41.4275 
L 352.016136 -41.4275 
L 352.016136 -41.4275 
L 352.016136 -41.4275 
L 352.016136 -41.4275 
L 352.016136 -41.4275 
L 352.016136 -41.4275 
L 352.016136 -41.4275 
L 352.016136 -41.4275 
L 372.307045 -41.4275 
L 372.307045 -41.4275 
L 372.307045 -41.4275 
L 372.307045 -41.4275 
L 372.307045 -41.4275 
L 372.307045 -41.4275 
L 372.307045 -41.4275 
L 372.307045 -41.4275 
L 372.307045 -41.4275 
L 372.307045 -41.4275 
L 372.307045 -41.4275 
L 372.307045 -41.4275 
L 372.307045 -41.4275 
L 372.307045 -41.4275 
L 372.307045 -41.4275 
L 372.307045 -41.4275 
L 372.307045 -41.4275 
L 372.307045 -41.4275 
L 372.307045 -41.4275 
L 372.307045 -41.4275 
L 372.307045 -41.4275 
L 372.307045 -41.4275 
L 372.307045 -41.4275 
L 372.307045 -41.4275 
L 372.307045 -41.4275 
L 372.307045 -41.4275 
L 372.307045 -41.4275 
L 372.307045 -41.4275 
L 372.307045 -41.4275 
L 372.307045 -41.4275 
L 392.597955 -41.4275 
L 392.597955 -41.4275 
L 412.888864 -41.4275 
L 412.888864 -41.4275 
L 412.888864 -41.4275 
L 412.888864 -41.4275 
L 412.888864 -41.4275 
L 412.888864 -41.4275 
L 412.888864 -41.4275 
L 412.888864 -41.4275 
L 412.888864 -41.4275 
L 412.888864 -41.4275 
L 412.888864 -41.4275 
L 412.888864 -41.4275 
L 412.888864 -41.4275 
L 412.888864 -41.4275 
L 412.888864 -41.4275 
L 412.888864 -41.4275 
L 412.888864 -41.4275 
L 412.888864 -41.4275 
L 412.888864 -41.4275 
L 412.888864 -41.4275 
L 412.888864 -41.4275 
L 412.888864 -41.4275 
L 412.888864 -41.4275 
L 412.888864 -41.4275 
L 412.888864 -41.4275 
L 412.888864 -41.4275 
L 412.888864 -41.4275 
L 412.888864 -41.4275 
L 412.888864 -41.4275 
L 412.888864 -41.4275 
L 412.888864 -41.4275 
L 412.888864 -41.4275 
L 412.888864 -41.4275 
L 412.888864 -41.4275 
L 412.888864 -41.4275 
L 412.888864 -41.4275 
L 412.888864 -41.4275 
L 412.888864 -41.4275 
L 412.888864 -41.4275 
L 412.888864 -41.4275 
L 412.888864 -41.4275 
L 412.888864 -41.4275 
L 412.888864 -41.4275 
L 412.888864 -41.4275 
L 412.888864 -41.4275 
L 412.888864 -41.4275 
L 412.888864 -41.4275 
L 412.888864 -41.4275 
L 412.888864 -41.4275 
L 412.888864 -41.4275 
L 412.888864 -41.4275 
L 412.888864 -41.4275 
L 412.888864 -41.4275 
L 412.888864 -41.4275 
L 412.888864 -41.4275 
L 412.888864 -41.4275 
L 412.888864 -41.4275 
L 412.888864 -41.4275 
L 412.888864 -41.4275 
L 412.888864 -41.4275 
L 412.888864 -41.4275 
L 412.888864 -41.4275 
L 412.888864 -41.4275 
L 412.888864 -41.4275 
L 412.888864 -41.4275 
L 412.888864 -41.4275 
L 412.888864 -41.4275 
L 412.888864 -41.4275 
L 412.888864 -41.4275 
L 412.888864 -41.4275 
L 412.888864 -41.4275 
L 412.888864 -41.4275 
L 412.888864 -41.4275 
L 412.888864 -41.4275 
L 412.888864 -41.4275 
L 412.888864 -41.4275 
L 412.888864 -41.4275 
L 412.888864 -41.4275 
L 412.888864 -41.4275 
L 412.888864 -41.4275 
L 412.888864 -41.4275 
L 412.888864 -41.4275 
L 412.888864 -41.4275 
L 412.888864 -41.4275 
L 412.888864 -41.4275 
L 412.888864 -41.4275 
L 412.888864 -41.4275 
L 412.888864 -41.4275 
L 412.888864 -41.4275 
L 412.888864 -41.4275 
L 412.888864 -41.4275 
L 412.888864 -41.4275 
L 412.888864 -41.4275 
L 412.888864 -41.4275 
L 412.888864 -41.4275 
L 412.888864 -41.4275 
L 412.888864 -41.4275 
L 412.888864 -41.4275 
L 412.888864 -41.4275 
L 412.888864 -41.4275 
L 412.888864 -41.4275 
L 412.888864 -41.4275 
L 433.179773 -41.4275 
L 433.179773 -41.4275 
L 433.179773 -41.4275 
L 433.179773 -41.4275 
L 433.179773 -41.4275 
L 433.179773 -41.4275 
L 433.179773 -41.4275 
L 433.179773 -41.4275 
L 433.179773 -41.4275 
L 433.179773 -41.4275 
L 433.179773 -41.4275 
L 433.179773 -41.4275 
L 433.179773 -41.4275 
L 433.179773 -41.4275 
L 433.179773 -41.4275 
L 433.179773 -41.4275 
L 433.179773 -41.4275 
L 433.179773 -41.4275 
L 433.179773 -41.4275 
L 433.179773 -41.4275 
L 433.179773 -41.4275 
L 433.179773 -41.4275 
L 433.179773 -41.4275 
L 433.179773 -41.4275 
L 433.179773 -41.4275 
L 433.179773 -41.4275 
L 433.179773 -41.4275 
L 433.179773 -41.4275 
L 433.179773 -41.4275 
L 433.179773 -41.4275 
L 433.179773 -41.4275 
L 433.179773 -41.4275 
L 433.179773 -41.4275 
L 433.179773 -41.4275 
L 433.179773 -41.4275 
L 433.179773 -41.4275 
L 433.179773 -41.4275 
L 433.179773 -41.4275 
L 433.179773 -41.4275 
L 433.179773 -41.4275 
L 433.179773 -41.4275 
L 433.179773 -41.4275 
L 433.179773 -41.4275 
L 433.179773 -41.4275 
L 433.179773 -41.4275 
L 433.179773 -41.4275 
L 433.179773 -41.4275 
L 433.179773 -41.4275 
L 433.179773 -41.4275 
L 433.179773 -41.4275 
L 433.179773 -41.4275 
L 433.179773 -41.4275 
L 433.179773 -41.4275 
L 433.179773 -41.4275 
L 433.179773 -41.4275 
L 433.179773 -41.4275 
L 433.179773 -41.4275 
L 433.179773 -41.4275 
L 433.179773 -41.4275 
L 433.179773 -41.4275 
L 433.179773 -41.4275 
L 433.179773 -41.4275 
L 433.179773 -41.4275 
L 433.179773 -41.4275 
L 433.179773 -41.4275 
L 433.179773 -41.4275 
L 433.179773 -41.4275 
L 433.179773 -41.4275 
L 433.179773 -41.4275 
L 433.179773 -41.4275 
L 433.179773 -41.4275 
L 433.179773 -41.4275 
L 433.179773 -41.4275 
L 433.179773 -41.4275 
L 433.179773 -41.4275 
L 433.179773 -41.4275 
L 433.179773 -41.4275 
L 433.179773 -41.4275 
L 433.179773 -41.4275 
L 433.179773 -41.4275 
L 433.179773 -41.4275 
L 433.179773 -41.4275 
L 433.179773 -41.4275 
L 433.179773 -41.4275 
L 433.179773 -41.4275 
L 433.179773 -41.4275 
L 433.179773 -41.4275 
L 433.179773 -41.4275 
L 433.179773 -41.4275 
L 433.179773 -41.4275 
L 433.179773 -41.4275 
L 433.179773 -41.4275 
L 433.179773 -41.4275 
L 433.179773 -41.4275 
L 433.179773 -41.4275 
L 433.179773 -41.4275 
L 433.179773 -41.4275 
L 433.179773 -41.4275 
L 433.179773 -41.4275 
L 433.179773 -41.4275 
L 433.179773 -41.4275 
L 433.179773 -41.4275 
L 433.179773 -41.4275 
L 433.179773 -41.4275 
L 433.179773 -41.4275 
L 433.179773 -41.4275 
L 433.179773 -41.4275 
L 433.179773 -41.4275 
L 433.179773 -41.4275 
L 433.179773 -41.4275 
L 433.179773 -41.4275 
L 433.179773 -41.4275 
L 433.179773 -41.4275 
L 433.179773 -41.4275 
L 433.179773 -41.4275 
L 433.179773 -41.4275 
L 433.179773 -41.4275 
L 433.179773 -41.4275 
L 433.179773 -41.4275 
L 433.179773 -41.4275 
L 433.179773 -41.4275 
L 433.179773 -41.4275 
L 453.470682 -41.4275 
L 453.470682 -41.4275 
L 453.470682 -41.4275 
L 453.470682 -41.4275 
L 453.470682 -41.4275 
L 453.470682 -41.4275 
L 453.470682 -41.4275 
L 453.470682 -41.4275 
L 453.470682 -41.4275 
L 453.470682 -41.4275 
L 453.470682 -41.4275 
L 453.470682 -41.4275 
L 453.470682 -41.4275 
L 453.470682 -41.4275 
L 453.470682 -41.4275 
L 453.470682 -41.4275 
L 453.470682 -41.4275 
L 453.470682 -41.4275 
L 453.470682 -41.4275 
L 453.470682 -41.4275 
L 453.470682 -41.4275 
L 453.470682 -41.4275 
L 453.470682 -41.4275 
L 453.470682 -41.4275 
L 453.470682 -41.4275 
L 453.470682 -41.4275 
L 453.470682 -41.4275 
L 453.470682 -41.4275 
L 453.470682 -41.4275 
L 453.470682 -41.4275 
L 453.470682 -41.4275 
L 453.470682 -41.4275 
L 453.470682 -41.4275 
L 453.470682 -41.4275 
L 453.470682 -41.4275 
L 453.470682 -41.4275 
L 453.470682 -41.4275 
L 453.470682 -41.4275 
L 453.470682 -41.4275 
L 453.470682 -41.4275 
L 453.470682 -41.4275 
L 453.470682 -41.4275 
L 453.470682 -41.4275 
L 453.470682 -41.4275 
L 453.470682 -41.4275 
L 453.470682 -41.4275 
L 453.470682 -41.4275 
L 453.470682 -41.4275 
L 453.470682 -41.4275 
L 453.470682 -41.4275 
L 453.470682 -41.4275 
L 453.470682 -41.4275 
L 453.470682 -41.4275 
L 453.470682 -41.4275 
L 453.470682 -41.4275 
L 453.470682 -41.4275 
L 453.470682 -41.4275 
L 453.470682 -41.4275 
L 453.470682 -41.4275 
L 453.470682 -41.4275 
L 453.470682 -41.4275 
L 453.470682 -41.4275 
L 453.470682 -41.4275 
L 453.470682 -41.4275 
L 453.470682 -41.4275 
L 453.470682 -41.4275 
L 453.470682 -41.4275 
L 453.470682 -41.4275 
L 453.470682 -41.4275 
L 453.470682 -41.4275 
L 453.470682 -41.4275 
L 453.470682 -41.4275 
L 453.470682 -41.4275 
L 453.470682 -41.4275 
L 453.470682 -41.4275 
L 453.470682 -41.4275 
L 453.470682 -41.4275 
L 453.470682 -41.4275 
L 453.470682 -41.4275 
L 453.470682 -41.4275 
L 453.470682 -41.4275 
L 453.470682 -41.4275 
L 453.470682 -41.4275 
L 453.470682 -41.4275 
L 453.470682 -41.4275 
L 453.470682 -41.4275 
L 453.470682 -41.4275 
L 453.470682 -41.4275 
L 453.470682 -41.4275 
L 453.470682 -41.4275 
L 473.761591 -41.4275 
L 473.761591 -41.4275 
L 473.761591 -41.4275 
L 473.761591 -41.4275 
L 473.761591 -41.4275 
L 473.761591 -41.4275 
L 473.761591 -41.4275 
L 473.761591 -41.4275 
L 473.761591 -41.4275 
L 473.761591 -41.4275 
L 473.761591 -41.4275 
L 473.761591 -41.4275 
L 473.761591 -41.4275 
L 473.761591 -41.4275 
L 473.761591 -41.4275 
L 473.761591 -41.4275 
L 473.761591 -41.4275 
L 473.761591 -41.4275 
L 473.761591 -41.4275 
L 473.761591 -41.4275 
L 473.761591 -41.4275 
L 473.761591 -41.4275 
L 473.761591 -41.4275 
L 473.761591 -41.4275 
L 473.761591 -41.4275 
L 473.761591 -41.4275 
L 473.761591 -41.4275 
L 473.761591 -41.4275 
L 473.761591 -41.4275 
L 473.761591 -41.4275 
L 473.761591 -41.4275 
L 473.761591 -41.4275 
L 473.761591 -41.4275 
L 473.761591 -41.4275 
L 473.761591 -41.4275 
L 473.761591 -41.4275 
L 473.761591 -41.4275 
L 473.761591 -41.4275 
L 473.761591 -41.4275 
L 473.761591 -41.4275 
L 473.761591 -41.4275 
L 473.761591 -41.4275 
L 473.761591 -41.4275 
L 473.761591 -41.4275 
L 473.761591 -41.4275 
L 473.761591 -41.4275 
L 473.761591 -41.4275 
L 473.761591 -41.4275 
L 473.761591 -41.4275 
L 473.761591 -41.4275 
L 473.761591 -41.4275 
L 473.761591 -41.4275 
L 473.761591 -41.4275 
L 473.761591 -41.4275 
L 473.761591 -41.4275 
L 473.761591 -41.4275 
L 473.761591 -41.4275 
L 473.761591 -41.4275 
L 473.761591 -41.4275 
L 473.761591 -41.4275 
L 473.761591 -41.4275 
L 473.761591 -41.4275 
L 473.761591 -41.4275 
L 473.761591 -41.4275 
L 473.761591 -41.4275 
L 473.761591 -41.4275 
L 473.761591 -41.4275 
L 473.761591 -41.4275 
L 473.761591 -41.4275 
L 473.761591 -41.4275 
L 473.761591 -41.4275 
L 473.761591 -41.4275 
L 473.761591 -41.4275 
L 473.761591 -41.4275 
L 473.761591 -41.4275 
L 473.761591 -41.4275 
L 473.761591 -41.4275 
L 473.761591 -41.4275 
L 473.761591 -41.4275 
L 473.761591 -41.4275 
L 473.761591 -41.4275 
L 473.761591 -41.4275 
L 473.761591 -41.4275 
L 473.761591 -41.4275 
L 473.761591 -41.4275 
L 473.761591 -41.4275 
L 473.761591 -41.4275 
L 473.761591 -41.4275 
L 473.761591 -41.4275 
L 473.761591 -41.4275 
L 473.761591 -41.4275 
L 473.761591 -41.4275 
L 473.761591 -41.4275 
L 473.761591 -41.4275 
L 473.761591 -41.4275 
L 473.761591 -41.4275 
L 473.761591 -41.4275 
L 473.761591 -41.4275 
L 473.761591 -41.4275 
L 473.761591 -41.4275 
L 473.761591 -41.4275 
L 473.761591 -41.4275 
L 473.761591 -41.4275 
L 473.761591 -41.4275 
L 473.761591 -41.4275 
L 473.761591 -41.4275 
L 473.761591 -41.4275 
L 473.761591 -41.4275 
L 473.761591 -41.4275 
L 473.761591 -41.4275 
L 473.761591 -41.4275 
L 473.761591 -41.4275 
L 473.761591 -41.4275 
L 473.761591 -41.4275 
L 473.761591 -41.4275 
L 473.761591 -41.4275 
L 473.761591 -41.4275 
L 473.761591 -41.4275 
L 473.761591 -41.4275 
L 473.761591 -41.4275 
L 473.761591 -41.4275 
L 473.761591 -41.4275 
L 473.761591 -41.4275 
L 473.761591 -41.4275 
L 473.761591 -41.4275 
L 473.761591 -41.4275 
L 473.761591 -41.4275 
L 473.761591 -41.4275 
L 473.761591 -41.4275 
L 473.761591 -41.4275 
L 473.761591 -41.4275 
L 473.761591 -41.4275 
L 473.761591 -41.4275 
L 473.761591 -41.4275 
L 473.761591 -41.4275 
L 473.761591 -41.4275 
L 473.761591 -41.4275 
L 473.761591 -41.4275 
L 473.761591 -41.4275 
L 473.761591 -41.4275 
L 473.761591 -41.4275 
L 473.761591 -41.4275 
L 473.761591 -41.4275 
L 473.761591 -41.4275 
L 473.761591 -41.4275 
L 473.761591 -41.4275 
L 473.761591 -41.4275 
L 473.761591 -41.4275 
L 473.761591 -41.4275 
L 473.761591 -41.4275 
L 473.761591 -41.4275 
L 473.761591 -41.4275 
L 473.761591 -41.4275 
L 473.761591 -41.4275 
L 473.761591 -41.4275 
L 473.761591 -41.4275 
L 473.761591 -41.4275 
L 473.761591 -41.4275 
L 473.761591 -41.4275 
L 473.761591 -41.4275 
L 473.761591 -41.4275 
L 473.761591 -41.4275 
L 473.761591 -41.4275 
L 473.761591 -41.4275 
L 473.761591 -41.4275 
L 473.761591 -41.4275 
L 473.761591 -41.4275 
L 473.761591 -41.4275 
L 473.761591 -41.4275 
L 473.761591 -41.4275 
L 473.761591 -41.4275 
L 473.761591 -41.4275 
L 473.761591 -41.4275 
L 473.761591 -41.4275 
L 473.761591 -41.4275 
L 473.761591 -41.4275 
L 473.761591 -41.4275 
L 473.761591 -41.4275 
L 473.761591 -41.4275 
L 473.761591 -41.4275 
L 473.761591 -41.4275 
L 473.761591 -41.4275 
L 473.761591 -41.4275 
L 473.761591 -41.4275 
L 473.761591 -41.4275 
L 473.761591 -41.4275 
L 473.761591 -41.4275 
L 473.761591 -41.4275 
L 473.761591 -41.4275 
L 473.761591 -41.4275 
L 473.761591 -41.4275 
L 473.761591 -41.4275 
L 473.761591 -41.4275 
L 473.761591 -41.4275 
L 473.761591 -41.4275 
L 473.761591 -41.4275 
L 473.761591 -41.4275 
L 473.761591 -41.4275 
L 473.761591 -41.4275 
L 473.761591 -41.4275 
L 473.761591 -41.4275 
L 473.761591 -41.4275 
L 473.761591 -41.4275 
L 473.761591 -41.4275 
L 473.761591 -41.4275 
L 473.761591 -41.4275 
L 473.761591 -41.4275 
L 473.761591 -41.4275 
L 473.761591 -41.4275 
L 473.761591 -41.4275 
L 473.761591 -41.4275 
L 473.761591 -41.4275 
L 473.761591 -41.4275 
L 473.761591 -41.4275 
L 473.761591 -41.4275 
L 473.761591 -41.4275 
L 473.761591 -41.4275 
L 473.761591 -41.4275 
L 473.761591 -41.4275 
L 473.761591 -41.4275 
L 473.761591 -41.4275 
L 473.761591 -41.4275 
L 473.761591 -41.4275 
L 473.761591 -41.4275 
L 473.761591 -41.4275 
L 473.761591 -41.4275 
L 473.761591 -41.4275 
L 473.761591 -41.4275 
L 473.761591 -41.4275 
L 473.761591 -41.4275 
L 473.761591 -41.4275 
L 473.761591 -41.4275 
L 473.761591 -41.4275 
L 473.761591 -41.4275 
L 473.761591 -41.4275 
L 473.761591 -41.4275 
L 473.761591 -41.4275 
L 473.761591 -41.4275 
L 473.761591 -41.4275 
L 473.761591 -41.4275 
L 473.761591 -41.4275 
L 473.761591 -41.4275 
L 473.761591 -41.4275 
L 473.761591 -41.4275 
L 473.761591 -41.4275 
L 473.761591 -41.4275 
L 473.761591 -41.4275 
L 473.761591 -41.4275 
L 473.761591 -41.4275 
L 473.761591 -41.4275 
L 473.761591 -41.4275 
L 473.761591 -41.4275 
L 473.761591 -41.4275 
L 473.761591 -41.4275 
L 473.761591 -41.4275 
L 473.761591 -41.4275 
L 473.761591 -41.4275 
L 473.761591 -41.4275 
L 473.761591 -41.4275 
L 473.761591 -41.4275 
L 473.761591 -41.4275 
L 473.761591 -41.4275 
L 473.761591 -41.4275 
L 473.761591 -41.4275 
L 473.761591 -41.4275 
L 473.761591 -41.4275 
L 473.761591 -41.4275 
L 473.761591 -41.4275 
L 473.761591 -41.4275 
L 473.761591 -41.4275 
L 473.761591 -41.4275 
L 473.761591 -41.4275 
L 473.761591 -41.4275 
L 473.761591 -41.4275 
L 473.761591 -41.4275 
L 473.761591 -41.4275 
L 473.761591 -41.4275 
L 473.761591 -41.4275 
L 473.761591 -41.4275 
L 473.761591 -41.4275 
L 473.761591 -41.4275 
L 473.761591 -41.4275 
L 473.761591 -41.4275 
L 473.761591 -41.4275 
L 473.761591 -41.4275 
L 473.761591 -41.4275 
L 473.761591 -41.4275 
L 473.761591 -41.4275 
L 473.761591 -41.4275 
L 473.761591 -41.4275 
L 473.761591 -41.4275 
L 473.761591 -41.4275 
L 473.761591 -41.4275 
L 473.761591 -41.4275 
L 473.761591 -41.4275 
L 473.761591 -41.4275 
L 473.761591 -41.4275 
L 473.761591 -41.4275 
L 473.761591 -41.4275 
L 473.761591 -41.4275 
L 473.761591 -41.4275 
L 473.761591 -41.4275 
L 473.761591 -41.4275 
L 473.761591 -41.4275 
L 473.761591 -41.4275 
L 473.761591 -41.4275 
L 494.0525 -41.4275 
z
" id="m0ab078fadd" style="stroke:#dc143c;stroke-opacity:0.3;"/>
    </defs>
    <g clip-path="url(#pef64463cc2)">
     <use style="fill:#dc143c;fill-opacity:0.3;stroke:#dc143c;stroke-opacity:0.3;" x="0" xlink:href="#m0ab078fadd" y="410.8615"/>
    </g>
   </g>
   <g id="matplotlib.axis_1">
    <g id="xtick_1">
     <g id="line2d_1">
      <defs>
       <path d="M 0 0 
L 0 3.5 
" id="mc821f33218" style="stroke:#000000;stroke-width:0.8;"/>
      </defs>
      <g>
       <use style="stroke:#000000;stroke-width:0.8;" x="47.6525" xlink:href="#mc821f33218" y="369.434"/>
      </g>
     </g>
     <g id="text_1">
      <!-- 0.0 -->
      <defs>
       <path d="M 31.78125 66.40625 
Q 24.171875 66.40625 20.328125 58.90625 
Q 16.5 51.421875 16.5 36.375 
Q 16.5 21.390625 20.328125 13.890625 
Q 24.171875 6.390625 31.78125 6.390625 
Q 39.453125 6.390625 43.28125 13.890625 
Q 47.125 21.390625 47.125 36.375 
Q 47.125 51.421875 43.28125 58.90625 
Q 39.453125 66.40625 31.78125 66.40625 
z
M 31.78125 74.21875 
Q 44.046875 74.21875 50.515625 64.515625 
Q 56.984375 54.828125 56.984375 36.375 
Q 56.984375 17.96875 50.515625 8.265625 
Q 44.046875 -1.421875 31.78125 -1.421875 
Q 19.53125 -1.421875 13.0625 8.265625 
Q 6.59375 17.96875 6.59375 36.375 
Q 6.59375 54.828125 13.0625 64.515625 
Q 19.53125 74.21875 31.78125 74.21875 
z
" id="DejaVuSans-48"/>
       <path d="M 10.6875 12.40625 
L 21 12.40625 
L 21 0 
L 10.6875 0 
z
" id="DejaVuSans-46"/>
      </defs>
      <g transform="translate(39.700938 384.032437)scale(0.1 -0.1)">
       <use xlink:href="#DejaVuSans-48"/>
       <use x="63.623047" xlink:href="#DejaVuSans-46"/>
       <use x="95.410156" xlink:href="#DejaVuSans-48"/>
      </g>
     </g>
    </g>
    <g id="xtick_2">
     <g id="line2d_2">
      <g>
       <use style="stroke:#000000;stroke-width:0.8;" x="136.9325" xlink:href="#mc821f33218" y="369.434"/>
      </g>
     </g>
     <g id="text_2">
      <!-- 0.2 -->
      <defs>
       <path d="M 19.1875 8.296875 
L 53.609375 8.296875 
L 53.609375 0 
L 7.328125 0 
L 7.328125 8.296875 
Q 12.9375 14.109375 22.625 23.890625 
Q 32.328125 33.6875 34.8125 36.53125 
Q 39.546875 41.84375 41.421875 45.53125 
Q 43.3125 49.21875 43.3125 52.78125 
Q 43.3125 58.59375 39.234375 62.25 
Q 35.15625 65.921875 28.609375 65.921875 
Q 23.96875 65.921875 18.8125 64.3125 
Q 13.671875 62.703125 7.8125 59.421875 
L 7.8125 69.390625 
Q 13.765625 71.78125 18.9375 73 
Q 24.125 74.21875 28.421875 74.21875 
Q 39.75 74.21875 46.484375 68.546875 
Q 53.21875 62.890625 53.21875 53.421875 
Q 53.21875 48.921875 51.53125 44.890625 
Q 49.859375 40.875 45.40625 35.40625 
Q 44.1875 33.984375 37.640625 27.21875 
Q 31.109375 20.453125 19.1875 8.296875 
z
" id="DejaVuSans-50"/>
      </defs>
      <g transform="translate(128.980938 384.032437)scale(0.1 -0.1)">
       <use xlink:href="#DejaVuSans-48"/>
       <use x="63.623047" xlink:href="#DejaVuSans-46"/>
       <use x="95.410156" xlink:href="#DejaVuSans-50"/>
      </g>
     </g>
    </g>
    <g id="xtick_3">
     <g id="line2d_3">
      <g>
       <use style="stroke:#000000;stroke-width:0.8;" x="226.2125" xlink:href="#mc821f33218" y="369.434"/>
      </g>
     </g>
     <g id="text_3">
      <!-- 0.4 -->
      <defs>
       <path d="M 37.796875 64.3125 
L 12.890625 25.390625 
L 37.796875 25.390625 
z
M 35.203125 72.90625 
L 47.609375 72.90625 
L 47.609375 25.390625 
L 58.015625 25.390625 
L 58.015625 17.1875 
L 47.609375 17.1875 
L 47.609375 0 
L 37.796875 0 
L 37.796875 17.1875 
L 4.890625 17.1875 
L 4.890625 26.703125 
z
" id="DejaVuSans-52"/>
      </defs>
      <g transform="translate(218.260938 384.032437)scale(0.1 -0.1)">
       <use xlink:href="#DejaVuSans-48"/>
       <use x="63.623047" xlink:href="#DejaVuSans-46"/>
       <use x="95.410156" xlink:href="#DejaVuSans-52"/>
      </g>
     </g>
    </g>
    <g id="xtick_4">
     <g id="line2d_4">
      <g>
       <use style="stroke:#000000;stroke-width:0.8;" x="315.4925" xlink:href="#mc821f33218" y="369.434"/>
      </g>
     </g>
     <g id="text_4">
      <!-- 0.6 -->
      <defs>
       <path d="M 33.015625 40.375 
Q 26.375 40.375 22.484375 35.828125 
Q 18.609375 31.296875 18.609375 23.390625 
Q 18.609375 15.53125 22.484375 10.953125 
Q 26.375 6.390625 33.015625 6.390625 
Q 39.65625 6.390625 43.53125 10.953125 
Q 47.40625 15.53125 47.40625 23.390625 
Q 47.40625 31.296875 43.53125 35.828125 
Q 39.65625 40.375 33.015625 40.375 
z
M 52.59375 71.296875 
L 52.59375 62.3125 
Q 48.875 64.0625 45.09375 64.984375 
Q 41.3125 65.921875 37.59375 65.921875 
Q 27.828125 65.921875 22.671875 59.328125 
Q 17.53125 52.734375 16.796875 39.40625 
Q 19.671875 43.65625 24.015625 45.921875 
Q 28.375 48.1875 33.59375 48.1875 
Q 44.578125 48.1875 50.953125 41.515625 
Q 57.328125 34.859375 57.328125 23.390625 
Q 57.328125 12.15625 50.6875 5.359375 
Q 44.046875 -1.421875 33.015625 -1.421875 
Q 20.359375 -1.421875 13.671875 8.265625 
Q 6.984375 17.96875 6.984375 36.375 
Q 6.984375 53.65625 15.1875 63.9375 
Q 23.390625 74.21875 37.203125 74.21875 
Q 40.921875 74.21875 44.703125 73.484375 
Q 48.484375 72.75 52.59375 71.296875 
z
" id="DejaVuSans-54"/>
      </defs>
      <g transform="translate(307.540938 384.032437)scale(0.1 -0.1)">
       <use xlink:href="#DejaVuSans-48"/>
       <use x="63.623047" xlink:href="#DejaVuSans-46"/>
       <use x="95.410156" xlink:href="#DejaVuSans-54"/>
      </g>
     </g>
    </g>
    <g id="xtick_5">
     <g id="line2d_5">
      <g>
       <use style="stroke:#000000;stroke-width:0.8;" x="404.7725" xlink:href="#mc821f33218" y="369.434"/>
      </g>
     </g>
     <g id="text_5">
      <!-- 0.8 -->
      <defs>
       <path d="M 31.78125 34.625 
Q 24.75 34.625 20.71875 30.859375 
Q 16.703125 27.09375 16.703125 20.515625 
Q 16.703125 13.921875 20.71875 10.15625 
Q 24.75 6.390625 31.78125 6.390625 
Q 38.8125 6.390625 42.859375 10.171875 
Q 46.921875 13.96875 46.921875 20.515625 
Q 46.921875 27.09375 42.890625 30.859375 
Q 38.875 34.625 31.78125 34.625 
z
M 21.921875 38.8125 
Q 15.578125 40.375 12.03125 44.71875 
Q 8.5 49.078125 8.5 55.328125 
Q 8.5 64.0625 14.71875 69.140625 
Q 20.953125 74.21875 31.78125 74.21875 
Q 42.671875 74.21875 48.875 69.140625 
Q 55.078125 64.0625 55.078125 55.328125 
Q 55.078125 49.078125 51.53125 44.71875 
Q 48 40.375 41.703125 38.8125 
Q 48.828125 37.15625 52.796875 32.3125 
Q 56.78125 27.484375 56.78125 20.515625 
Q 56.78125 9.90625 50.3125 4.234375 
Q 43.84375 -1.421875 31.78125 -1.421875 
Q 19.734375 -1.421875 13.25 4.234375 
Q 6.78125 9.90625 6.78125 20.515625 
Q 6.78125 27.484375 10.78125 32.3125 
Q 14.796875 37.15625 21.921875 38.8125 
z
M 18.3125 54.390625 
Q 18.3125 48.734375 21.84375 45.5625 
Q 25.390625 42.390625 31.78125 42.390625 
Q 38.140625 42.390625 41.71875 45.5625 
Q 45.3125 48.734375 45.3125 54.390625 
Q 45.3125 60.0625 41.71875 63.234375 
Q 38.140625 66.40625 31.78125 66.40625 
Q 25.390625 66.40625 21.84375 63.234375 
Q 18.3125 60.0625 18.3125 54.390625 
z
" id="DejaVuSans-56"/>
      </defs>
      <g transform="translate(396.820938 384.032437)scale(0.1 -0.1)">
       <use xlink:href="#DejaVuSans-48"/>
       <use x="63.623047" xlink:href="#DejaVuSans-46"/>
       <use x="95.410156" xlink:href="#DejaVuSans-56"/>
      </g>
     </g>
    </g>
    <g id="xtick_6">
     <g id="line2d_6">
      <g>
       <use style="stroke:#000000;stroke-width:0.8;" x="494.0525" xlink:href="#mc821f33218" y="369.434"/>
      </g>
     </g>
     <g id="text_6">
      <!-- 1.0 -->
      <defs>
       <path d="M 12.40625 8.296875 
L 28.515625 8.296875 
L 28.515625 63.921875 
L 10.984375 60.40625 
L 10.984375 69.390625 
L 28.421875 72.90625 
L 38.28125 72.90625 
L 38.28125 8.296875 
L 54.390625 8.296875 
L 54.390625 0 
L 12.40625 0 
z
" id="DejaVuSans-49"/>
      </defs>
      <g transform="translate(486.100937 384.032437)scale(0.1 -0.1)">
       <use xlink:href="#DejaVuSans-49"/>
       <use x="63.623047" xlink:href="#DejaVuSans-46"/>
       <use x="95.410156" xlink:href="#DejaVuSans-48"/>
      </g>
     </g>
    </g>
    <g id="text_7">
     <!-- Recall -->
     <defs>
      <path d="M 44.390625 34.1875 
Q 47.5625 33.109375 50.5625 29.59375 
Q 53.5625 26.078125 56.59375 19.921875 
L 66.609375 0 
L 56 0 
L 46.6875 18.703125 
Q 43.0625 26.03125 39.671875 28.421875 
Q 36.28125 30.8125 30.421875 30.8125 
L 19.671875 30.8125 
L 19.671875 0 
L 9.8125 0 
L 9.8125 72.90625 
L 32.078125 72.90625 
Q 44.578125 72.90625 50.734375 67.671875 
Q 56.890625 62.453125 56.890625 51.90625 
Q 56.890625 45.015625 53.6875 40.46875 
Q 50.484375 35.9375 44.390625 34.1875 
z
M 19.671875 64.796875 
L 19.671875 38.921875 
L 32.078125 38.921875 
Q 39.203125 38.921875 42.84375 42.21875 
Q 46.484375 45.515625 46.484375 51.90625 
Q 46.484375 58.296875 42.84375 61.546875 
Q 39.203125 64.796875 32.078125 64.796875 
z
" id="DejaVuSans-82"/>
      <path d="M 56.203125 29.59375 
L 56.203125 25.203125 
L 14.890625 25.203125 
Q 15.484375 15.921875 20.484375 11.0625 
Q 25.484375 6.203125 34.421875 6.203125 
Q 39.59375 6.203125 44.453125 7.46875 
Q 49.3125 8.734375 54.109375 11.28125 
L 54.109375 2.78125 
Q 49.265625 0.734375 44.1875 -0.34375 
Q 39.109375 -1.421875 33.890625 -1.421875 
Q 20.796875 -1.421875 13.15625 6.1875 
Q 5.515625 13.8125 5.515625 26.8125 
Q 5.515625 40.234375 12.765625 48.109375 
Q 20.015625 56 32.328125 56 
Q 43.359375 56 49.78125 48.890625 
Q 56.203125 41.796875 56.203125 29.59375 
z
M 47.21875 32.234375 
Q 47.125 39.59375 43.09375 43.984375 
Q 39.0625 48.390625 32.421875 48.390625 
Q 24.90625 48.390625 20.390625 44.140625 
Q 15.875 39.890625 15.1875 32.171875 
z
" id="DejaVuSans-101"/>
      <path d="M 48.78125 52.59375 
L 48.78125 44.1875 
Q 44.96875 46.296875 41.140625 47.34375 
Q 37.3125 48.390625 33.40625 48.390625 
Q 24.65625 48.390625 19.8125 42.84375 
Q 14.984375 37.3125 14.984375 27.296875 
Q 14.984375 17.28125 19.8125 11.734375 
Q 24.65625 6.203125 33.40625 6.203125 
Q 37.3125 6.203125 41.140625 7.25 
Q 44.96875 8.296875 48.78125 10.40625 
L 48.78125 2.09375 
Q 45.015625 0.34375 40.984375 -0.53125 
Q 36.96875 -1.421875 32.421875 -1.421875 
Q 20.0625 -1.421875 12.78125 6.34375 
Q 5.515625 14.109375 5.515625 27.296875 
Q 5.515625 40.671875 12.859375 48.328125 
Q 20.21875 56 33.015625 56 
Q 37.15625 56 41.109375 55.140625 
Q 45.0625 54.296875 48.78125 52.59375 
z
" id="DejaVuSans-99"/>
      <path d="M 34.28125 27.484375 
Q 23.390625 27.484375 19.1875 25 
Q 14.984375 22.515625 14.984375 16.5 
Q 14.984375 11.71875 18.140625 8.90625 
Q 21.296875 6.109375 26.703125 6.109375 
Q 34.1875 6.109375 38.703125 11.40625 
Q 43.21875 16.703125 43.21875 25.484375 
L 43.21875 27.484375 
z
M 52.203125 31.203125 
L 52.203125 0 
L 43.21875 0 
L 43.21875 8.296875 
Q 40.140625 3.328125 35.546875 0.953125 
Q 30.953125 -1.421875 24.3125 -1.421875 
Q 15.921875 -1.421875 10.953125 3.296875 
Q 6 8.015625 6 15.921875 
Q 6 25.140625 12.171875 29.828125 
Q 18.359375 34.515625 30.609375 34.515625 
L 43.21875 34.515625 
L 43.21875 35.40625 
Q 43.21875 41.609375 39.140625 45 
Q 35.0625 48.390625 27.6875 48.390625 
Q 23 48.390625 18.546875 47.265625 
Q 14.109375 46.140625 10.015625 43.890625 
L 10.015625 52.203125 
Q 14.9375 54.109375 19.578125 55.046875 
Q 24.21875 56 28.609375 56 
Q 40.484375 56 46.34375 49.84375 
Q 52.203125 43.703125 52.203125 31.203125 
z
" id="DejaVuSans-97"/>
      <path d="M 9.421875 75.984375 
L 18.40625 75.984375 
L 18.40625 0 
L 9.421875 0 
z
" id="DejaVuSans-108"/>
     </defs>
     <g transform="translate(249.657812 400.749937)scale(0.14 -0.14)">
      <use xlink:href="#DejaVuSans-82"/>
      <use x="69.419922" xlink:href="#DejaVuSans-101"/>
      <use x="130.943359" xlink:href="#DejaVuSans-99"/>
      <use x="185.923828" xlink:href="#DejaVuSans-97"/>
      <use x="247.203125" xlink:href="#DejaVuSans-108"/>
      <use x="274.986328" xlink:href="#DejaVuSans-108"/>
     </g>
    </g>
   </g>
   <g id="matplotlib.axis_2">
    <g id="ytick_1">
     <g id="line2d_7">
      <defs>
       <path d="M 0 0 
L -3.5 0 
" id="mf806742719" style="stroke:#000000;stroke-width:0.8;"/>
      </defs>
      <g>
       <use style="stroke:#000000;stroke-width:0.8;" x="47.6525" xlink:href="#mf806742719" y="369.434"/>
      </g>
     </g>
     <g id="text_8">
      <!-- 0.0 -->
      <g transform="translate(24.749375 373.233219)scale(0.1 -0.1)">
       <use xlink:href="#DejaVuSans-48"/>
       <use x="63.623047" xlink:href="#DejaVuSans-46"/>
       <use x="95.410156" xlink:href="#DejaVuSans-48"/>
      </g>
     </g>
    </g>
    <g id="ytick_2">
     <g id="line2d_8">
      <g>
       <use style="stroke:#000000;stroke-width:0.8;" x="47.6525" xlink:href="#mf806742719" y="304.202"/>
      </g>
     </g>
     <g id="text_9">
      <!-- 0.2 -->
      <g transform="translate(24.749375 308.001219)scale(0.1 -0.1)">
       <use xlink:href="#DejaVuSans-48"/>
       <use x="63.623047" xlink:href="#DejaVuSans-46"/>
       <use x="95.410156" xlink:href="#DejaVuSans-50"/>
      </g>
     </g>
    </g>
    <g id="ytick_3">
     <g id="line2d_9">
      <g>
       <use style="stroke:#000000;stroke-width:0.8;" x="47.6525" xlink:href="#mf806742719" y="238.97"/>
      </g>
     </g>
     <g id="text_10">
      <!-- 0.4 -->
      <g transform="translate(24.749375 242.769219)scale(0.1 -0.1)">
       <use xlink:href="#DejaVuSans-48"/>
       <use x="63.623047" xlink:href="#DejaVuSans-46"/>
       <use x="95.410156" xlink:href="#DejaVuSans-52"/>
      </g>
     </g>
    </g>
    <g id="ytick_4">
     <g id="line2d_10">
      <g>
       <use style="stroke:#000000;stroke-width:0.8;" x="47.6525" xlink:href="#mf806742719" y="173.738"/>
      </g>
     </g>
     <g id="text_11">
      <!-- 0.6 -->
      <g transform="translate(24.749375 177.537219)scale(0.1 -0.1)">
       <use xlink:href="#DejaVuSans-48"/>
       <use x="63.623047" xlink:href="#DejaVuSans-46"/>
       <use x="95.410156" xlink:href="#DejaVuSans-54"/>
      </g>
     </g>
    </g>
    <g id="ytick_5">
     <g id="line2d_11">
      <g>
       <use style="stroke:#000000;stroke-width:0.8;" x="47.6525" xlink:href="#mf806742719" y="108.506"/>
      </g>
     </g>
     <g id="text_12">
      <!-- 0.8 -->
      <g transform="translate(24.749375 112.305219)scale(0.1 -0.1)">
       <use xlink:href="#DejaVuSans-48"/>
       <use x="63.623047" xlink:href="#DejaVuSans-46"/>
       <use x="95.410156" xlink:href="#DejaVuSans-56"/>
      </g>
     </g>
    </g>
    <g id="ytick_6">
     <g id="line2d_12">
      <g>
       <use style="stroke:#000000;stroke-width:0.8;" x="47.6525" xlink:href="#mf806742719" y="43.274"/>
      </g>
     </g>
     <g id="text_13">
      <!-- 1.0 -->
      <g transform="translate(24.749375 47.073219)scale(0.1 -0.1)">
       <use xlink:href="#DejaVuSans-49"/>
       <use x="63.623047" xlink:href="#DejaVuSans-46"/>
       <use x="95.410156" xlink:href="#DejaVuSans-48"/>
      </g>
     </g>
    </g>
    <g id="text_14">
     <!-- Precision or F1 Score -->
     <defs>
      <path d="M 19.671875 64.796875 
L 19.671875 37.40625 
L 32.078125 37.40625 
Q 38.96875 37.40625 42.71875 40.96875 
Q 46.484375 44.53125 46.484375 51.125 
Q 46.484375 57.671875 42.71875 61.234375 
Q 38.96875 64.796875 32.078125 64.796875 
z
M 9.8125 72.90625 
L 32.078125 72.90625 
Q 44.34375 72.90625 50.609375 67.359375 
Q 56.890625 61.8125 56.890625 51.125 
Q 56.890625 40.328125 50.609375 34.8125 
Q 44.34375 29.296875 32.078125 29.296875 
L 19.671875 29.296875 
L 19.671875 0 
L 9.8125 0 
z
" id="DejaVuSans-80"/>
      <path d="M 41.109375 46.296875 
Q 39.59375 47.171875 37.8125 47.578125 
Q 36.03125 48 33.890625 48 
Q 26.265625 48 22.1875 43.046875 
Q 18.109375 38.09375 18.109375 28.8125 
L 18.109375 0 
L 9.078125 0 
L 9.078125 54.6875 
L 18.109375 54.6875 
L 18.109375 46.1875 
Q 20.953125 51.171875 25.484375 53.578125 
Q 30.03125 56 36.53125 56 
Q 37.453125 56 38.578125 55.875 
Q 39.703125 55.765625 41.0625 55.515625 
z
" id="DejaVuSans-114"/>
      <path d="M 9.421875 54.6875 
L 18.40625 54.6875 
L 18.40625 0 
L 9.421875 0 
z
M 9.421875 75.984375 
L 18.40625 75.984375 
L 18.40625 64.59375 
L 9.421875 64.59375 
z
" id="DejaVuSans-105"/>
      <path d="M 44.28125 53.078125 
L 44.28125 44.578125 
Q 40.484375 46.53125 36.375 47.5 
Q 32.28125 48.484375 27.875 48.484375 
Q 21.1875 48.484375 17.84375 46.4375 
Q 14.5 44.390625 14.5 40.28125 
Q 14.5 37.15625 16.890625 35.375 
Q 19.28125 33.59375 26.515625 31.984375 
L 29.59375 31.296875 
Q 39.15625 29.25 43.1875 25.515625 
Q 47.21875 21.78125 47.21875 15.09375 
Q 47.21875 7.46875 41.1875 3.015625 
Q 35.15625 -1.421875 24.609375 -1.421875 
Q 20.21875 -1.421875 15.453125 -0.5625 
Q 10.6875 0.296875 5.421875 2 
L 5.421875 11.28125 
Q 10.40625 8.6875 15.234375 7.390625 
Q 20.0625 6.109375 24.8125 6.109375 
Q 31.15625 6.109375 34.5625 8.28125 
Q 37.984375 10.453125 37.984375 14.40625 
Q 37.984375 18.0625 35.515625 20.015625 
Q 33.0625 21.96875 24.703125 23.78125 
L 21.578125 24.515625 
Q 13.234375 26.265625 9.515625 29.90625 
Q 5.8125 33.546875 5.8125 39.890625 
Q 5.8125 47.609375 11.28125 51.796875 
Q 16.75 56 26.8125 56 
Q 31.78125 56 36.171875 55.265625 
Q 40.578125 54.546875 44.28125 53.078125 
z
" id="DejaVuSans-115"/>
      <path d="M 30.609375 48.390625 
Q 23.390625 48.390625 19.1875 42.75 
Q 14.984375 37.109375 14.984375 27.296875 
Q 14.984375 17.484375 19.15625 11.84375 
Q 23.34375 6.203125 30.609375 6.203125 
Q 37.796875 6.203125 41.984375 11.859375 
Q 46.1875 17.53125 46.1875 27.296875 
Q 46.1875 37.015625 41.984375 42.703125 
Q 37.796875 48.390625 30.609375 48.390625 
z
M 30.609375 56 
Q 42.328125 56 49.015625 48.375 
Q 55.71875 40.765625 55.71875 27.296875 
Q 55.71875 13.875 49.015625 6.21875 
Q 42.328125 -1.421875 30.609375 -1.421875 
Q 18.84375 -1.421875 12.171875 6.21875 
Q 5.515625 13.875 5.515625 27.296875 
Q 5.515625 40.765625 12.171875 48.375 
Q 18.84375 56 30.609375 56 
z
" id="DejaVuSans-111"/>
      <path d="M 54.890625 33.015625 
L 54.890625 0 
L 45.90625 0 
L 45.90625 32.71875 
Q 45.90625 40.484375 42.875 44.328125 
Q 39.84375 48.1875 33.796875 48.1875 
Q 26.515625 48.1875 22.3125 43.546875 
Q 18.109375 38.921875 18.109375 30.90625 
L 18.109375 0 
L 9.078125 0 
L 9.078125 54.6875 
L 18.109375 54.6875 
L 18.109375 46.1875 
Q 21.34375 51.125 25.703125 53.5625 
Q 30.078125 56 35.796875 56 
Q 45.21875 56 50.046875 50.171875 
Q 54.890625 44.34375 54.890625 33.015625 
z
" id="DejaVuSans-110"/>
      <path id="DejaVuSans-32"/>
      <path d="M 9.8125 72.90625 
L 51.703125 72.90625 
L 51.703125 64.59375 
L 19.671875 64.59375 
L 19.671875 43.109375 
L 48.578125 43.109375 
L 48.578125 34.8125 
L 19.671875 34.8125 
L 19.671875 0 
L 9.8125 0 
z
" id="DejaVuSans-70"/>
      <path d="M 53.515625 70.515625 
L 53.515625 60.890625 
Q 47.90625 63.578125 42.921875 64.890625 
Q 37.9375 66.21875 33.296875 66.21875 
Q 25.25 66.21875 20.875 63.09375 
Q 16.5 59.96875 16.5 54.203125 
Q 16.5 49.359375 19.40625 46.890625 
Q 22.3125 44.4375 30.421875 42.921875 
L 36.375 41.703125 
Q 47.40625 39.59375 52.65625 34.296875 
Q 57.90625 29 57.90625 20.125 
Q 57.90625 9.515625 50.796875 4.046875 
Q 43.703125 -1.421875 29.984375 -1.421875 
Q 24.8125 -1.421875 18.96875 -0.25 
Q 13.140625 0.921875 6.890625 3.21875 
L 6.890625 13.375 
Q 12.890625 10.015625 18.65625 8.296875 
Q 24.421875 6.59375 29.984375 6.59375 
Q 38.421875 6.59375 43.015625 9.90625 
Q 47.609375 13.234375 47.609375 19.390625 
Q 47.609375 24.75 44.3125 27.78125 
Q 41.015625 30.8125 33.5 32.328125 
L 27.484375 33.5 
Q 16.453125 35.6875 11.515625 40.375 
Q 6.59375 45.0625 6.59375 53.421875 
Q 6.59375 63.09375 13.40625 68.65625 
Q 20.21875 74.21875 32.171875 74.21875 
Q 37.3125 74.21875 42.625 73.28125 
Q 47.953125 72.359375 53.515625 70.515625 
z
" id="DejaVuSans-83"/>
     </defs>
     <g transform="translate(17.837812 279.933844)rotate(-90)scale(0.14 -0.14)">
      <use xlink:href="#DejaVuSans-80"/>
      <use x="60.287109" xlink:href="#DejaVuSans-114"/>
      <use x="101.369141" xlink:href="#DejaVuSans-101"/>
      <use x="162.892578" xlink:href="#DejaVuSans-99"/>
      <use x="217.873047" xlink:href="#DejaVuSans-105"/>
      <use x="245.65625" xlink:href="#DejaVuSans-115"/>
      <use x="297.755859" xlink:href="#DejaVuSans-105"/>
      <use x="325.539062" xlink:href="#DejaVuSans-111"/>
      <use x="386.720703" xlink:href="#DejaVuSans-110"/>
      <use x="450.099609" xlink:href="#DejaVuSans-32"/>
      <use x="481.886719" xlink:href="#DejaVuSans-111"/>
      <use x="543.068359" xlink:href="#DejaVuSans-114"/>
      <use x="584.181641" xlink:href="#DejaVuSans-32"/>
      <use x="615.96875" xlink:href="#DejaVuSans-70"/>
      <use x="673.488281" xlink:href="#DejaVuSans-49"/>
      <use x="737.111328" xlink:href="#DejaVuSans-32"/>
      <use x="768.898438" xlink:href="#DejaVuSans-83"/>
      <use x="832.375" xlink:href="#DejaVuSans-99"/>
      <use x="887.355469" xlink:href="#DejaVuSans-111"/>
      <use x="948.537109" xlink:href="#DejaVuSans-114"/>
      <use x="989.619141" xlink:href="#DejaVuSans-101"/>
     </g>
    </g>
   </g>
   <g id="line2d_13">
    <path clip-path="url(#pef64463cc2)" d="M 494.0525 357.454835 
L 473.761591 357.454835 
L 473.761591 357.980221 
L 473.761591 354.076691 
L 453.470682 354.076691 
L 453.470682 354.775124 
L 453.470682 353.166668 
L 433.179773 353.166668 
L 433.179773 353.9414 
L 433.179773 350.655091 
L 412.888864 350.655091 
L 412.888864 351.58938 
L 412.888864 345.174165 
L 392.597955 345.174165 
L 392.597955 344.7908 
L 372.307045 344.7908 
L 372.307045 346.032386 
L 372.307045 343.726808 
L 352.016136 343.726808 
L 352.016136 344.215443 
L 352.016136 343.81934 
L 331.725227 343.81934 
L 331.725227 345.401158 
L 331.725227 342.254 
L 311.434318 342.254 
L 311.434318 323.841742 
L 291.143409 323.841742 
L 291.143409 326.891391 
L 291.143409 319.890709 
L 270.8525 319.890709 
L 270.8525 309.638 
L 250.561591 309.638 
L 250.561591 314.152644 
L 250.561591 301.484 
L 230.270682 301.484 
L 230.270682 306.97783 
L 230.270682 299.542571 
L 209.979773 299.542571 
L 209.979773 302.529385 
L 209.979773 151.994 
L 189.688864 151.994 
L 189.688864 161.877636 
L 189.688864 141.122 
L 169.397955 141.122 
L 169.397955 151.994 
L 149.107045 151.994 
L 149.107045 165.584 
L 128.816136 165.584 
L 128.816136 183.056857 
L 108.525227 183.056857 
L 108.525227 206.354 
L 108.525227 173.738 
L 88.234318 173.738 
L 88.234318 206.354 
L 88.234318 151.994 
L 67.943409 151.994 
L 67.943409 206.354 
L 47.6525 206.354 
L 47.6525 43.274 
L 47.6525 43.274 
" style="fill:none;stroke:#dc143c;stroke-linecap:square;stroke-opacity:0.3;stroke-width:1.5;"/>
   </g>
   <g id="line2d_14">
    <path clip-path="url(#pef64463cc2)" d="M 47.6525 357.670852 
L 494.0525 357.670852 
" style="fill:none;stroke:#ff0000;stroke-dasharray:5.55,2.4;stroke-dashoffset:0;stroke-width:1.5;"/>
   </g>
   <g id="line2d_15">
    <path clip-path="url(#pef64463cc2)" d="M 47.6525 151.994 
L 494.0525 151.994 
" style="fill:none;stroke:#000000;stroke-dasharray:1.5,2.475;stroke-dashoffset:0;stroke-opacity:0.4;stroke-width:1.5;"/>
   </g>
   <g id="line2d_16">
    <path clip-path="url(#pef64463cc2)" d="M 209.979773 369.434 
L 209.979773 43.274 
" style="fill:none;stroke:#000000;stroke-dasharray:1.5,2.475;stroke-dashoffset:0;stroke-opacity:0.4;stroke-width:1.5;"/>
   </g>
   <g id="line2d_17">
    <path clip-path="url(#pef64463cc2)" d="M 494.0525 360.884587 
L 473.761591 381.146931 
L 473.761591 337.645285 
L 453.470682 343.928975 
L 453.470682 335.97253 
L 433.179773 341.828523 
L 433.179773 328.584889 
L 412.888864 334.141423 
L 412.888864 315.082879 
L 392.597955 316.62495 
L 372.307045 322.051 
L 372.307045 316.617526 
L 352.016136 320.152838 
L 352.016136 319.276407 
L 331.725227 325.173559 
L 331.725227 318.457613 
L 311.434318 315.214003 
L 311.434318 292.482584 
L 291.143409 299.86434 
L 291.143409 291.278468 
L 270.8525 293.968983 
L 270.8525 284.347141 
L 250.561591 293.059031 
L 250.561591 281.366231 
L 230.270682 290.879196 
L 230.270682 284.659002 
L 209.979773 292.144161 
L 209.979773 213.171316 
L 189.688864 227.132197 
L 189.688864 219.496559 
L 169.397955 234.444724 
L 149.107045 250.672898 
L 128.816136 268.532123 
L 108.525227 288.547827 
L 108.525227 279.753824 
L 88.234318 303.499789 
L 88.234318 291.884048 
L 67.943409 322.888217 
L 47.6525 369.434 
L 47.6525 369.434 
" style="fill:none;stroke:#1f77b4;stroke-linecap:square;stroke-width:1.5;"/>
   </g>
   <g id="patch_3">
    <path d="M 47.6525 369.434 
L 47.6525 43.274 
" style="fill:none;stroke:#000000;stroke-linecap:square;stroke-linejoin:miter;stroke-width:0.8;"/>
   </g>
   <g id="patch_4">
    <path d="M 494.0525 369.434 
L 494.0525 43.274 
" style="fill:none;stroke:#000000;stroke-linecap:square;stroke-linejoin:miter;stroke-width:0.8;"/>
   </g>
   <g id="patch_5">
    <path d="M 47.6525 369.434 
L 494.0525 369.434 
" style="fill:none;stroke:#000000;stroke-linecap:square;stroke-linejoin:miter;stroke-width:0.8;"/>
   </g>
   <g id="patch_6">
    <path d="M 47.6525 43.274 
L 494.0525 43.274 
" style="fill:none;stroke:#000000;stroke-linecap:square;stroke-linejoin:miter;stroke-width:0.8;"/>
   </g>
   <g id="text_15">
    <!-- Max F1=0.471 -->
    <defs>
     <path d="M 9.8125 72.90625 
L 24.515625 72.90625 
L 43.109375 23.296875 
L 61.8125 72.90625 
L 76.515625 72.90625 
L 76.515625 0 
L 66.890625 0 
L 66.890625 64.015625 
L 48.09375 14.015625 
L 38.1875 14.015625 
L 19.390625 64.015625 
L 19.390625 0 
L 9.8125 0 
z
" id="DejaVuSans-77"/>
     <path d="M 54.890625 54.6875 
L 35.109375 28.078125 
L 55.90625 0 
L 45.3125 0 
L 29.390625 21.484375 
L 13.484375 0 
L 2.875 0 
L 24.125 28.609375 
L 4.6875 54.6875 
L 15.28125 54.6875 
L 29.78125 35.203125 
L 44.28125 54.6875 
z
" id="DejaVuSans-120"/>
     <path d="M 10.59375 45.40625 
L 73.1875 45.40625 
L 73.1875 37.203125 
L 10.59375 37.203125 
z
M 10.59375 25.484375 
L 73.1875 25.484375 
L 73.1875 17.1875 
L 10.59375 17.1875 
z
" id="DejaVuSans-61"/>
     <path d="M 8.203125 72.90625 
L 55.078125 72.90625 
L 55.078125 68.703125 
L 28.609375 0 
L 18.3125 0 
L 43.21875 64.59375 
L 8.203125 64.59375 
z
" id="DejaVuSans-55"/>
    </defs>
    <g transform="translate(209.979773 212.685341)scale(0.1 -0.1)">
     <use xlink:href="#DejaVuSans-77"/>
     <use x="86.279297" xlink:href="#DejaVuSans-97"/>
     <use x="147.558594" xlink:href="#DejaVuSans-120"/>
     <use x="206.738281" xlink:href="#DejaVuSans-32"/>
     <use x="238.525391" xlink:href="#DejaVuSans-70"/>
     <use x="296.044922" xlink:href="#DejaVuSans-49"/>
     <use x="359.667969" xlink:href="#DejaVuSans-61"/>
     <use x="443.457031" xlink:href="#DejaVuSans-48"/>
     <use x="507.080078" xlink:href="#DejaVuSans-46"/>
     <use x="538.867188" xlink:href="#DejaVuSans-52"/>
     <use x="602.490234" xlink:href="#DejaVuSans-55"/>
     <use x="666.113281" xlink:href="#DejaVuSans-49"/>
    </g>
   </g>
   <g id="text_16">
    <!-- SR.HSE Neural Network -->
    <defs>
     <path d="M 9.8125 72.90625 
L 19.671875 72.90625 
L 19.671875 43.015625 
L 55.515625 43.015625 
L 55.515625 72.90625 
L 65.375 72.90625 
L 65.375 0 
L 55.515625 0 
L 55.515625 34.71875 
L 19.671875 34.71875 
L 19.671875 0 
L 9.8125 0 
z
" id="DejaVuSans-72"/>
     <path d="M 9.8125 72.90625 
L 55.90625 72.90625 
L 55.90625 64.59375 
L 19.671875 64.59375 
L 19.671875 43.015625 
L 54.390625 43.015625 
L 54.390625 34.71875 
L 19.671875 34.71875 
L 19.671875 8.296875 
L 56.78125 8.296875 
L 56.78125 0 
L 9.8125 0 
z
" id="DejaVuSans-69"/>
     <path d="M 9.8125 72.90625 
L 23.09375 72.90625 
L 55.421875 11.921875 
L 55.421875 72.90625 
L 64.984375 72.90625 
L 64.984375 0 
L 51.703125 0 
L 19.390625 60.984375 
L 19.390625 0 
L 9.8125 0 
z
" id="DejaVuSans-78"/>
     <path d="M 8.5 21.578125 
L 8.5 54.6875 
L 17.484375 54.6875 
L 17.484375 21.921875 
Q 17.484375 14.15625 20.5 10.265625 
Q 23.53125 6.390625 29.59375 6.390625 
Q 36.859375 6.390625 41.078125 11.03125 
Q 45.3125 15.671875 45.3125 23.6875 
L 45.3125 54.6875 
L 54.296875 54.6875 
L 54.296875 0 
L 45.3125 0 
L 45.3125 8.40625 
Q 42.046875 3.421875 37.71875 1 
Q 33.40625 -1.421875 27.6875 -1.421875 
Q 18.265625 -1.421875 13.375 4.4375 
Q 8.5 10.296875 8.5 21.578125 
z
M 31.109375 56 
z
" id="DejaVuSans-117"/>
     <path d="M 18.3125 70.21875 
L 18.3125 54.6875 
L 36.8125 54.6875 
L 36.8125 47.703125 
L 18.3125 47.703125 
L 18.3125 18.015625 
Q 18.3125 11.328125 20.140625 9.421875 
Q 21.96875 7.515625 27.59375 7.515625 
L 36.8125 7.515625 
L 36.8125 0 
L 27.59375 0 
Q 17.1875 0 13.234375 3.875 
Q 9.28125 7.765625 9.28125 18.015625 
L 9.28125 47.703125 
L 2.6875 47.703125 
L 2.6875 54.6875 
L 9.28125 54.6875 
L 9.28125 70.21875 
z
" id="DejaVuSans-116"/>
     <path d="M 4.203125 54.6875 
L 13.1875 54.6875 
L 24.421875 12.015625 
L 35.59375 54.6875 
L 46.1875 54.6875 
L 57.421875 12.015625 
L 68.609375 54.6875 
L 77.59375 54.6875 
L 63.28125 0 
L 52.6875 0 
L 40.921875 44.828125 
L 29.109375 0 
L 18.5 0 
z
" id="DejaVuSans-119"/>
     <path d="M 9.078125 75.984375 
L 18.109375 75.984375 
L 18.109375 31.109375 
L 44.921875 54.6875 
L 56.390625 54.6875 
L 27.390625 29.109375 
L 57.625 0 
L 45.90625 0 
L 18.109375 26.703125 
L 18.109375 0 
L 9.078125 0 
z
" id="DejaVuSans-107"/>
    </defs>
    <g transform="translate(176.6475 19.3575)scale(0.16 -0.16)">
     <use xlink:href="#DejaVuSans-83"/>
     <use x="63.476562" xlink:href="#DejaVuSans-82"/>
     <use x="132.912109" xlink:href="#DejaVuSans-46"/>
     <use x="164.699219" xlink:href="#DejaVuSans-72"/>
     <use x="239.894531" xlink:href="#DejaVuSans-83"/>
     <use x="303.371094" xlink:href="#DejaVuSans-69"/>
     <use x="366.554688" xlink:href="#DejaVuSans-32"/>
     <use x="398.341797" xlink:href="#DejaVuSans-78"/>
     <use x="473.146484" xlink:href="#DejaVuSans-101"/>
     <use x="534.669922" xlink:href="#DejaVuSans-117"/>
     <use x="598.048828" xlink:href="#DejaVuSans-114"/>
     <use x="639.162109" xlink:href="#DejaVuSans-97"/>
     <use x="700.441406" xlink:href="#DejaVuSans-108"/>
     <use x="728.224609" xlink:href="#DejaVuSans-32"/>
     <use x="760.011719" xlink:href="#DejaVuSans-78"/>
     <use x="834.816406" xlink:href="#DejaVuSans-101"/>
     <use x="896.339844" xlink:href="#DejaVuSans-116"/>
     <use x="935.548828" xlink:href="#DejaVuSans-119"/>
     <use x="1017.335938" xlink:href="#DejaVuSans-111"/>
     <use x="1078.517578" xlink:href="#DejaVuSans-114"/>
     <use x="1119.630859" xlink:href="#DejaVuSans-107"/>
    </g>
    <!--  Precision-Recall curve: AP=0.29 -->
    <defs>
     <path d="M 4.890625 31.390625 
L 31.203125 31.390625 
L 31.203125 23.390625 
L 4.890625 23.390625 
z
" id="DejaVuSans-45"/>
     <path d="M 2.984375 54.6875 
L 12.5 54.6875 
L 29.59375 8.796875 
L 46.6875 54.6875 
L 56.203125 54.6875 
L 35.6875 0 
L 23.484375 0 
z
" id="DejaVuSans-118"/>
     <path d="M 11.71875 12.40625 
L 22.015625 12.40625 
L 22.015625 0 
L 11.71875 0 
z
M 11.71875 51.703125 
L 22.015625 51.703125 
L 22.015625 39.3125 
L 11.71875 39.3125 
z
" id="DejaVuSans-58"/>
     <path d="M 34.1875 63.1875 
L 20.796875 26.90625 
L 47.609375 26.90625 
z
M 28.609375 72.90625 
L 39.796875 72.90625 
L 67.578125 0 
L 57.328125 0 
L 50.6875 18.703125 
L 17.828125 18.703125 
L 11.1875 0 
L 0.78125 0 
z
" id="DejaVuSans-65"/>
     <path d="M 10.984375 1.515625 
L 10.984375 10.5 
Q 14.703125 8.734375 18.5 7.8125 
Q 22.3125 6.890625 25.984375 6.890625 
Q 35.75 6.890625 40.890625 13.453125 
Q 46.046875 20.015625 46.78125 33.40625 
Q 43.953125 29.203125 39.59375 26.953125 
Q 35.25 24.703125 29.984375 24.703125 
Q 19.046875 24.703125 12.671875 31.3125 
Q 6.296875 37.9375 6.296875 49.421875 
Q 6.296875 60.640625 12.9375 67.421875 
Q 19.578125 74.21875 30.609375 74.21875 
Q 43.265625 74.21875 49.921875 64.515625 
Q 56.59375 54.828125 56.59375 36.375 
Q 56.59375 19.140625 48.40625 8.859375 
Q 40.234375 -1.421875 26.421875 -1.421875 
Q 22.703125 -1.421875 18.890625 -0.6875 
Q 15.09375 0.046875 10.984375 1.515625 
z
M 30.609375 32.421875 
Q 37.25 32.421875 41.125 36.953125 
Q 45.015625 41.5 45.015625 49.421875 
Q 45.015625 57.28125 41.125 61.84375 
Q 37.25 66.40625 30.609375 66.40625 
Q 23.96875 66.40625 20.09375 61.84375 
Q 16.21875 57.28125 16.21875 49.421875 
Q 16.21875 41.5 20.09375 36.953125 
Q 23.96875 32.421875 30.609375 32.421875 
z
" id="DejaVuSans-57"/>
    </defs>
    <g transform="translate(140.18625 37.274)scale(0.16 -0.16)">
     <use xlink:href="#DejaVuSans-32"/>
     <use x="31.787109" xlink:href="#DejaVuSans-80"/>
     <use x="92.074219" xlink:href="#DejaVuSans-114"/>
     <use x="133.15625" xlink:href="#DejaVuSans-101"/>
     <use x="194.679688" xlink:href="#DejaVuSans-99"/>
     <use x="249.660156" xlink:href="#DejaVuSans-105"/>
     <use x="277.443359" xlink:href="#DejaVuSans-115"/>
     <use x="329.542969" xlink:href="#DejaVuSans-105"/>
     <use x="357.326172" xlink:href="#DejaVuSans-111"/>
     <use x="418.507812" xlink:href="#DejaVuSans-110"/>
     <use x="481.886719" xlink:href="#DejaVuSans-45"/>
     <use x="517.970703" xlink:href="#DejaVuSans-82"/>
     <use x="587.390625" xlink:href="#DejaVuSans-101"/>
     <use x="648.914062" xlink:href="#DejaVuSans-99"/>
     <use x="703.894531" xlink:href="#DejaVuSans-97"/>
     <use x="765.173828" xlink:href="#DejaVuSans-108"/>
     <use x="792.957031" xlink:href="#DejaVuSans-108"/>
     <use x="820.740234" xlink:href="#DejaVuSans-32"/>
     <use x="852.527344" xlink:href="#DejaVuSans-99"/>
     <use x="907.507812" xlink:href="#DejaVuSans-117"/>
     <use x="970.886719" xlink:href="#DejaVuSans-114"/>
     <use x="1012" xlink:href="#DejaVuSans-118"/>
     <use x="1071.179688" xlink:href="#DejaVuSans-101"/>
     <use x="1132.703125" xlink:href="#DejaVuSans-58"/>
     <use x="1166.394531" xlink:href="#DejaVuSans-32"/>
     <use x="1198.181641" xlink:href="#DejaVuSans-65"/>
     <use x="1266.589844" xlink:href="#DejaVuSans-80"/>
     <use x="1326.892578" xlink:href="#DejaVuSans-61"/>
     <use x="1410.681641" xlink:href="#DejaVuSans-48"/>
     <use x="1474.304688" xlink:href="#DejaVuSans-46"/>
     <use x="1506.091797" xlink:href="#DejaVuSans-50"/>
     <use x="1569.714844" xlink:href="#DejaVuSans-57"/>
    </g>
   </g>
   <g id="legend_1">
    <g id="patch_7">
     <path d="M 353.375937 109.9865 
L 487.0525 109.9865 
Q 489.0525 109.9865 489.0525 107.9865 
L 489.0525 50.274 
Q 489.0525 48.274 487.0525 48.274 
L 353.375937 48.274 
Q 351.375937 48.274 351.375937 50.274 
L 351.375937 107.9865 
Q 351.375937 109.9865 353.375937 109.9865 
z
" style="fill:#ffffff;opacity:0.8;stroke:#cccccc;stroke-linejoin:miter;"/>
    </g>
    <g id="line2d_18">
     <path d="M 355.375937 56.372437 
L 375.375937 56.372437 
" style="fill:none;stroke:#ff0000;stroke-dasharray:5.55,2.4;stroke-dashoffset:0;stroke-width:1.5;"/>
    </g>
    <g id="line2d_19"/>
    <g id="text_17">
     <!-- No Skill: 0.036 -->
     <defs>
      <path d="M 40.578125 39.3125 
Q 47.65625 37.796875 51.625 33 
Q 55.609375 28.21875 55.609375 21.1875 
Q 55.609375 10.40625 48.1875 4.484375 
Q 40.765625 -1.421875 27.09375 -1.421875 
Q 22.515625 -1.421875 17.65625 -0.515625 
Q 12.796875 0.390625 7.625 2.203125 
L 7.625 11.71875 
Q 11.71875 9.328125 16.59375 8.109375 
Q 21.484375 6.890625 26.8125 6.890625 
Q 36.078125 6.890625 40.9375 10.546875 
Q 45.796875 14.203125 45.796875 21.1875 
Q 45.796875 27.640625 41.28125 31.265625 
Q 36.765625 34.90625 28.71875 34.90625 
L 20.21875 34.90625 
L 20.21875 43.015625 
L 29.109375 43.015625 
Q 36.375 43.015625 40.234375 45.921875 
Q 44.09375 48.828125 44.09375 54.296875 
Q 44.09375 59.90625 40.109375 62.90625 
Q 36.140625 65.921875 28.71875 65.921875 
Q 24.65625 65.921875 20.015625 65.03125 
Q 15.375 64.15625 9.8125 62.3125 
L 9.8125 71.09375 
Q 15.4375 72.65625 20.34375 73.4375 
Q 25.25 74.21875 29.59375 74.21875 
Q 40.828125 74.21875 47.359375 69.109375 
Q 53.90625 64.015625 53.90625 55.328125 
Q 53.90625 49.265625 50.4375 45.09375 
Q 46.96875 40.921875 40.578125 39.3125 
z
" id="DejaVuSans-51"/>
     </defs>
     <g transform="translate(383.375937 59.872437)scale(0.1 -0.1)">
      <use xlink:href="#DejaVuSans-78"/>
      <use x="74.804688" xlink:href="#DejaVuSans-111"/>
      <use x="135.986328" xlink:href="#DejaVuSans-32"/>
      <use x="167.773438" xlink:href="#DejaVuSans-83"/>
      <use x="231.25" xlink:href="#DejaVuSans-107"/>
      <use x="289.160156" xlink:href="#DejaVuSans-105"/>
      <use x="316.943359" xlink:href="#DejaVuSans-108"/>
      <use x="344.726562" xlink:href="#DejaVuSans-108"/>
      <use x="372.509766" xlink:href="#DejaVuSans-58"/>
      <use x="406.201172" xlink:href="#DejaVuSans-32"/>
      <use x="437.988281" xlink:href="#DejaVuSans-48"/>
      <use x="501.611328" xlink:href="#DejaVuSans-46"/>
      <use x="533.398438" xlink:href="#DejaVuSans-48"/>
      <use x="597.021484" xlink:href="#DejaVuSans-51"/>
      <use x="660.644531" xlink:href="#DejaVuSans-54"/>
     </g>
    </g>
    <g id="line2d_20">
     <path d="M 355.375937 71.050563 
L 375.375937 71.050563 
" style="fill:none;stroke:#000000;stroke-dasharray:1.5,2.475;stroke-dashoffset:0;stroke-opacity:0.4;stroke-width:1.5;"/>
    </g>
    <g id="line2d_21"/>
    <g id="text_18">
     <!-- Prec/Rec @ Max F1 -->
     <defs>
      <path d="M 25.390625 72.90625 
L 33.6875 72.90625 
L 8.296875 -9.28125 
L 0 -9.28125 
z
" id="DejaVuSans-47"/>
      <path d="M 37.203125 26.21875 
Q 37.203125 19.234375 40.671875 15.25 
Q 44.140625 11.28125 50.203125 11.28125 
Q 56.203125 11.28125 59.640625 15.28125 
Q 63.09375 19.28125 63.09375 26.21875 
Q 63.09375 33.0625 59.578125 37.078125 
Q 56.0625 41.109375 50.09375 41.109375 
Q 44.1875 41.109375 40.6875 37.109375 
Q 37.203125 33.109375 37.203125 26.21875 
z
M 63.8125 11.625 
Q 60.890625 7.859375 57.109375 6.078125 
Q 53.328125 4.296875 48.296875 4.296875 
Q 39.890625 4.296875 34.640625 10.375 
Q 29.390625 16.453125 29.390625 26.21875 
Q 29.390625 35.984375 34.65625 42.078125 
Q 39.9375 48.1875 48.296875 48.1875 
Q 53.328125 48.1875 57.125 46.359375 
Q 60.9375 44.53125 63.8125 40.828125 
L 63.8125 47.21875 
L 70.796875 47.21875 
L 70.796875 11.28125 
Q 77.9375 12.359375 81.953125 17.796875 
Q 85.984375 23.25 85.984375 31.890625 
Q 85.984375 37.109375 84.4375 41.703125 
Q 82.90625 46.296875 79.78125 50.203125 
Q 74.703125 56.59375 67.40625 59.984375 
Q 60.109375 63.375 51.515625 63.375 
Q 45.515625 63.375 39.984375 61.78125 
Q 34.46875 60.203125 29.78125 57.078125 
Q 22.125 52.09375 17.796875 44.015625 
Q 13.484375 35.9375 13.484375 26.515625 
Q 13.484375 18.75 16.28125 11.953125 
Q 19.09375 5.171875 24.421875 0 
Q 29.546875 -5.078125 36.28125 -7.734375 
Q 43.015625 -10.40625 50.6875 -10.40625 
Q 56.984375 -10.40625 63.0625 -8.28125 
Q 69.140625 -6.15625 74.21875 -2.203125 
L 78.609375 -7.625 
Q 72.515625 -12.359375 65.3125 -14.875 
Q 58.109375 -17.390625 50.6875 -17.390625 
Q 41.65625 -17.390625 33.640625 -14.1875 
Q 25.640625 -10.984375 19.390625 -4.890625 
Q 13.140625 1.21875 9.859375 9.25 
Q 6.59375 17.28125 6.59375 26.515625 
Q 6.59375 35.40625 9.90625 43.453125 
Q 13.234375 51.515625 19.390625 57.625 
Q 25.6875 63.8125 33.9375 67.109375 
Q 42.1875 70.40625 51.421875 70.40625 
Q 61.765625 70.40625 70.625 66.15625 
Q 79.5 61.921875 85.5 54.109375 
Q 89.15625 49.3125 91.078125 43.703125 
Q 93.015625 38.09375 93.015625 32.078125 
Q 93.015625 19.234375 85.25 11.8125 
Q 77.484375 4.390625 63.8125 4.109375 
z
" id="DejaVuSans-64"/>
     </defs>
     <g transform="translate(383.375937 74.550563)scale(0.1 -0.1)">
      <use xlink:href="#DejaVuSans-80"/>
      <use x="60.287109" xlink:href="#DejaVuSans-114"/>
      <use x="101.369141" xlink:href="#DejaVuSans-101"/>
      <use x="162.892578" xlink:href="#DejaVuSans-99"/>
      <use x="217.873047" xlink:href="#DejaVuSans-47"/>
      <use x="251.564453" xlink:href="#DejaVuSans-82"/>
      <use x="320.984375" xlink:href="#DejaVuSans-101"/>
      <use x="382.507812" xlink:href="#DejaVuSans-99"/>
      <use x="437.488281" xlink:href="#DejaVuSans-32"/>
      <use x="469.275391" xlink:href="#DejaVuSans-64"/>
      <use x="569.275391" xlink:href="#DejaVuSans-32"/>
      <use x="601.0625" xlink:href="#DejaVuSans-77"/>
      <use x="687.341797" xlink:href="#DejaVuSans-97"/>
      <use x="748.621094" xlink:href="#DejaVuSans-120"/>
      <use x="807.800781" xlink:href="#DejaVuSans-32"/>
      <use x="839.587891" xlink:href="#DejaVuSans-70"/>
      <use x="897.107422" xlink:href="#DejaVuSans-49"/>
     </g>
    </g>
    <g id="line2d_22">
     <path d="M 355.375937 85.728687 
L 375.375937 85.728687 
" style="fill:none;stroke:#1f77b4;stroke-linecap:square;stroke-width:1.5;"/>
    </g>
    <g id="line2d_23"/>
    <g id="text_19">
     <!-- Matthew's Corr Coef -->
     <defs>
      <path d="M 54.890625 33.015625 
L 54.890625 0 
L 45.90625 0 
L 45.90625 32.71875 
Q 45.90625 40.484375 42.875 44.328125 
Q 39.84375 48.1875 33.796875 48.1875 
Q 26.515625 48.1875 22.3125 43.546875 
Q 18.109375 38.921875 18.109375 30.90625 
L 18.109375 0 
L 9.078125 0 
L 9.078125 75.984375 
L 18.109375 75.984375 
L 18.109375 46.1875 
Q 21.34375 51.125 25.703125 53.5625 
Q 30.078125 56 35.796875 56 
Q 45.21875 56 50.046875 50.171875 
Q 54.890625 44.34375 54.890625 33.015625 
z
" id="DejaVuSans-104"/>
      <path d="M 17.921875 72.90625 
L 17.921875 45.796875 
L 9.625 45.796875 
L 9.625 72.90625 
z
" id="DejaVuSans-39"/>
      <path d="M 64.40625 67.28125 
L 64.40625 56.890625 
Q 59.421875 61.53125 53.78125 63.8125 
Q 48.140625 66.109375 41.796875 66.109375 
Q 29.296875 66.109375 22.65625 58.46875 
Q 16.015625 50.828125 16.015625 36.375 
Q 16.015625 21.96875 22.65625 14.328125 
Q 29.296875 6.6875 41.796875 6.6875 
Q 48.140625 6.6875 53.78125 8.984375 
Q 59.421875 11.28125 64.40625 15.921875 
L 64.40625 5.609375 
Q 59.234375 2.09375 53.4375 0.328125 
Q 47.65625 -1.421875 41.21875 -1.421875 
Q 24.65625 -1.421875 15.125 8.703125 
Q 5.609375 18.84375 5.609375 36.375 
Q 5.609375 53.953125 15.125 64.078125 
Q 24.65625 74.21875 41.21875 74.21875 
Q 47.75 74.21875 53.53125 72.484375 
Q 59.328125 70.75 64.40625 67.28125 
z
" id="DejaVuSans-67"/>
      <path d="M 37.109375 75.984375 
L 37.109375 68.5 
L 28.515625 68.5 
Q 23.6875 68.5 21.796875 66.546875 
Q 19.921875 64.59375 19.921875 59.515625 
L 19.921875 54.6875 
L 34.71875 54.6875 
L 34.71875 47.703125 
L 19.921875 47.703125 
L 19.921875 0 
L 10.890625 0 
L 10.890625 47.703125 
L 2.296875 47.703125 
L 2.296875 54.6875 
L 10.890625 54.6875 
L 10.890625 58.5 
Q 10.890625 67.625 15.140625 71.796875 
Q 19.390625 75.984375 28.609375 75.984375 
z
" id="DejaVuSans-102"/>
     </defs>
     <g transform="translate(383.375937 89.228687)scale(0.1 -0.1)">
      <use xlink:href="#DejaVuSans-77"/>
      <use x="86.279297" xlink:href="#DejaVuSans-97"/>
      <use x="147.558594" xlink:href="#DejaVuSans-116"/>
      <use x="186.767578" xlink:href="#DejaVuSans-116"/>
      <use x="225.976562" xlink:href="#DejaVuSans-104"/>
      <use x="289.355469" xlink:href="#DejaVuSans-101"/>
      <use x="350.878906" xlink:href="#DejaVuSans-119"/>
      <use x="432.666016" xlink:href="#DejaVuSans-39"/>
      <use x="460.15625" xlink:href="#DejaVuSans-115"/>
      <use x="512.255859" xlink:href="#DejaVuSans-32"/>
      <use x="544.042969" xlink:href="#DejaVuSans-67"/>
      <use x="613.867188" xlink:href="#DejaVuSans-111"/>
      <use x="675.048828" xlink:href="#DejaVuSans-114"/>
      <use x="716.146484" xlink:href="#DejaVuSans-114"/>
      <use x="757.259766" xlink:href="#DejaVuSans-32"/>
      <use x="789.046875" xlink:href="#DejaVuSans-67"/>
      <use x="858.871094" xlink:href="#DejaVuSans-111"/>
      <use x="920.052734" xlink:href="#DejaVuSans-101"/>
      <use x="981.576172" xlink:href="#DejaVuSans-102"/>
     </g>
    </g>
    <g id="patch_8">
     <path d="M 355.375937 103.906813 
L 375.375937 103.906813 
L 375.375937 96.906813 
L 355.375937 96.906813 
z
" style="fill:#dc143c;opacity:0.3;stroke:#dc143c;stroke-linejoin:miter;"/>
    </g>
    <g id="text_20">
     <!-- DNN -->
     <defs>
      <path d="M 19.671875 64.796875 
L 19.671875 8.109375 
L 31.59375 8.109375 
Q 46.6875 8.109375 53.6875 14.9375 
Q 60.6875 21.78125 60.6875 36.53125 
Q 60.6875 51.171875 53.6875 57.984375 
Q 46.6875 64.796875 31.59375 64.796875 
z
M 9.8125 72.90625 
L 30.078125 72.90625 
Q 51.265625 72.90625 61.171875 64.09375 
Q 71.09375 55.28125 71.09375 36.53125 
Q 71.09375 17.671875 61.125 8.828125 
Q 51.171875 0 30.078125 0 
L 9.8125 0 
z
" id="DejaVuSans-68"/>
     </defs>
     <g transform="translate(383.375937 103.906813)scale(0.1 -0.1)">
      <use xlink:href="#DejaVuSans-68"/>
      <use x="77.001953" xlink:href="#DejaVuSans-78"/>
      <use x="151.806641" xlink:href="#DejaVuSans-78"/>
     </g>
    </g>
   </g>
  </g>
 </g>
 <defs>
  <clipPath id="pef64463cc2">
   <rect height="326.16" width="446.4" x="47.6525" y="43.274"/>
  </clipPath>
 </defs>
</svg>
