<?xml version="1.0" encoding="utf-8" standalone="no"?>
<!DOCTYPE svg PUBLIC "-//W3C//DTD SVG 1.1//EN"
  "http://www.w3.org/Graphics/SVG/1.1/DTD/svg11.dtd">
<!-- Created with matplotlib (https://matplotlib.org/) -->
<svg height="410.8615pt" version="1.1" viewBox="0 0 509.204062 410.8615" width="509.204062pt" xmlns="http://www.w3.org/2000/svg" xmlns:xlink="http://www.w3.org/1999/xlink">
 <defs>
  <style type="text/css">
*{stroke-linecap:butt;stroke-linejoin:round;}
  </style>
 </defs>
 <g id="figure_1">
  <g id="patch_1">
   <path d="M 0 410.8615 
L 509.204062 410.8615 
L 509.204062 0 
L 0 0 
z
" style="fill:none;"/>
  </g>
  <g id="axes_1">
   <g id="patch_2">
    <path d="M 47.6525 369.434 
L 494.0525 369.434 
L 494.0525 43.274 
L 47.6525 43.274 
z
" style="fill:none;"/>
   </g>
   <g id="PolyCollection_1">
    <defs>
     <path d="M 494.0525 -41.4275 
L 494.0525 -98.648553 
L 486.6125 -98.648553 
L 486.6125 -97.859875 
L 486.6125 -97.859875 
L 486.6125 -98.025853 
L 486.6125 -98.025853 
L 486.6125 -98.19281 
L 486.6125 -98.19281 
L 486.6125 -98.360754 
L 486.6125 -98.360754 
L 486.6125 -98.529696 
L 486.6125 -98.529696 
L 486.6125 -98.870604 
L 486.6125 -98.870604 
L 486.6125 -99.04259 
L 486.6125 -99.04259 
L 486.6125 -99.215608 
L 486.6125 -99.215608 
L 486.6125 -99.389669 
L 486.6125 -99.389669 
L 486.6125 -99.564781 
L 486.6125 -99.564781 
L 486.6125 -99.740955 
L 486.6125 -99.740955 
L 486.6125 -99.918199 
L 486.6125 -99.918199 
L 486.6125 -100.096524 
L 486.6125 -100.096524 
L 486.6125 -101.751763 
L 486.6125 -101.751763 
L 486.6125 -101.941462 
L 479.1725 -101.941462 
L 479.1725 -101.103462 
L 479.1725 -101.103462 
L 479.1725 -101.29231 
L 479.1725 -101.29231 
L 479.1725 -101.482357 
L 479.1725 -101.482357 
L 479.1725 -101.673615 
L 479.1725 -101.673615 
L 479.1725 -101.866094 
L 479.1725 -101.866094 
L 479.1725 -102.059808 
L 479.1725 -102.059808 
L 479.1725 -102.254767 
L 479.1725 -102.254767 
L 479.1725 -102.450984 
L 479.1725 -102.450984 
L 479.1725 -102.648471 
L 479.1725 -102.648471 
L 479.1725 -102.84724 
L 479.1725 -102.84724 
L 479.1725 -103.047305 
L 479.1725 -103.047305 
L 479.1725 -103.655395 
L 479.1725 -103.655395 
L 479.1725 -103.860767 
L 479.1725 -103.860767 
L 479.1725 -104.0675 
L 479.1725 -104.0675 
L 479.1725 -104.275606 
L 479.1725 -104.275606 
L 479.1725 -104.4851 
L 479.1725 -104.4851 
L 479.1725 -104.695995 
L 479.1725 -104.695995 
L 479.1725 -104.908305 
L 479.1725 -104.908305 
L 479.1725 -105.122045 
L 471.7325 -105.122045 
L 471.7325 -104.235338 
L 471.7325 -104.235338 
L 471.7325 -104.878422 
L 471.7325 -104.878422 
L 471.7325 -106.204922 
L 471.7325 -106.204922 
L 471.7325 -106.431416 
L 471.7325 -106.431416 
L 471.7325 -106.6595 
L 471.7325 -106.6595 
L 471.7325 -106.88919 
L 471.7325 -106.88919 
L 471.7325 -107.120504 
L 471.7325 -107.120504 
L 471.7325 -108.543457 
L 471.7325 -108.543457 
L 471.7325 -108.78663 
L 471.7325 -108.78663 
L 471.7325 -109.031573 
L 471.7325 -109.031573 
L 471.7325 -109.278303 
L 471.7325 -109.278303 
L 471.7325 -109.526841 
L 471.7325 -109.526841 
L 471.7325 -109.777206 
L 471.7325 -109.777206 
L 471.7325 -110.2835 
L 471.7325 -110.2835 
L 471.7325 -110.53947 
L 471.7325 -110.53947 
L 471.7325 -110.797351 
L 471.7325 -110.797351 
L 471.7325 -111.057163 
L 464.2925 -111.057163 
L 464.2925 -118.171029 
L 464.2925 -118.171029 
L 464.2925 -118.494842 
L 464.2925 -118.494842 
L 464.2925 -118.821398 
L 464.2925 -118.821398 
L 464.2925 -119.150734 
L 464.2925 -119.150734 
L 464.2925 -119.482885 
L 464.2925 -119.482885 
L 464.2925 -119.817886 
L 464.2925 -119.817886 
L 464.2925 -120.155776 
L 464.2925 -120.155776 
L 464.2925 -121.187151 
L 464.2925 -121.187151 
L 464.2925 -121.536974 
L 464.2925 -121.536974 
L 464.2925 -121.889879 
L 464.2925 -121.889879 
L 464.2925 -122.245907 
L 464.2925 -122.245907 
L 464.2925 -122.6051 
L 464.2925 -122.6051 
L 464.2925 -122.9675 
L 464.2925 -122.9675 
L 464.2925 -123.33315 
L 464.2925 -123.33315 
L 464.2925 -125.21172 
L 464.2925 -125.21172 
L 464.2925 -125.597823 
L 464.2925 -125.597823 
L 464.2925 -125.9875 
L 464.2925 -125.9875 
L 464.2925 -126.380802 
L 464.2925 -126.380802 
L 464.2925 -126.77778 
L 464.2925 -126.77778 
L 464.2925 -127.178486 
L 464.2925 -127.178486 
L 464.2925 -127.582972 
L 464.2925 -127.582972 
L 464.2925 -127.991291 
L 464.2925 -127.991291 
L 464.2925 -128.4035 
L 464.2925 -128.4035 
L 464.2925 -128.819653 
L 464.2925 -128.819653 
L 464.2925 -130.524866 
L 464.2925 -130.524866 
L 464.2925 -131.848094 
L 449.4125 -131.848094 
L 449.4125 -143.82657 
L 441.9725 -143.82657 
L 441.9725 -143.714364 
L 441.9725 -143.714364 
L 441.9725 -144.323214 
L 441.9725 -144.323214 
L 441.9725 -144.939356 
L 434.5325 -144.939356 
L 434.5325 -144.217318 
L 434.5325 -144.217318 
L 434.5325 -144.844085 
L 419.6525 -144.844085 
L 419.6525 -168.83375 
L 419.6525 -168.83375 
L 419.6525 -169.836949 
L 419.6525 -169.836949 
L 419.6525 -177.3275 
L 419.6525 -177.3275 
L 419.6525 -178.469517 
L 419.6525 -178.469517 
L 419.6525 -179.63089 
L 419.6525 -179.63089 
L 419.6525 -180.812115 
L 419.6525 -180.812115 
L 419.6525 -182.013707 
L 419.6525 -182.013707 
L 419.6525 -183.236196 
L 419.6525 -183.236196 
L 419.6525 -184.480132 
L 419.6525 -184.480132 
L 419.6525 -185.746084 
L 419.6525 -185.746084 
L 419.6525 -187.034643 
L 419.6525 -187.034643 
L 419.6525 -188.346419 
L 419.6525 -188.346419 
L 419.6525 -189.682045 
L 419.6525 -189.682045 
L 419.6525 -191.042179 
L 419.6525 -191.042179 
L 419.6525 -192.4275 
L 419.6525 -192.4275 
L 419.6525 -193.838715 
L 412.2125 -193.838715 
L 412.2125 -192.199575 
L 412.2125 -192.199575 
L 412.2125 -193.6355 
L 412.2125 -193.6355 
L 412.2125 -195.099038 
L 412.2125 -195.099038 
L 412.2125 -196.590995 
L 412.2125 -196.590995 
L 412.2125 -198.112206 
L 412.2125 -198.112206 
L 412.2125 -199.66354 
L 412.2125 -199.66354 
L 412.2125 -201.2459 
L 404.7725 -201.2459 
L 404.7725 -199.565682 
L 404.7725 -199.565682 
L 404.7725 -201.179337 
L 404.7725 -201.179337 
L 404.7725 -202.826263 
L 404.7725 -202.826263 
L 404.7725 -204.5075 
L 404.7725 -204.5075 
L 404.7725 -206.224132 
L 404.7725 -206.224132 
L 404.7725 -207.977287 
L 397.3325 -207.977287 
L 397.3325 -206.261048 
L 397.3325 -206.261048 
L 397.3325 -208.052717 
L 397.3325 -208.052717 
L 397.3325 -209.883764 
L 397.3325 -209.883764 
L 397.3325 -211.7555 
L 397.3325 -211.7555 
L 397.3325 -213.669298 
L 397.3325 -213.669298 
L 397.3325 -215.626591 
L 389.8925 -215.626591 
L 389.8925 -213.879914 
L 382.4525 -213.879914 
L 382.4525 -212.092616 
L 375.0125 -212.092616 
L 375.0125 -210.263265 
L 367.5725 -210.263265 
L 367.5725 -208.390357 
L 367.5725 -208.390357 
L 367.5725 -210.401958 
L 367.5725 -210.401958 
L 367.5725 -212.462622 
L 367.5725 -212.462622 
L 367.5725 -214.574167 
L 367.5725 -214.574167 
L 367.5725 -216.7385 
L 360.1325 -216.7385 
L 360.1325 -214.829019 
L 352.6925 -214.829019 
L 352.6925 -212.870577 
L 345.2525 -212.870577 
L 345.2525 -210.861266 
L 345.2525 -210.861266 
L 345.2525 -213.090658 
L 345.2525 -213.090658 
L 345.2525 -215.3795 
L 337.8125 -215.3795 
L 337.8125 -213.322635 
L 330.3725 -213.322635 
L 330.3725 -211.209418 
L 330.3725 -211.209418 
L 330.3725 -213.5675 
L 330.3725 -213.5675 
L 330.3725 -215.992007 
L 330.3725 -215.992007 
L 330.3725 -218.485786 
L 330.3725 -218.485786 
L 330.3725 -221.051848 
L 330.3725 -221.051848 
L 330.3725 -223.693382 
L 322.9325 -223.693382 
L 322.9325 -221.545709 
L 315.4925 -221.545709 
L 315.4925 -219.332955 
L 315.4925 -219.332955 
L 315.4925 -222.069962 
L 315.4925 -222.069962 
L 315.4925 -224.8925 
L 315.4925 -224.8925 
L 315.4925 -227.804643 
L 315.4925 -227.804643 
L 315.4925 -230.810726 
L 315.4925 -230.810726 
L 315.4925 -233.915369 
L 308.0525 -233.915369 
L 308.0525 -231.6875 
L 308.0525 -231.6875 
L 308.0525 -234.912246 
L 308.0525 -234.912246 
L 308.0525 -238.24819 
L 308.0525 -238.24819 
L 308.0525 -241.701184 
L 308.0525 -241.701184 
L 308.0525 -245.2775 
L 308.0525 -245.2775 
L 308.0525 -248.983864 
L 300.6125 -248.983864 
L 300.6125 -246.7875 
L 293.1725 -246.7875 
L 293.1725 -244.508255 
L 293.1725 -244.508255 
L 293.1725 -248.413654 
L 285.7325 -248.413654 
L 285.7325 -246.076912 
L 278.2925 -246.076912 
L 278.2925 -243.6467 
L 270.8525 -243.6467 
L 270.8525 -241.117296 
L 270.8525 -241.117296 
L 270.8525 -245.2775 
L 270.8525 -245.2775 
L 270.8525 -249.614734 
L 270.8525 -249.614734 
L 270.8525 -254.140543 
L 263.4125 -254.140543 
L 263.4125 -251.6195 
L 263.4125 -251.6195 
L 263.4125 -256.396591 
L 263.4125 -256.396591 
L 263.4125 -261.395872 
L 255.9725 -261.395872 
L 255.9725 -258.8675 
L 248.5325 -258.8675 
L 248.5325 -256.215793 
L 248.5325 -256.215793 
L 248.5325 -261.5855 
L 248.5325 -261.5855 
L 248.5325 -267.230577 
L 241.0925 -267.230577 
L 241.0925 -264.589605 
L 233.6525 -264.589605 
L 233.6525 -261.805878 
L 226.2125 -261.805878 
L 226.2125 -258.8675 
L 226.2125 -258.8675 
L 226.2125 -265.080071 
L 218.7725 -265.080071 
L 218.7725 -262.065147 
L 218.7725 -262.065147 
L 218.7725 -268.751136 
L 218.7725 -268.751136 
L 218.7725 -275.855 
L 211.3325 -275.855 
L 211.3325 -272.895887 
L 203.8925 -272.895887 
L 203.8925 -269.7395 
L 203.8925 -269.7395 
L 203.8925 -277.612328 
L 196.4525 -277.612328 
L 196.4525 -274.398929 
L 189.0125 -274.398929 
L 189.0125 -270.9475 
L 181.5725 -270.9475 
L 181.5725 -267.230577 
L 166.6925 -267.230577 
L 166.6925 -258.8675 
L 99.7325 -258.8675 
L 99.7325 -217.052115 
L 99.7325 -217.052115 
L 99.7325 -231.6875 
L 92.2925 -231.6875 
L 92.2925 -219.332955 
L 84.8525 -219.332955 
L 84.8525 -204.5075 
L 84.8525 -204.5075 
L 84.8525 -222.6275 
L 77.4125 -222.6275 
L 77.4125 -204.5075 
L 69.9725 -204.5075 
L 69.9725 -181.210357 
L 69.9725 -181.210357 
L 69.9725 -204.5075 
L 62.5325 -204.5075 
L 62.5325 -171.8915 
L 55.0925 -171.8915 
L 55.0925 -122.9675 
L 47.6525 -122.9675 
L 47.6525 -367.5875 
L 47.6525 -41.4275 
L 47.6525 -41.4275 
L 47.6525 -41.4275 
L 55.0925 -41.4275 
L 55.0925 -41.4275 
L 62.5325 -41.4275 
L 62.5325 -41.4275 
L 69.9725 -41.4275 
L 69.9725 -41.4275 
L 69.9725 -41.4275 
L 69.9725 -41.4275 
L 77.4125 -41.4275 
L 77.4125 -41.4275 
L 84.8525 -41.4275 
L 84.8525 -41.4275 
L 84.8525 -41.4275 
L 84.8525 -41.4275 
L 92.2925 -41.4275 
L 92.2925 -41.4275 
L 99.7325 -41.4275 
L 99.7325 -41.4275 
L 99.7325 -41.4275 
L 99.7325 -41.4275 
L 166.6925 -41.4275 
L 166.6925 -41.4275 
L 181.5725 -41.4275 
L 181.5725 -41.4275 
L 189.0125 -41.4275 
L 189.0125 -41.4275 
L 196.4525 -41.4275 
L 196.4525 -41.4275 
L 203.8925 -41.4275 
L 203.8925 -41.4275 
L 203.8925 -41.4275 
L 203.8925 -41.4275 
L 211.3325 -41.4275 
L 211.3325 -41.4275 
L 218.7725 -41.4275 
L 218.7725 -41.4275 
L 218.7725 -41.4275 
L 218.7725 -41.4275 
L 218.7725 -41.4275 
L 218.7725 -41.4275 
L 226.2125 -41.4275 
L 226.2125 -41.4275 
L 226.2125 -41.4275 
L 226.2125 -41.4275 
L 233.6525 -41.4275 
L 233.6525 -41.4275 
L 241.0925 -41.4275 
L 241.0925 -41.4275 
L 248.5325 -41.4275 
L 248.5325 -41.4275 
L 248.5325 -41.4275 
L 248.5325 -41.4275 
L 248.5325 -41.4275 
L 248.5325 -41.4275 
L 255.9725 -41.4275 
L 255.9725 -41.4275 
L 263.4125 -41.4275 
L 263.4125 -41.4275 
L 263.4125 -41.4275 
L 263.4125 -41.4275 
L 263.4125 -41.4275 
L 263.4125 -41.4275 
L 270.8525 -41.4275 
L 270.8525 -41.4275 
L 270.8525 -41.4275 
L 270.8525 -41.4275 
L 270.8525 -41.4275 
L 270.8525 -41.4275 
L 270.8525 -41.4275 
L 270.8525 -41.4275 
L 278.2925 -41.4275 
L 278.2925 -41.4275 
L 285.7325 -41.4275 
L 285.7325 -41.4275 
L 293.1725 -41.4275 
L 293.1725 -41.4275 
L 293.1725 -41.4275 
L 293.1725 -41.4275 
L 300.6125 -41.4275 
L 300.6125 -41.4275 
L 308.0525 -41.4275 
L 308.0525 -41.4275 
L 308.0525 -41.4275 
L 308.0525 -41.4275 
L 308.0525 -41.4275 
L 308.0525 -41.4275 
L 308.0525 -41.4275 
L 308.0525 -41.4275 
L 308.0525 -41.4275 
L 308.0525 -41.4275 
L 308.0525 -41.4275 
L 308.0525 -41.4275 
L 315.4925 -41.4275 
L 315.4925 -41.4275 
L 315.4925 -41.4275 
L 315.4925 -41.4275 
L 315.4925 -41.4275 
L 315.4925 -41.4275 
L 315.4925 -41.4275 
L 315.4925 -41.4275 
L 315.4925 -41.4275 
L 315.4925 -41.4275 
L 315.4925 -41.4275 
L 315.4925 -41.4275 
L 322.9325 -41.4275 
L 322.9325 -41.4275 
L 330.3725 -41.4275 
L 330.3725 -41.4275 
L 330.3725 -41.4275 
L 330.3725 -41.4275 
L 330.3725 -41.4275 
L 330.3725 -41.4275 
L 330.3725 -41.4275 
L 330.3725 -41.4275 
L 330.3725 -41.4275 
L 330.3725 -41.4275 
L 330.3725 -41.4275 
L 330.3725 -41.4275 
L 337.8125 -41.4275 
L 337.8125 -41.4275 
L 345.2525 -41.4275 
L 345.2525 -41.4275 
L 345.2525 -41.4275 
L 345.2525 -41.4275 
L 345.2525 -41.4275 
L 345.2525 -41.4275 
L 352.6925 -41.4275 
L 352.6925 -41.4275 
L 360.1325 -41.4275 
L 360.1325 -41.4275 
L 367.5725 -41.4275 
L 367.5725 -41.4275 
L 367.5725 -41.4275 
L 367.5725 -41.4275 
L 367.5725 -41.4275 
L 367.5725 -41.4275 
L 367.5725 -41.4275 
L 367.5725 -41.4275 
L 367.5725 -41.4275 
L 367.5725 -41.4275 
L 375.0125 -41.4275 
L 375.0125 -41.4275 
L 382.4525 -41.4275 
L 382.4525 -41.4275 
L 389.8925 -41.4275 
L 389.8925 -41.4275 
L 397.3325 -41.4275 
L 397.3325 -41.4275 
L 397.3325 -41.4275 
L 397.3325 -41.4275 
L 397.3325 -41.4275 
L 397.3325 -41.4275 
L 397.3325 -41.4275 
L 397.3325 -41.4275 
L 397.3325 -41.4275 
L 397.3325 -41.4275 
L 397.3325 -41.4275 
L 397.3325 -41.4275 
L 404.7725 -41.4275 
L 404.7725 -41.4275 
L 404.7725 -41.4275 
L 404.7725 -41.4275 
L 404.7725 -41.4275 
L 404.7725 -41.4275 
L 404.7725 -41.4275 
L 404.7725 -41.4275 
L 404.7725 -41.4275 
L 404.7725 -41.4275 
L 404.7725 -41.4275 
L 404.7725 -41.4275 
L 412.2125 -41.4275 
L 412.2125 -41.4275 
L 412.2125 -41.4275 
L 412.2125 -41.4275 
L 412.2125 -41.4275 
L 412.2125 -41.4275 
L 412.2125 -41.4275 
L 412.2125 -41.4275 
L 412.2125 -41.4275 
L 412.2125 -41.4275 
L 412.2125 -41.4275 
L 412.2125 -41.4275 
L 412.2125 -41.4275 
L 412.2125 -41.4275 
L 419.6525 -41.4275 
L 419.6525 -41.4275 
L 419.6525 -41.4275 
L 419.6525 -41.4275 
L 419.6525 -41.4275 
L 419.6525 -41.4275 
L 419.6525 -41.4275 
L 419.6525 -41.4275 
L 419.6525 -41.4275 
L 419.6525 -41.4275 
L 419.6525 -41.4275 
L 419.6525 -41.4275 
L 419.6525 -41.4275 
L 419.6525 -41.4275 
L 419.6525 -41.4275 
L 419.6525 -41.4275 
L 419.6525 -41.4275 
L 419.6525 -41.4275 
L 419.6525 -41.4275 
L 419.6525 -41.4275 
L 419.6525 -41.4275 
L 419.6525 -41.4275 
L 419.6525 -41.4275 
L 419.6525 -41.4275 
L 419.6525 -41.4275 
L 419.6525 -41.4275 
L 419.6525 -41.4275 
L 419.6525 -41.4275 
L 419.6525 -41.4275 
L 419.6525 -41.4275 
L 419.6525 -41.4275 
L 419.6525 -41.4275 
L 434.5325 -41.4275 
L 434.5325 -41.4275 
L 434.5325 -41.4275 
L 434.5325 -41.4275 
L 441.9725 -41.4275 
L 441.9725 -41.4275 
L 441.9725 -41.4275 
L 441.9725 -41.4275 
L 441.9725 -41.4275 
L 441.9725 -41.4275 
L 449.4125 -41.4275 
L 449.4125 -41.4275 
L 464.2925 -41.4275 
L 464.2925 -41.4275 
L 464.2925 -41.4275 
L 464.2925 -41.4275 
L 464.2925 -41.4275 
L 464.2925 -41.4275 
L 464.2925 -41.4275 
L 464.2925 -41.4275 
L 464.2925 -41.4275 
L 464.2925 -41.4275 
L 464.2925 -41.4275 
L 464.2925 -41.4275 
L 464.2925 -41.4275 
L 464.2925 -41.4275 
L 464.2925 -41.4275 
L 464.2925 -41.4275 
L 464.2925 -41.4275 
L 464.2925 -41.4275 
L 464.2925 -41.4275 
L 464.2925 -41.4275 
L 464.2925 -41.4275 
L 464.2925 -41.4275 
L 464.2925 -41.4275 
L 464.2925 -41.4275 
L 464.2925 -41.4275 
L 464.2925 -41.4275 
L 464.2925 -41.4275 
L 464.2925 -41.4275 
L 464.2925 -41.4275 
L 464.2925 -41.4275 
L 464.2925 -41.4275 
L 464.2925 -41.4275 
L 464.2925 -41.4275 
L 464.2925 -41.4275 
L 464.2925 -41.4275 
L 464.2925 -41.4275 
L 464.2925 -41.4275 
L 464.2925 -41.4275 
L 464.2925 -41.4275 
L 464.2925 -41.4275 
L 464.2925 -41.4275 
L 464.2925 -41.4275 
L 464.2925 -41.4275 
L 464.2925 -41.4275 
L 464.2925 -41.4275 
L 464.2925 -41.4275 
L 464.2925 -41.4275 
L 464.2925 -41.4275 
L 464.2925 -41.4275 
L 464.2925 -41.4275 
L 464.2925 -41.4275 
L 464.2925 -41.4275 
L 471.7325 -41.4275 
L 471.7325 -41.4275 
L 471.7325 -41.4275 
L 471.7325 -41.4275 
L 471.7325 -41.4275 
L 471.7325 -41.4275 
L 471.7325 -41.4275 
L 471.7325 -41.4275 
L 471.7325 -41.4275 
L 471.7325 -41.4275 
L 471.7325 -41.4275 
L 471.7325 -41.4275 
L 471.7325 -41.4275 
L 471.7325 -41.4275 
L 471.7325 -41.4275 
L 471.7325 -41.4275 
L 471.7325 -41.4275 
L 471.7325 -41.4275 
L 471.7325 -41.4275 
L 471.7325 -41.4275 
L 471.7325 -41.4275 
L 471.7325 -41.4275 
L 471.7325 -41.4275 
L 471.7325 -41.4275 
L 471.7325 -41.4275 
L 471.7325 -41.4275 
L 471.7325 -41.4275 
L 471.7325 -41.4275 
L 471.7325 -41.4275 
L 471.7325 -41.4275 
L 471.7325 -41.4275 
L 471.7325 -41.4275 
L 471.7325 -41.4275 
L 471.7325 -41.4275 
L 479.1725 -41.4275 
L 479.1725 -41.4275 
L 479.1725 -41.4275 
L 479.1725 -41.4275 
L 479.1725 -41.4275 
L 479.1725 -41.4275 
L 479.1725 -41.4275 
L 479.1725 -41.4275 
L 479.1725 -41.4275 
L 479.1725 -41.4275 
L 479.1725 -41.4275 
L 479.1725 -41.4275 
L 479.1725 -41.4275 
L 479.1725 -41.4275 
L 479.1725 -41.4275 
L 479.1725 -41.4275 
L 479.1725 -41.4275 
L 479.1725 -41.4275 
L 479.1725 -41.4275 
L 479.1725 -41.4275 
L 479.1725 -41.4275 
L 479.1725 -41.4275 
L 479.1725 -41.4275 
L 479.1725 -41.4275 
L 479.1725 -41.4275 
L 479.1725 -41.4275 
L 479.1725 -41.4275 
L 479.1725 -41.4275 
L 479.1725 -41.4275 
L 479.1725 -41.4275 
L 479.1725 -41.4275 
L 479.1725 -41.4275 
L 479.1725 -41.4275 
L 479.1725 -41.4275 
L 479.1725 -41.4275 
L 479.1725 -41.4275 
L 479.1725 -41.4275 
L 479.1725 -41.4275 
L 486.6125 -41.4275 
L 486.6125 -41.4275 
L 486.6125 -41.4275 
L 486.6125 -41.4275 
L 486.6125 -41.4275 
L 486.6125 -41.4275 
L 486.6125 -41.4275 
L 486.6125 -41.4275 
L 486.6125 -41.4275 
L 486.6125 -41.4275 
L 486.6125 -41.4275 
L 486.6125 -41.4275 
L 486.6125 -41.4275 
L 486.6125 -41.4275 
L 486.6125 -41.4275 
L 486.6125 -41.4275 
L 486.6125 -41.4275 
L 486.6125 -41.4275 
L 486.6125 -41.4275 
L 486.6125 -41.4275 
L 486.6125 -41.4275 
L 486.6125 -41.4275 
L 486.6125 -41.4275 
L 486.6125 -41.4275 
L 486.6125 -41.4275 
L 486.6125 -41.4275 
L 486.6125 -41.4275 
L 486.6125 -41.4275 
L 486.6125 -41.4275 
L 486.6125 -41.4275 
L 494.0525 -41.4275 
z
" id="m16a37c3250" style="stroke:#dc143c;stroke-opacity:0.3;"/>
    </defs>
    <g clip-path="url(#p70c83574d3)">
     <use style="fill:#dc143c;fill-opacity:0.3;stroke:#dc143c;stroke-opacity:0.3;" x="0" xlink:href="#m16a37c3250" y="410.8615"/>
    </g>
   </g>
   <g id="matplotlib.axis_1">
    <g id="xtick_1">
     <g id="line2d_1">
      <defs>
       <path d="M 0 0 
L 0 3.5 
" id="m4c8d2122e3" style="stroke:#000000;stroke-width:0.8;"/>
      </defs>
      <g>
       <use style="stroke:#000000;stroke-width:0.8;" x="47.6525" xlink:href="#m4c8d2122e3" y="369.434"/>
      </g>
     </g>
     <g id="text_1">
      <!-- 0.0 -->
      <defs>
       <path d="M 31.78125 66.40625 
Q 24.171875 66.40625 20.328125 58.90625 
Q 16.5 51.421875 16.5 36.375 
Q 16.5 21.390625 20.328125 13.890625 
Q 24.171875 6.390625 31.78125 6.390625 
Q 39.453125 6.390625 43.28125 13.890625 
Q 47.125 21.390625 47.125 36.375 
Q 47.125 51.421875 43.28125 58.90625 
Q 39.453125 66.40625 31.78125 66.40625 
z
M 31.78125 74.21875 
Q 44.046875 74.21875 50.515625 64.515625 
Q 56.984375 54.828125 56.984375 36.375 
Q 56.984375 17.96875 50.515625 8.265625 
Q 44.046875 -1.421875 31.78125 -1.421875 
Q 19.53125 -1.421875 13.0625 8.265625 
Q 6.59375 17.96875 6.59375 36.375 
Q 6.59375 54.828125 13.0625 64.515625 
Q 19.53125 74.21875 31.78125 74.21875 
z
" id="DejaVuSans-48"/>
       <path d="M 10.6875 12.40625 
L 21 12.40625 
L 21 0 
L 10.6875 0 
z
" id="DejaVuSans-46"/>
      </defs>
      <g transform="translate(39.700938 384.032437)scale(0.1 -0.1)">
       <use xlink:href="#DejaVuSans-48"/>
       <use x="63.623047" xlink:href="#DejaVuSans-46"/>
       <use x="95.410156" xlink:href="#DejaVuSans-48"/>
      </g>
     </g>
    </g>
    <g id="xtick_2">
     <g id="line2d_2">
      <g>
       <use style="stroke:#000000;stroke-width:0.8;" x="136.9325" xlink:href="#m4c8d2122e3" y="369.434"/>
      </g>
     </g>
     <g id="text_2">
      <!-- 0.2 -->
      <defs>
       <path d="M 19.1875 8.296875 
L 53.609375 8.296875 
L 53.609375 0 
L 7.328125 0 
L 7.328125 8.296875 
Q 12.9375 14.109375 22.625 23.890625 
Q 32.328125 33.6875 34.8125 36.53125 
Q 39.546875 41.84375 41.421875 45.53125 
Q 43.3125 49.21875 43.3125 52.78125 
Q 43.3125 58.59375 39.234375 62.25 
Q 35.15625 65.921875 28.609375 65.921875 
Q 23.96875 65.921875 18.8125 64.3125 
Q 13.671875 62.703125 7.8125 59.421875 
L 7.8125 69.390625 
Q 13.765625 71.78125 18.9375 73 
Q 24.125 74.21875 28.421875 74.21875 
Q 39.75 74.21875 46.484375 68.546875 
Q 53.21875 62.890625 53.21875 53.421875 
Q 53.21875 48.921875 51.53125 44.890625 
Q 49.859375 40.875 45.40625 35.40625 
Q 44.1875 33.984375 37.640625 27.21875 
Q 31.109375 20.453125 19.1875 8.296875 
z
" id="DejaVuSans-50"/>
      </defs>
      <g transform="translate(128.980938 384.032437)scale(0.1 -0.1)">
       <use xlink:href="#DejaVuSans-48"/>
       <use x="63.623047" xlink:href="#DejaVuSans-46"/>
       <use x="95.410156" xlink:href="#DejaVuSans-50"/>
      </g>
     </g>
    </g>
    <g id="xtick_3">
     <g id="line2d_3">
      <g>
       <use style="stroke:#000000;stroke-width:0.8;" x="226.2125" xlink:href="#m4c8d2122e3" y="369.434"/>
      </g>
     </g>
     <g id="text_3">
      <!-- 0.4 -->
      <defs>
       <path d="M 37.796875 64.3125 
L 12.890625 25.390625 
L 37.796875 25.390625 
z
M 35.203125 72.90625 
L 47.609375 72.90625 
L 47.609375 25.390625 
L 58.015625 25.390625 
L 58.015625 17.1875 
L 47.609375 17.1875 
L 47.609375 0 
L 37.796875 0 
L 37.796875 17.1875 
L 4.890625 17.1875 
L 4.890625 26.703125 
z
" id="DejaVuSans-52"/>
      </defs>
      <g transform="translate(218.260938 384.032437)scale(0.1 -0.1)">
       <use xlink:href="#DejaVuSans-48"/>
       <use x="63.623047" xlink:href="#DejaVuSans-46"/>
       <use x="95.410156" xlink:href="#DejaVuSans-52"/>
      </g>
     </g>
    </g>
    <g id="xtick_4">
     <g id="line2d_4">
      <g>
       <use style="stroke:#000000;stroke-width:0.8;" x="315.4925" xlink:href="#m4c8d2122e3" y="369.434"/>
      </g>
     </g>
     <g id="text_4">
      <!-- 0.6 -->
      <defs>
       <path d="M 33.015625 40.375 
Q 26.375 40.375 22.484375 35.828125 
Q 18.609375 31.296875 18.609375 23.390625 
Q 18.609375 15.53125 22.484375 10.953125 
Q 26.375 6.390625 33.015625 6.390625 
Q 39.65625 6.390625 43.53125 10.953125 
Q 47.40625 15.53125 47.40625 23.390625 
Q 47.40625 31.296875 43.53125 35.828125 
Q 39.65625 40.375 33.015625 40.375 
z
M 52.59375 71.296875 
L 52.59375 62.3125 
Q 48.875 64.0625 45.09375 64.984375 
Q 41.3125 65.921875 37.59375 65.921875 
Q 27.828125 65.921875 22.671875 59.328125 
Q 17.53125 52.734375 16.796875 39.40625 
Q 19.671875 43.65625 24.015625 45.921875 
Q 28.375 48.1875 33.59375 48.1875 
Q 44.578125 48.1875 50.953125 41.515625 
Q 57.328125 34.859375 57.328125 23.390625 
Q 57.328125 12.15625 50.6875 5.359375 
Q 44.046875 -1.421875 33.015625 -1.421875 
Q 20.359375 -1.421875 13.671875 8.265625 
Q 6.984375 17.96875 6.984375 36.375 
Q 6.984375 53.65625 15.1875 63.9375 
Q 23.390625 74.21875 37.203125 74.21875 
Q 40.921875 74.21875 44.703125 73.484375 
Q 48.484375 72.75 52.59375 71.296875 
z
" id="DejaVuSans-54"/>
      </defs>
      <g transform="translate(307.540938 384.032437)scale(0.1 -0.1)">
       <use xlink:href="#DejaVuSans-48"/>
       <use x="63.623047" xlink:href="#DejaVuSans-46"/>
       <use x="95.410156" xlink:href="#DejaVuSans-54"/>
      </g>
     </g>
    </g>
    <g id="xtick_5">
     <g id="line2d_5">
      <g>
       <use style="stroke:#000000;stroke-width:0.8;" x="404.7725" xlink:href="#m4c8d2122e3" y="369.434"/>
      </g>
     </g>
     <g id="text_5">
      <!-- 0.8 -->
      <defs>
       <path d="M 31.78125 34.625 
Q 24.75 34.625 20.71875 30.859375 
Q 16.703125 27.09375 16.703125 20.515625 
Q 16.703125 13.921875 20.71875 10.15625 
Q 24.75 6.390625 31.78125 6.390625 
Q 38.8125 6.390625 42.859375 10.171875 
Q 46.921875 13.96875 46.921875 20.515625 
Q 46.921875 27.09375 42.890625 30.859375 
Q 38.875 34.625 31.78125 34.625 
z
M 21.921875 38.8125 
Q 15.578125 40.375 12.03125 44.71875 
Q 8.5 49.078125 8.5 55.328125 
Q 8.5 64.0625 14.71875 69.140625 
Q 20.953125 74.21875 31.78125 74.21875 
Q 42.671875 74.21875 48.875 69.140625 
Q 55.078125 64.0625 55.078125 55.328125 
Q 55.078125 49.078125 51.53125 44.71875 
Q 48 40.375 41.703125 38.8125 
Q 48.828125 37.15625 52.796875 32.3125 
Q 56.78125 27.484375 56.78125 20.515625 
Q 56.78125 9.90625 50.3125 4.234375 
Q 43.84375 -1.421875 31.78125 -1.421875 
Q 19.734375 -1.421875 13.25 4.234375 
Q 6.78125 9.90625 6.78125 20.515625 
Q 6.78125 27.484375 10.78125 32.3125 
Q 14.796875 37.15625 21.921875 38.8125 
z
M 18.3125 54.390625 
Q 18.3125 48.734375 21.84375 45.5625 
Q 25.390625 42.390625 31.78125 42.390625 
Q 38.140625 42.390625 41.71875 45.5625 
Q 45.3125 48.734375 45.3125 54.390625 
Q 45.3125 60.0625 41.71875 63.234375 
Q 38.140625 66.40625 31.78125 66.40625 
Q 25.390625 66.40625 21.84375 63.234375 
Q 18.3125 60.0625 18.3125 54.390625 
z
" id="DejaVuSans-56"/>
      </defs>
      <g transform="translate(396.820938 384.032437)scale(0.1 -0.1)">
       <use xlink:href="#DejaVuSans-48"/>
       <use x="63.623047" xlink:href="#DejaVuSans-46"/>
       <use x="95.410156" xlink:href="#DejaVuSans-56"/>
      </g>
     </g>
    </g>
    <g id="xtick_6">
     <g id="line2d_6">
      <g>
       <use style="stroke:#000000;stroke-width:0.8;" x="494.0525" xlink:href="#m4c8d2122e3" y="369.434"/>
      </g>
     </g>
     <g id="text_6">
      <!-- 1.0 -->
      <defs>
       <path d="M 12.40625 8.296875 
L 28.515625 8.296875 
L 28.515625 63.921875 
L 10.984375 60.40625 
L 10.984375 69.390625 
L 28.421875 72.90625 
L 38.28125 72.90625 
L 38.28125 8.296875 
L 54.390625 8.296875 
L 54.390625 0 
L 12.40625 0 
z
" id="DejaVuSans-49"/>
      </defs>
      <g transform="translate(486.100937 384.032437)scale(0.1 -0.1)">
       <use xlink:href="#DejaVuSans-49"/>
       <use x="63.623047" xlink:href="#DejaVuSans-46"/>
       <use x="95.410156" xlink:href="#DejaVuSans-48"/>
      </g>
     </g>
    </g>
    <g id="text_7">
     <!-- Recall -->
     <defs>
      <path d="M 44.390625 34.1875 
Q 47.5625 33.109375 50.5625 29.59375 
Q 53.5625 26.078125 56.59375 19.921875 
L 66.609375 0 
L 56 0 
L 46.6875 18.703125 
Q 43.0625 26.03125 39.671875 28.421875 
Q 36.28125 30.8125 30.421875 30.8125 
L 19.671875 30.8125 
L 19.671875 0 
L 9.8125 0 
L 9.8125 72.90625 
L 32.078125 72.90625 
Q 44.578125 72.90625 50.734375 67.671875 
Q 56.890625 62.453125 56.890625 51.90625 
Q 56.890625 45.015625 53.6875 40.46875 
Q 50.484375 35.9375 44.390625 34.1875 
z
M 19.671875 64.796875 
L 19.671875 38.921875 
L 32.078125 38.921875 
Q 39.203125 38.921875 42.84375 42.21875 
Q 46.484375 45.515625 46.484375 51.90625 
Q 46.484375 58.296875 42.84375 61.546875 
Q 39.203125 64.796875 32.078125 64.796875 
z
" id="DejaVuSans-82"/>
      <path d="M 56.203125 29.59375 
L 56.203125 25.203125 
L 14.890625 25.203125 
Q 15.484375 15.921875 20.484375 11.0625 
Q 25.484375 6.203125 34.421875 6.203125 
Q 39.59375 6.203125 44.453125 7.46875 
Q 49.3125 8.734375 54.109375 11.28125 
L 54.109375 2.78125 
Q 49.265625 0.734375 44.1875 -0.34375 
Q 39.109375 -1.421875 33.890625 -1.421875 
Q 20.796875 -1.421875 13.15625 6.1875 
Q 5.515625 13.8125 5.515625 26.8125 
Q 5.515625 40.234375 12.765625 48.109375 
Q 20.015625 56 32.328125 56 
Q 43.359375 56 49.78125 48.890625 
Q 56.203125 41.796875 56.203125 29.59375 
z
M 47.21875 32.234375 
Q 47.125 39.59375 43.09375 43.984375 
Q 39.0625 48.390625 32.421875 48.390625 
Q 24.90625 48.390625 20.390625 44.140625 
Q 15.875 39.890625 15.1875 32.171875 
z
" id="DejaVuSans-101"/>
      <path d="M 48.78125 52.59375 
L 48.78125 44.1875 
Q 44.96875 46.296875 41.140625 47.34375 
Q 37.3125 48.390625 33.40625 48.390625 
Q 24.65625 48.390625 19.8125 42.84375 
Q 14.984375 37.3125 14.984375 27.296875 
Q 14.984375 17.28125 19.8125 11.734375 
Q 24.65625 6.203125 33.40625 6.203125 
Q 37.3125 6.203125 41.140625 7.25 
Q 44.96875 8.296875 48.78125 10.40625 
L 48.78125 2.09375 
Q 45.015625 0.34375 40.984375 -0.53125 
Q 36.96875 -1.421875 32.421875 -1.421875 
Q 20.0625 -1.421875 12.78125 6.34375 
Q 5.515625 14.109375 5.515625 27.296875 
Q 5.515625 40.671875 12.859375 48.328125 
Q 20.21875 56 33.015625 56 
Q 37.15625 56 41.109375 55.140625 
Q 45.0625 54.296875 48.78125 52.59375 
z
" id="DejaVuSans-99"/>
      <path d="M 34.28125 27.484375 
Q 23.390625 27.484375 19.1875 25 
Q 14.984375 22.515625 14.984375 16.5 
Q 14.984375 11.71875 18.140625 8.90625 
Q 21.296875 6.109375 26.703125 6.109375 
Q 34.1875 6.109375 38.703125 11.40625 
Q 43.21875 16.703125 43.21875 25.484375 
L 43.21875 27.484375 
z
M 52.203125 31.203125 
L 52.203125 0 
L 43.21875 0 
L 43.21875 8.296875 
Q 40.140625 3.328125 35.546875 0.953125 
Q 30.953125 -1.421875 24.3125 -1.421875 
Q 15.921875 -1.421875 10.953125 3.296875 
Q 6 8.015625 6 15.921875 
Q 6 25.140625 12.171875 29.828125 
Q 18.359375 34.515625 30.609375 34.515625 
L 43.21875 34.515625 
L 43.21875 35.40625 
Q 43.21875 41.609375 39.140625 45 
Q 35.0625 48.390625 27.6875 48.390625 
Q 23 48.390625 18.546875 47.265625 
Q 14.109375 46.140625 10.015625 43.890625 
L 10.015625 52.203125 
Q 14.9375 54.109375 19.578125 55.046875 
Q 24.21875 56 28.609375 56 
Q 40.484375 56 46.34375 49.84375 
Q 52.203125 43.703125 52.203125 31.203125 
z
" id="DejaVuSans-97"/>
      <path d="M 9.421875 75.984375 
L 18.40625 75.984375 
L 18.40625 0 
L 9.421875 0 
z
" id="DejaVuSans-108"/>
     </defs>
     <g transform="translate(249.657812 400.749937)scale(0.14 -0.14)">
      <use xlink:href="#DejaVuSans-82"/>
      <use x="69.419922" xlink:href="#DejaVuSans-101"/>
      <use x="130.943359" xlink:href="#DejaVuSans-99"/>
      <use x="185.923828" xlink:href="#DejaVuSans-97"/>
      <use x="247.203125" xlink:href="#DejaVuSans-108"/>
      <use x="274.986328" xlink:href="#DejaVuSans-108"/>
     </g>
    </g>
   </g>
   <g id="matplotlib.axis_2">
    <g id="ytick_1">
     <g id="line2d_7">
      <defs>
       <path d="M 0 0 
L -3.5 0 
" id="m7148877355" style="stroke:#000000;stroke-width:0.8;"/>
      </defs>
      <g>
       <use style="stroke:#000000;stroke-width:0.8;" x="47.6525" xlink:href="#m7148877355" y="369.434"/>
      </g>
     </g>
     <g id="text_8">
      <!-- 0.0 -->
      <g transform="translate(24.749375 373.233219)scale(0.1 -0.1)">
       <use xlink:href="#DejaVuSans-48"/>
       <use x="63.623047" xlink:href="#DejaVuSans-46"/>
       <use x="95.410156" xlink:href="#DejaVuSans-48"/>
      </g>
     </g>
    </g>
    <g id="ytick_2">
     <g id="line2d_8">
      <g>
       <use style="stroke:#000000;stroke-width:0.8;" x="47.6525" xlink:href="#m7148877355" y="304.202"/>
      </g>
     </g>
     <g id="text_9">
      <!-- 0.2 -->
      <g transform="translate(24.749375 308.001219)scale(0.1 -0.1)">
       <use xlink:href="#DejaVuSans-48"/>
       <use x="63.623047" xlink:href="#DejaVuSans-46"/>
       <use x="95.410156" xlink:href="#DejaVuSans-50"/>
      </g>
     </g>
    </g>
    <g id="ytick_3">
     <g id="line2d_9">
      <g>
       <use style="stroke:#000000;stroke-width:0.8;" x="47.6525" xlink:href="#m7148877355" y="238.97"/>
      </g>
     </g>
     <g id="text_10">
      <!-- 0.4 -->
      <g transform="translate(24.749375 242.769219)scale(0.1 -0.1)">
       <use xlink:href="#DejaVuSans-48"/>
       <use x="63.623047" xlink:href="#DejaVuSans-46"/>
       <use x="95.410156" xlink:href="#DejaVuSans-52"/>
      </g>
     </g>
    </g>
    <g id="ytick_4">
     <g id="line2d_10">
      <g>
       <use style="stroke:#000000;stroke-width:0.8;" x="47.6525" xlink:href="#m7148877355" y="173.738"/>
      </g>
     </g>
     <g id="text_11">
      <!-- 0.6 -->
      <g transform="translate(24.749375 177.537219)scale(0.1 -0.1)">
       <use xlink:href="#DejaVuSans-48"/>
       <use x="63.623047" xlink:href="#DejaVuSans-46"/>
       <use x="95.410156" xlink:href="#DejaVuSans-54"/>
      </g>
     </g>
    </g>
    <g id="ytick_5">
     <g id="line2d_11">
      <g>
       <use style="stroke:#000000;stroke-width:0.8;" x="47.6525" xlink:href="#m7148877355" y="108.506"/>
      </g>
     </g>
     <g id="text_12">
      <!-- 0.8 -->
      <g transform="translate(24.749375 112.305219)scale(0.1 -0.1)">
       <use xlink:href="#DejaVuSans-48"/>
       <use x="63.623047" xlink:href="#DejaVuSans-46"/>
       <use x="95.410156" xlink:href="#DejaVuSans-56"/>
      </g>
     </g>
    </g>
    <g id="ytick_6">
     <g id="line2d_12">
      <g>
       <use style="stroke:#000000;stroke-width:0.8;" x="47.6525" xlink:href="#m7148877355" y="43.274"/>
      </g>
     </g>
     <g id="text_13">
      <!-- 1.0 -->
      <g transform="translate(24.749375 47.073219)scale(0.1 -0.1)">
       <use xlink:href="#DejaVuSans-49"/>
       <use x="63.623047" xlink:href="#DejaVuSans-46"/>
       <use x="95.410156" xlink:href="#DejaVuSans-48"/>
      </g>
     </g>
    </g>
    <g id="text_14">
     <!-- Precision or F1 Score -->
     <defs>
      <path d="M 19.671875 64.796875 
L 19.671875 37.40625 
L 32.078125 37.40625 
Q 38.96875 37.40625 42.71875 40.96875 
Q 46.484375 44.53125 46.484375 51.125 
Q 46.484375 57.671875 42.71875 61.234375 
Q 38.96875 64.796875 32.078125 64.796875 
z
M 9.8125 72.90625 
L 32.078125 72.90625 
Q 44.34375 72.90625 50.609375 67.359375 
Q 56.890625 61.8125 56.890625 51.125 
Q 56.890625 40.328125 50.609375 34.8125 
Q 44.34375 29.296875 32.078125 29.296875 
L 19.671875 29.296875 
L 19.671875 0 
L 9.8125 0 
z
" id="DejaVuSans-80"/>
      <path d="M 41.109375 46.296875 
Q 39.59375 47.171875 37.8125 47.578125 
Q 36.03125 48 33.890625 48 
Q 26.265625 48 22.1875 43.046875 
Q 18.109375 38.09375 18.109375 28.8125 
L 18.109375 0 
L 9.078125 0 
L 9.078125 54.6875 
L 18.109375 54.6875 
L 18.109375 46.1875 
Q 20.953125 51.171875 25.484375 53.578125 
Q 30.03125 56 36.53125 56 
Q 37.453125 56 38.578125 55.875 
Q 39.703125 55.765625 41.0625 55.515625 
z
" id="DejaVuSans-114"/>
      <path d="M 9.421875 54.6875 
L 18.40625 54.6875 
L 18.40625 0 
L 9.421875 0 
z
M 9.421875 75.984375 
L 18.40625 75.984375 
L 18.40625 64.59375 
L 9.421875 64.59375 
z
" id="DejaVuSans-105"/>
      <path d="M 44.28125 53.078125 
L 44.28125 44.578125 
Q 40.484375 46.53125 36.375 47.5 
Q 32.28125 48.484375 27.875 48.484375 
Q 21.1875 48.484375 17.84375 46.4375 
Q 14.5 44.390625 14.5 40.28125 
Q 14.5 37.15625 16.890625 35.375 
Q 19.28125 33.59375 26.515625 31.984375 
L 29.59375 31.296875 
Q 39.15625 29.25 43.1875 25.515625 
Q 47.21875 21.78125 47.21875 15.09375 
Q 47.21875 7.46875 41.1875 3.015625 
Q 35.15625 -1.421875 24.609375 -1.421875 
Q 20.21875 -1.421875 15.453125 -0.5625 
Q 10.6875 0.296875 5.421875 2 
L 5.421875 11.28125 
Q 10.40625 8.6875 15.234375 7.390625 
Q 20.0625 6.109375 24.8125 6.109375 
Q 31.15625 6.109375 34.5625 8.28125 
Q 37.984375 10.453125 37.984375 14.40625 
Q 37.984375 18.0625 35.515625 20.015625 
Q 33.0625 21.96875 24.703125 23.78125 
L 21.578125 24.515625 
Q 13.234375 26.265625 9.515625 29.90625 
Q 5.8125 33.546875 5.8125 39.890625 
Q 5.8125 47.609375 11.28125 51.796875 
Q 16.75 56 26.8125 56 
Q 31.78125 56 36.171875 55.265625 
Q 40.578125 54.546875 44.28125 53.078125 
z
" id="DejaVuSans-115"/>
      <path d="M 30.609375 48.390625 
Q 23.390625 48.390625 19.1875 42.75 
Q 14.984375 37.109375 14.984375 27.296875 
Q 14.984375 17.484375 19.15625 11.84375 
Q 23.34375 6.203125 30.609375 6.203125 
Q 37.796875 6.203125 41.984375 11.859375 
Q 46.1875 17.53125 46.1875 27.296875 
Q 46.1875 37.015625 41.984375 42.703125 
Q 37.796875 48.390625 30.609375 48.390625 
z
M 30.609375 56 
Q 42.328125 56 49.015625 48.375 
Q 55.71875 40.765625 55.71875 27.296875 
Q 55.71875 13.875 49.015625 6.21875 
Q 42.328125 -1.421875 30.609375 -1.421875 
Q 18.84375 -1.421875 12.171875 6.21875 
Q 5.515625 13.875 5.515625 27.296875 
Q 5.515625 40.765625 12.171875 48.375 
Q 18.84375 56 30.609375 56 
z
" id="DejaVuSans-111"/>
      <path d="M 54.890625 33.015625 
L 54.890625 0 
L 45.90625 0 
L 45.90625 32.71875 
Q 45.90625 40.484375 42.875 44.328125 
Q 39.84375 48.1875 33.796875 48.1875 
Q 26.515625 48.1875 22.3125 43.546875 
Q 18.109375 38.921875 18.109375 30.90625 
L 18.109375 0 
L 9.078125 0 
L 9.078125 54.6875 
L 18.109375 54.6875 
L 18.109375 46.1875 
Q 21.34375 51.125 25.703125 53.5625 
Q 30.078125 56 35.796875 56 
Q 45.21875 56 50.046875 50.171875 
Q 54.890625 44.34375 54.890625 33.015625 
z
" id="DejaVuSans-110"/>
      <path id="DejaVuSans-32"/>
      <path d="M 9.8125 72.90625 
L 51.703125 72.90625 
L 51.703125 64.59375 
L 19.671875 64.59375 
L 19.671875 43.109375 
L 48.578125 43.109375 
L 48.578125 34.8125 
L 19.671875 34.8125 
L 19.671875 0 
L 9.8125 0 
z
" id="DejaVuSans-70"/>
      <path d="M 53.515625 70.515625 
L 53.515625 60.890625 
Q 47.90625 63.578125 42.921875 64.890625 
Q 37.9375 66.21875 33.296875 66.21875 
Q 25.25 66.21875 20.875 63.09375 
Q 16.5 59.96875 16.5 54.203125 
Q 16.5 49.359375 19.40625 46.890625 
Q 22.3125 44.4375 30.421875 42.921875 
L 36.375 41.703125 
Q 47.40625 39.59375 52.65625 34.296875 
Q 57.90625 29 57.90625 20.125 
Q 57.90625 9.515625 50.796875 4.046875 
Q 43.703125 -1.421875 29.984375 -1.421875 
Q 24.8125 -1.421875 18.96875 -0.25 
Q 13.140625 0.921875 6.890625 3.21875 
L 6.890625 13.375 
Q 12.890625 10.015625 18.65625 8.296875 
Q 24.421875 6.59375 29.984375 6.59375 
Q 38.421875 6.59375 43.015625 9.90625 
Q 47.609375 13.234375 47.609375 19.390625 
Q 47.609375 24.75 44.3125 27.78125 
Q 41.015625 30.8125 33.5 32.328125 
L 27.484375 33.5 
Q 16.453125 35.6875 11.515625 40.375 
Q 6.59375 45.0625 6.59375 53.421875 
Q 6.59375 63.09375 13.40625 68.65625 
Q 20.21875 74.21875 32.171875 74.21875 
Q 37.3125 74.21875 42.625 73.28125 
Q 47.953125 72.359375 53.515625 70.515625 
z
" id="DejaVuSans-83"/>
     </defs>
     <g transform="translate(17.837812 279.933844)rotate(-90)scale(0.14 -0.14)">
      <use xlink:href="#DejaVuSans-80"/>
      <use x="60.287109" xlink:href="#DejaVuSans-114"/>
      <use x="101.369141" xlink:href="#DejaVuSans-101"/>
      <use x="162.892578" xlink:href="#DejaVuSans-99"/>
      <use x="217.873047" xlink:href="#DejaVuSans-105"/>
      <use x="245.65625" xlink:href="#DejaVuSans-115"/>
      <use x="297.755859" xlink:href="#DejaVuSans-105"/>
      <use x="325.539062" xlink:href="#DejaVuSans-111"/>
      <use x="386.720703" xlink:href="#DejaVuSans-110"/>
      <use x="450.099609" xlink:href="#DejaVuSans-32"/>
      <use x="481.886719" xlink:href="#DejaVuSans-111"/>
      <use x="543.068359" xlink:href="#DejaVuSans-114"/>
      <use x="584.181641" xlink:href="#DejaVuSans-32"/>
      <use x="615.96875" xlink:href="#DejaVuSans-70"/>
      <use x="673.488281" xlink:href="#DejaVuSans-49"/>
      <use x="737.111328" xlink:href="#DejaVuSans-32"/>
      <use x="768.898438" xlink:href="#DejaVuSans-83"/>
      <use x="832.375" xlink:href="#DejaVuSans-99"/>
      <use x="887.355469" xlink:href="#DejaVuSans-111"/>
      <use x="948.537109" xlink:href="#DejaVuSans-114"/>
      <use x="989.619141" xlink:href="#DejaVuSans-101"/>
     </g>
    </g>
   </g>
   <g id="line2d_13">
    <path clip-path="url(#p70c83574d3)" d="M 494.0525 312.212947 
L 486.6125 312.212947 
L 486.6125 313.001625 
L 486.6125 308.920038 
L 479.1725 308.920038 
L 479.1725 309.758038 
L 479.1725 305.739455 
L 471.7325 305.739455 
L 471.7325 306.626162 
L 471.7325 299.804337 
L 464.2925 299.804337 
L 464.2925 279.013406 
L 449.4125 279.013406 
L 449.4125 267.03493 
L 441.9725 267.03493 
L 441.9725 267.147136 
L 441.9725 265.922144 
L 434.5325 265.922144 
L 434.5325 266.644182 
L 434.5325 266.017415 
L 419.6525 266.017415 
L 419.6525 217.022785 
L 412.2125 217.022785 
L 412.2125 218.661925 
L 412.2125 209.6156 
L 404.7725 209.6156 
L 404.7725 211.295818 
L 404.7725 202.884213 
L 397.3325 202.884213 
L 397.3325 204.600452 
L 397.3325 195.234909 
L 389.8925 195.234909 
L 389.8925 196.981586 
L 382.4525 196.981586 
L 382.4525 198.768884 
L 375.0125 198.768884 
L 375.0125 200.598235 
L 367.5725 200.598235 
L 367.5725 202.471143 
L 367.5725 194.123 
L 360.1325 194.123 
L 360.1325 196.032481 
L 352.6925 196.032481 
L 352.6925 197.990923 
L 345.2525 197.990923 
L 345.2525 200.000234 
L 345.2525 195.482 
L 337.8125 195.482 
L 337.8125 197.538865 
L 330.3725 197.538865 
L 330.3725 199.652082 
L 330.3725 187.168118 
L 322.9325 187.168118 
L 322.9325 189.315791 
L 315.4925 189.315791 
L 315.4925 191.528545 
L 315.4925 176.946131 
L 308.0525 176.946131 
L 308.0525 179.174 
L 308.0525 161.877636 
L 300.6125 161.877636 
L 300.6125 164.074 
L 293.1725 164.074 
L 293.1725 166.353245 
L 293.1725 162.447846 
L 285.7325 162.447846 
L 285.7325 164.784588 
L 278.2925 164.784588 
L 278.2925 167.2148 
L 270.8525 167.2148 
L 270.8525 169.744204 
L 270.8525 156.720957 
L 263.4125 156.720957 
L 263.4125 159.242 
L 263.4125 149.465628 
L 255.9725 149.465628 
L 255.9725 151.994 
L 248.5325 151.994 
L 248.5325 154.645707 
L 248.5325 143.630923 
L 241.0925 143.630923 
L 241.0925 146.271895 
L 233.6525 146.271895 
L 233.6525 149.055622 
L 226.2125 149.055622 
L 226.2125 151.994 
L 226.2125 145.781429 
L 218.7725 145.781429 
L 218.7725 148.796353 
L 218.7725 135.0065 
L 211.3325 135.0065 
L 211.3325 137.965613 
L 203.8925 137.965613 
L 203.8925 141.122 
L 203.8925 133.249172 
L 196.4525 133.249172 
L 196.4525 136.462571 
L 189.0125 136.462571 
L 189.0125 139.914 
L 181.5725 139.914 
L 181.5725 143.630923 
L 166.6925 143.630923 
L 166.6925 151.994 
L 99.7325 151.994 
L 99.7325 193.809385 
L 99.7325 179.174 
L 92.2925 179.174 
L 92.2925 191.528545 
L 84.8525 191.528545 
L 84.8525 206.354 
L 84.8525 188.234 
L 77.4125 188.234 
L 77.4125 206.354 
L 69.9725 206.354 
L 69.9725 229.651143 
L 69.9725 206.354 
L 62.5325 206.354 
L 62.5325 238.97 
L 55.0925 238.97 
L 55.0925 287.894 
L 47.6525 287.894 
L 47.6525 43.274 
L 47.6525 43.274 
" style="fill:none;stroke:#dc143c;stroke-linecap:square;stroke-opacity:0.3;stroke-width:1.5;"/>
   </g>
   <g id="line2d_14">
    <path clip-path="url(#p70c83574d3)" d="M 47.6525 333.394221 
L 494.0525 333.394221 
" style="fill:none;stroke:#ff0000;stroke-dasharray:5.55,2.4;stroke-dashoffset:0;stroke-width:1.5;"/>
   </g>
   <g id="line2d_15">
    <path clip-path="url(#p70c83574d3)" d="M 47.6525 195.234909 
L 494.0525 195.234909 
" style="fill:none;stroke:#000000;stroke-dasharray:1.5,2.475;stroke-dashoffset:0;stroke-opacity:0.4;stroke-width:1.5;"/>
   </g>
   <g id="line2d_16">
    <path clip-path="url(#p70c83574d3)" d="M 397.3325 369.434 
L 397.3325 43.274 
" style="fill:none;stroke:#000000;stroke-dasharray:1.5,2.475;stroke-dashoffset:0;stroke-opacity:0.4;stroke-width:1.5;"/>
   </g>
   <g id="line2d_17">
    <path clip-path="url(#p70c83574d3)" d="M 494.0525 281.305225 
L 486.6125 284.920776 
L 486.6125 276.626912 
L 479.1725 280.143882 
L 479.1725 272.510005 
L 471.7325 275.965581 
L 471.7325 264.053506 
L 464.2925 254.744509 
L 464.2925 235.929825 
L 449.4125 225.312211 
L 441.9725 227.389323 
L 441.9725 226.004319 
L 434.5325 228.765053 
L 434.5325 228.062007 
L 419.6525 207.581867 
L 419.6525 185.549266 
L 412.2125 189.195095 
L 412.2125 181.850595 
L 404.7725 185.531881 
L 404.7725 178.960215 
L 397.3325 182.675357 
L 397.3325 175.628348 
L 375.0125 186.955245 
L 367.5725 190.785182 
L 367.5725 184.776683 
L 345.2525 196.476541 
L 345.2525 193.333294 
L 330.3725 201.309346 
L 330.3725 192.958997 
L 315.4925 201.112052 
L 315.4925 191.907863 
L 308.0525 196.055988 
L 308.0525 185.768243 
L 293.1725 194.201946 
L 293.1725 191.985856 
L 278.2925 200.6274 
L 270.8525 205.03421 
L 270.8525 197.990038 
L 263.4125 202.451391 
L 263.4125 197.386204 
L 248.5325 206.49196 
L 248.5325 201.058114 
L 233.6525 210.435683 
L 226.2125 215.251273 
L 226.2125 212.35604 
L 218.7725 217.253892 
L 218.7725 211.079661 
L 203.8925 221.124447 
L 203.8925 217.794296 
L 189.0125 228.263405 
L 181.5725 233.69512 
L 166.6925 245.008214 
L 99.7325 299.703525 
L 99.7325 295.484486 
L 92.2925 304.365844 
L 84.8525 313.92949 
L 84.8525 309.323701 
L 77.4125 319.882138 
L 69.9725 331.61793 
L 69.9725 326.600816 
L 62.5325 340.398593 
L 55.0925 356.931417 
L 47.6525 369.434 
L 47.6525 369.434 
" style="fill:none;stroke:#1f77b4;stroke-linecap:square;stroke-width:1.5;"/>
   </g>
   <g id="patch_3">
    <path d="M 47.6525 369.434 
L 47.6525 43.274 
" style="fill:none;stroke:#000000;stroke-linecap:square;stroke-linejoin:miter;stroke-width:0.8;"/>
   </g>
   <g id="patch_4">
    <path d="M 494.0525 369.434 
L 494.0525 43.274 
" style="fill:none;stroke:#000000;stroke-linecap:square;stroke-linejoin:miter;stroke-width:0.8;"/>
   </g>
   <g id="patch_5">
    <path d="M 47.6525 369.434 
L 494.0525 369.434 
" style="fill:none;stroke:#000000;stroke-linecap:square;stroke-linejoin:miter;stroke-width:0.8;"/>
   </g>
   <g id="patch_6">
    <path d="M 47.6525 43.274 
L 494.0525 43.274 
" style="fill:none;stroke:#000000;stroke-linecap:square;stroke-linejoin:miter;stroke-width:0.8;"/>
   </g>
   <g id="text_15">
    <!-- Max F1=0.635 -->
    <defs>
     <path d="M 9.8125 72.90625 
L 24.515625 72.90625 
L 43.109375 23.296875 
L 61.8125 72.90625 
L 76.515625 72.90625 
L 76.515625 0 
L 66.890625 0 
L 66.890625 64.015625 
L 48.09375 14.015625 
L 38.1875 14.015625 
L 19.390625 64.015625 
L 19.390625 0 
L 9.8125 0 
z
" id="DejaVuSans-77"/>
     <path d="M 54.890625 54.6875 
L 35.109375 28.078125 
L 55.90625 0 
L 45.3125 0 
L 29.390625 21.484375 
L 13.484375 0 
L 2.875 0 
L 24.125 28.609375 
L 4.6875 54.6875 
L 15.28125 54.6875 
L 29.78125 35.203125 
L 44.28125 54.6875 
z
" id="DejaVuSans-120"/>
     <path d="M 10.59375 45.40625 
L 73.1875 45.40625 
L 73.1875 37.203125 
L 10.59375 37.203125 
z
M 10.59375 25.484375 
L 73.1875 25.484375 
L 73.1875 17.1875 
L 10.59375 17.1875 
z
" id="DejaVuSans-61"/>
     <path d="M 40.578125 39.3125 
Q 47.65625 37.796875 51.625 33 
Q 55.609375 28.21875 55.609375 21.1875 
Q 55.609375 10.40625 48.1875 4.484375 
Q 40.765625 -1.421875 27.09375 -1.421875 
Q 22.515625 -1.421875 17.65625 -0.515625 
Q 12.796875 0.390625 7.625 2.203125 
L 7.625 11.71875 
Q 11.71875 9.328125 16.59375 8.109375 
Q 21.484375 6.890625 26.8125 6.890625 
Q 36.078125 6.890625 40.9375 10.546875 
Q 45.796875 14.203125 45.796875 21.1875 
Q 45.796875 27.640625 41.28125 31.265625 
Q 36.765625 34.90625 28.71875 34.90625 
L 20.21875 34.90625 
L 20.21875 43.015625 
L 29.109375 43.015625 
Q 36.375 43.015625 40.234375 45.921875 
Q 44.09375 48.828125 44.09375 54.296875 
Q 44.09375 59.90625 40.109375 62.90625 
Q 36.140625 65.921875 28.71875 65.921875 
Q 24.65625 65.921875 20.015625 65.03125 
Q 15.375 64.15625 9.8125 62.3125 
L 9.8125 71.09375 
Q 15.4375 72.65625 20.34375 73.4375 
Q 25.25 74.21875 29.59375 74.21875 
Q 40.828125 74.21875 47.359375 69.109375 
Q 53.90625 64.015625 53.90625 55.328125 
Q 53.90625 49.265625 50.4375 45.09375 
Q 46.96875 40.921875 40.578125 39.3125 
z
" id="DejaVuSans-51"/>
     <path d="M 10.796875 72.90625 
L 49.515625 72.90625 
L 49.515625 64.59375 
L 19.828125 64.59375 
L 19.828125 46.734375 
Q 21.96875 47.46875 24.109375 47.828125 
Q 26.265625 48.1875 28.421875 48.1875 
Q 40.625 48.1875 47.75 41.5 
Q 54.890625 34.8125 54.890625 23.390625 
Q 54.890625 11.625 47.5625 5.09375 
Q 40.234375 -1.421875 26.90625 -1.421875 
Q 22.3125 -1.421875 17.546875 -0.640625 
Q 12.796875 0.140625 7.71875 1.703125 
L 7.71875 11.625 
Q 12.109375 9.234375 16.796875 8.0625 
Q 21.484375 6.890625 26.703125 6.890625 
Q 35.15625 6.890625 40.078125 11.328125 
Q 45.015625 15.765625 45.015625 23.390625 
Q 45.015625 31 40.078125 35.4375 
Q 35.15625 39.890625 26.703125 39.890625 
Q 22.75 39.890625 18.8125 39.015625 
Q 14.890625 38.140625 10.796875 36.28125 
z
" id="DejaVuSans-53"/>
    </defs>
    <g transform="translate(397.3325 159.016724)scale(0.1 -0.1)">
     <use xlink:href="#DejaVuSans-77"/>
     <use x="86.279297" xlink:href="#DejaVuSans-97"/>
     <use x="147.558594" xlink:href="#DejaVuSans-120"/>
     <use x="206.738281" xlink:href="#DejaVuSans-32"/>
     <use x="238.525391" xlink:href="#DejaVuSans-70"/>
     <use x="296.044922" xlink:href="#DejaVuSans-49"/>
     <use x="359.667969" xlink:href="#DejaVuSans-61"/>
     <use x="443.457031" xlink:href="#DejaVuSans-48"/>
     <use x="507.080078" xlink:href="#DejaVuSans-46"/>
     <use x="538.867188" xlink:href="#DejaVuSans-54"/>
     <use x="602.490234" xlink:href="#DejaVuSans-51"/>
     <use x="666.113281" xlink:href="#DejaVuSans-53"/>
    </g>
   </g>
   <g id="text_16">
    <!-- SR.MMP Neural Network -->
    <defs>
     <path d="M 9.8125 72.90625 
L 23.09375 72.90625 
L 55.421875 11.921875 
L 55.421875 72.90625 
L 64.984375 72.90625 
L 64.984375 0 
L 51.703125 0 
L 19.390625 60.984375 
L 19.390625 0 
L 9.8125 0 
z
" id="DejaVuSans-78"/>
     <path d="M 8.5 21.578125 
L 8.5 54.6875 
L 17.484375 54.6875 
L 17.484375 21.921875 
Q 17.484375 14.15625 20.5 10.265625 
Q 23.53125 6.390625 29.59375 6.390625 
Q 36.859375 6.390625 41.078125 11.03125 
Q 45.3125 15.671875 45.3125 23.6875 
L 45.3125 54.6875 
L 54.296875 54.6875 
L 54.296875 0 
L 45.3125 0 
L 45.3125 8.40625 
Q 42.046875 3.421875 37.71875 1 
Q 33.40625 -1.421875 27.6875 -1.421875 
Q 18.265625 -1.421875 13.375 4.4375 
Q 8.5 10.296875 8.5 21.578125 
z
M 31.109375 56 
z
" id="DejaVuSans-117"/>
     <path d="M 18.3125 70.21875 
L 18.3125 54.6875 
L 36.8125 54.6875 
L 36.8125 47.703125 
L 18.3125 47.703125 
L 18.3125 18.015625 
Q 18.3125 11.328125 20.140625 9.421875 
Q 21.96875 7.515625 27.59375 7.515625 
L 36.8125 7.515625 
L 36.8125 0 
L 27.59375 0 
Q 17.1875 0 13.234375 3.875 
Q 9.28125 7.765625 9.28125 18.015625 
L 9.28125 47.703125 
L 2.6875 47.703125 
L 2.6875 54.6875 
L 9.28125 54.6875 
L 9.28125 70.21875 
z
" id="DejaVuSans-116"/>
     <path d="M 4.203125 54.6875 
L 13.1875 54.6875 
L 24.421875 12.015625 
L 35.59375 54.6875 
L 46.1875 54.6875 
L 57.421875 12.015625 
L 68.609375 54.6875 
L 77.59375 54.6875 
L 63.28125 0 
L 52.6875 0 
L 40.921875 44.828125 
L 29.109375 0 
L 18.5 0 
z
" id="DejaVuSans-119"/>
     <path d="M 9.078125 75.984375 
L 18.109375 75.984375 
L 18.109375 31.109375 
L 44.921875 54.6875 
L 56.390625 54.6875 
L 27.390625 29.109375 
L 57.625 0 
L 45.90625 0 
L 18.109375 26.703125 
L 18.109375 0 
L 9.078125 0 
z
" id="DejaVuSans-107"/>
    </defs>
    <g transform="translate(174.16875 19.3575)scale(0.16 -0.16)">
     <use xlink:href="#DejaVuSans-83"/>
     <use x="63.476562" xlink:href="#DejaVuSans-82"/>
     <use x="132.912109" xlink:href="#DejaVuSans-46"/>
     <use x="164.699219" xlink:href="#DejaVuSans-77"/>
     <use x="250.978516" xlink:href="#DejaVuSans-77"/>
     <use x="337.257812" xlink:href="#DejaVuSans-80"/>
     <use x="397.560547" xlink:href="#DejaVuSans-32"/>
     <use x="429.347656" xlink:href="#DejaVuSans-78"/>
     <use x="504.152344" xlink:href="#DejaVuSans-101"/>
     <use x="565.675781" xlink:href="#DejaVuSans-117"/>
     <use x="629.054688" xlink:href="#DejaVuSans-114"/>
     <use x="670.167969" xlink:href="#DejaVuSans-97"/>
     <use x="731.447266" xlink:href="#DejaVuSans-108"/>
     <use x="759.230469" xlink:href="#DejaVuSans-32"/>
     <use x="791.017578" xlink:href="#DejaVuSans-78"/>
     <use x="865.822266" xlink:href="#DejaVuSans-101"/>
     <use x="927.345703" xlink:href="#DejaVuSans-116"/>
     <use x="966.554688" xlink:href="#DejaVuSans-119"/>
     <use x="1048.341797" xlink:href="#DejaVuSans-111"/>
     <use x="1109.523438" xlink:href="#DejaVuSans-114"/>
     <use x="1150.636719" xlink:href="#DejaVuSans-107"/>
    </g>
    <!--  Precision-Recall curve: AP=0.54 -->
    <defs>
     <path d="M 4.890625 31.390625 
L 31.203125 31.390625 
L 31.203125 23.390625 
L 4.890625 23.390625 
z
" id="DejaVuSans-45"/>
     <path d="M 2.984375 54.6875 
L 12.5 54.6875 
L 29.59375 8.796875 
L 46.6875 54.6875 
L 56.203125 54.6875 
L 35.6875 0 
L 23.484375 0 
z
" id="DejaVuSans-118"/>
     <path d="M 11.71875 12.40625 
L 22.015625 12.40625 
L 22.015625 0 
L 11.71875 0 
z
M 11.71875 51.703125 
L 22.015625 51.703125 
L 22.015625 39.3125 
L 11.71875 39.3125 
z
" id="DejaVuSans-58"/>
     <path d="M 34.1875 63.1875 
L 20.796875 26.90625 
L 47.609375 26.90625 
z
M 28.609375 72.90625 
L 39.796875 72.90625 
L 67.578125 0 
L 57.328125 0 
L 50.6875 18.703125 
L 17.828125 18.703125 
L 11.1875 0 
L 0.78125 0 
z
" id="DejaVuSans-65"/>
    </defs>
    <g transform="translate(140.18625 37.274)scale(0.16 -0.16)">
     <use xlink:href="#DejaVuSans-32"/>
     <use x="31.787109" xlink:href="#DejaVuSans-80"/>
     <use x="92.074219" xlink:href="#DejaVuSans-114"/>
     <use x="133.15625" xlink:href="#DejaVuSans-101"/>
     <use x="194.679688" xlink:href="#DejaVuSans-99"/>
     <use x="249.660156" xlink:href="#DejaVuSans-105"/>
     <use x="277.443359" xlink:href="#DejaVuSans-115"/>
     <use x="329.542969" xlink:href="#DejaVuSans-105"/>
     <use x="357.326172" xlink:href="#DejaVuSans-111"/>
     <use x="418.507812" xlink:href="#DejaVuSans-110"/>
     <use x="481.886719" xlink:href="#DejaVuSans-45"/>
     <use x="517.970703" xlink:href="#DejaVuSans-82"/>
     <use x="587.390625" xlink:href="#DejaVuSans-101"/>
     <use x="648.914062" xlink:href="#DejaVuSans-99"/>
     <use x="703.894531" xlink:href="#DejaVuSans-97"/>
     <use x="765.173828" xlink:href="#DejaVuSans-108"/>
     <use x="792.957031" xlink:href="#DejaVuSans-108"/>
     <use x="820.740234" xlink:href="#DejaVuSans-32"/>
     <use x="852.527344" xlink:href="#DejaVuSans-99"/>
     <use x="907.507812" xlink:href="#DejaVuSans-117"/>
     <use x="970.886719" xlink:href="#DejaVuSans-114"/>
     <use x="1012" xlink:href="#DejaVuSans-118"/>
     <use x="1071.179688" xlink:href="#DejaVuSans-101"/>
     <use x="1132.703125" xlink:href="#DejaVuSans-58"/>
     <use x="1166.394531" xlink:href="#DejaVuSans-32"/>
     <use x="1198.181641" xlink:href="#DejaVuSans-65"/>
     <use x="1266.589844" xlink:href="#DejaVuSans-80"/>
     <use x="1326.892578" xlink:href="#DejaVuSans-61"/>
     <use x="1410.681641" xlink:href="#DejaVuSans-48"/>
     <use x="1474.304688" xlink:href="#DejaVuSans-46"/>
     <use x="1506.091797" xlink:href="#DejaVuSans-53"/>
     <use x="1569.714844" xlink:href="#DejaVuSans-52"/>
    </g>
   </g>
   <g id="legend_1">
    <g id="patch_7">
     <path d="M 54.6525 109.9865 
L 188.329062 109.9865 
Q 190.329062 109.9865 190.329062 107.9865 
L 190.329062 50.274 
Q 190.329062 48.274 188.329062 48.274 
L 54.6525 48.274 
Q 52.6525 48.274 52.6525 50.274 
L 52.6525 107.9865 
Q 52.6525 109.9865 54.6525 109.9865 
z
" style="fill:#ffffff;opacity:0.8;stroke:#cccccc;stroke-linejoin:miter;"/>
    </g>
    <g id="line2d_18">
     <path d="M 56.6525 56.372437 
L 76.6525 56.372437 
" style="fill:none;stroke:#ff0000;stroke-dasharray:5.55,2.4;stroke-dashoffset:0;stroke-width:1.5;"/>
    </g>
    <g id="line2d_19"/>
    <g id="text_17">
     <!-- No Skill: 0.110 -->
     <g transform="translate(84.6525 59.872437)scale(0.1 -0.1)">
      <use xlink:href="#DejaVuSans-78"/>
      <use x="74.804688" xlink:href="#DejaVuSans-111"/>
      <use x="135.986328" xlink:href="#DejaVuSans-32"/>
      <use x="167.773438" xlink:href="#DejaVuSans-83"/>
      <use x="231.25" xlink:href="#DejaVuSans-107"/>
      <use x="289.160156" xlink:href="#DejaVuSans-105"/>
      <use x="316.943359" xlink:href="#DejaVuSans-108"/>
      <use x="344.726562" xlink:href="#DejaVuSans-108"/>
      <use x="372.509766" xlink:href="#DejaVuSans-58"/>
      <use x="406.201172" xlink:href="#DejaVuSans-32"/>
      <use x="437.988281" xlink:href="#DejaVuSans-48"/>
      <use x="501.611328" xlink:href="#DejaVuSans-46"/>
      <use x="533.398438" xlink:href="#DejaVuSans-49"/>
      <use x="597.021484" xlink:href="#DejaVuSans-49"/>
      <use x="660.644531" xlink:href="#DejaVuSans-48"/>
     </g>
    </g>
    <g id="line2d_20">
     <path d="M 56.6525 71.050563 
L 76.6525 71.050563 
" style="fill:none;stroke:#000000;stroke-dasharray:1.5,2.475;stroke-dashoffset:0;stroke-opacity:0.4;stroke-width:1.5;"/>
    </g>
    <g id="line2d_21"/>
    <g id="text_18">
     <!-- Prec/Rec @ Max F1 -->
     <defs>
      <path d="M 25.390625 72.90625 
L 33.6875 72.90625 
L 8.296875 -9.28125 
L 0 -9.28125 
z
" id="DejaVuSans-47"/>
      <path d="M 37.203125 26.21875 
Q 37.203125 19.234375 40.671875 15.25 
Q 44.140625 11.28125 50.203125 11.28125 
Q 56.203125 11.28125 59.640625 15.28125 
Q 63.09375 19.28125 63.09375 26.21875 
Q 63.09375 33.0625 59.578125 37.078125 
Q 56.0625 41.109375 50.09375 41.109375 
Q 44.1875 41.109375 40.6875 37.109375 
Q 37.203125 33.109375 37.203125 26.21875 
z
M 63.8125 11.625 
Q 60.890625 7.859375 57.109375 6.078125 
Q 53.328125 4.296875 48.296875 4.296875 
Q 39.890625 4.296875 34.640625 10.375 
Q 29.390625 16.453125 29.390625 26.21875 
Q 29.390625 35.984375 34.65625 42.078125 
Q 39.9375 48.1875 48.296875 48.1875 
Q 53.328125 48.1875 57.125 46.359375 
Q 60.9375 44.53125 63.8125 40.828125 
L 63.8125 47.21875 
L 70.796875 47.21875 
L 70.796875 11.28125 
Q 77.9375 12.359375 81.953125 17.796875 
Q 85.984375 23.25 85.984375 31.890625 
Q 85.984375 37.109375 84.4375 41.703125 
Q 82.90625 46.296875 79.78125 50.203125 
Q 74.703125 56.59375 67.40625 59.984375 
Q 60.109375 63.375 51.515625 63.375 
Q 45.515625 63.375 39.984375 61.78125 
Q 34.46875 60.203125 29.78125 57.078125 
Q 22.125 52.09375 17.796875 44.015625 
Q 13.484375 35.9375 13.484375 26.515625 
Q 13.484375 18.75 16.28125 11.953125 
Q 19.09375 5.171875 24.421875 0 
Q 29.546875 -5.078125 36.28125 -7.734375 
Q 43.015625 -10.40625 50.6875 -10.40625 
Q 56.984375 -10.40625 63.0625 -8.28125 
Q 69.140625 -6.15625 74.21875 -2.203125 
L 78.609375 -7.625 
Q 72.515625 -12.359375 65.3125 -14.875 
Q 58.109375 -17.390625 50.6875 -17.390625 
Q 41.65625 -17.390625 33.640625 -14.1875 
Q 25.640625 -10.984375 19.390625 -4.890625 
Q 13.140625 1.21875 9.859375 9.25 
Q 6.59375 17.28125 6.59375 26.515625 
Q 6.59375 35.40625 9.90625 43.453125 
Q 13.234375 51.515625 19.390625 57.625 
Q 25.6875 63.8125 33.9375 67.109375 
Q 42.1875 70.40625 51.421875 70.40625 
Q 61.765625 70.40625 70.625 66.15625 
Q 79.5 61.921875 85.5 54.109375 
Q 89.15625 49.3125 91.078125 43.703125 
Q 93.015625 38.09375 93.015625 32.078125 
Q 93.015625 19.234375 85.25 11.8125 
Q 77.484375 4.390625 63.8125 4.109375 
z
" id="DejaVuSans-64"/>
     </defs>
     <g transform="translate(84.6525 74.550563)scale(0.1 -0.1)">
      <use xlink:href="#DejaVuSans-80"/>
      <use x="60.287109" xlink:href="#DejaVuSans-114"/>
      <use x="101.369141" xlink:href="#DejaVuSans-101"/>
      <use x="162.892578" xlink:href="#DejaVuSans-99"/>
      <use x="217.873047" xlink:href="#DejaVuSans-47"/>
      <use x="251.564453" xlink:href="#DejaVuSans-82"/>
      <use x="320.984375" xlink:href="#DejaVuSans-101"/>
      <use x="382.507812" xlink:href="#DejaVuSans-99"/>
      <use x="437.488281" xlink:href="#DejaVuSans-32"/>
      <use x="469.275391" xlink:href="#DejaVuSans-64"/>
      <use x="569.275391" xlink:href="#DejaVuSans-32"/>
      <use x="601.0625" xlink:href="#DejaVuSans-77"/>
      <use x="687.341797" xlink:href="#DejaVuSans-97"/>
      <use x="748.621094" xlink:href="#DejaVuSans-120"/>
      <use x="807.800781" xlink:href="#DejaVuSans-32"/>
      <use x="839.587891" xlink:href="#DejaVuSans-70"/>
      <use x="897.107422" xlink:href="#DejaVuSans-49"/>
     </g>
    </g>
    <g id="line2d_22">
     <path d="M 56.6525 85.728687 
L 76.6525 85.728687 
" style="fill:none;stroke:#1f77b4;stroke-linecap:square;stroke-width:1.5;"/>
    </g>
    <g id="line2d_23"/>
    <g id="text_19">
     <!-- Matthew's Corr Coef -->
     <defs>
      <path d="M 54.890625 33.015625 
L 54.890625 0 
L 45.90625 0 
L 45.90625 32.71875 
Q 45.90625 40.484375 42.875 44.328125 
Q 39.84375 48.1875 33.796875 48.1875 
Q 26.515625 48.1875 22.3125 43.546875 
Q 18.109375 38.921875 18.109375 30.90625 
L 18.109375 0 
L 9.078125 0 
L 9.078125 75.984375 
L 18.109375 75.984375 
L 18.109375 46.1875 
Q 21.34375 51.125 25.703125 53.5625 
Q 30.078125 56 35.796875 56 
Q 45.21875 56 50.046875 50.171875 
Q 54.890625 44.34375 54.890625 33.015625 
z
" id="DejaVuSans-104"/>
      <path d="M 17.921875 72.90625 
L 17.921875 45.796875 
L 9.625 45.796875 
L 9.625 72.90625 
z
" id="DejaVuSans-39"/>
      <path d="M 64.40625 67.28125 
L 64.40625 56.890625 
Q 59.421875 61.53125 53.78125 63.8125 
Q 48.140625 66.109375 41.796875 66.109375 
Q 29.296875 66.109375 22.65625 58.46875 
Q 16.015625 50.828125 16.015625 36.375 
Q 16.015625 21.96875 22.65625 14.328125 
Q 29.296875 6.6875 41.796875 6.6875 
Q 48.140625 6.6875 53.78125 8.984375 
Q 59.421875 11.28125 64.40625 15.921875 
L 64.40625 5.609375 
Q 59.234375 2.09375 53.4375 0.328125 
Q 47.65625 -1.421875 41.21875 -1.421875 
Q 24.65625 -1.421875 15.125 8.703125 
Q 5.609375 18.84375 5.609375 36.375 
Q 5.609375 53.953125 15.125 64.078125 
Q 24.65625 74.21875 41.21875 74.21875 
Q 47.75 74.21875 53.53125 72.484375 
Q 59.328125 70.75 64.40625 67.28125 
z
" id="DejaVuSans-67"/>
      <path d="M 37.109375 75.984375 
L 37.109375 68.5 
L 28.515625 68.5 
Q 23.6875 68.5 21.796875 66.546875 
Q 19.921875 64.59375 19.921875 59.515625 
L 19.921875 54.6875 
L 34.71875 54.6875 
L 34.71875 47.703125 
L 19.921875 47.703125 
L 19.921875 0 
L 10.890625 0 
L 10.890625 47.703125 
L 2.296875 47.703125 
L 2.296875 54.6875 
L 10.890625 54.6875 
L 10.890625 58.5 
Q 10.890625 67.625 15.140625 71.796875 
Q 19.390625 75.984375 28.609375 75.984375 
z
" id="DejaVuSans-102"/>
     </defs>
     <g transform="translate(84.6525 89.228687)scale(0.1 -0.1)">
      <use xlink:href="#DejaVuSans-77"/>
      <use x="86.279297" xlink:href="#DejaVuSans-97"/>
      <use x="147.558594" xlink:href="#DejaVuSans-116"/>
      <use x="186.767578" xlink:href="#DejaVuSans-116"/>
      <use x="225.976562" xlink:href="#DejaVuSans-104"/>
      <use x="289.355469" xlink:href="#DejaVuSans-101"/>
      <use x="350.878906" xlink:href="#DejaVuSans-119"/>
      <use x="432.666016" xlink:href="#DejaVuSans-39"/>
      <use x="460.15625" xlink:href="#DejaVuSans-115"/>
      <use x="512.255859" xlink:href="#DejaVuSans-32"/>
      <use x="544.042969" xlink:href="#DejaVuSans-67"/>
      <use x="613.867188" xlink:href="#DejaVuSans-111"/>
      <use x="675.048828" xlink:href="#DejaVuSans-114"/>
      <use x="716.146484" xlink:href="#DejaVuSans-114"/>
      <use x="757.259766" xlink:href="#DejaVuSans-32"/>
      <use x="789.046875" xlink:href="#DejaVuSans-67"/>
      <use x="858.871094" xlink:href="#DejaVuSans-111"/>
      <use x="920.052734" xlink:href="#DejaVuSans-101"/>
      <use x="981.576172" xlink:href="#DejaVuSans-102"/>
     </g>
    </g>
    <g id="patch_8">
     <path d="M 56.6525 103.906813 
L 76.6525 103.906813 
L 76.6525 96.906813 
L 56.6525 96.906813 
z
" style="fill:#dc143c;opacity:0.3;stroke:#dc143c;stroke-linejoin:miter;"/>
    </g>
    <g id="text_20">
     <!-- DNN -->
     <defs>
      <path d="M 19.671875 64.796875 
L 19.671875 8.109375 
L 31.59375 8.109375 
Q 46.6875 8.109375 53.6875 14.9375 
Q 60.6875 21.78125 60.6875 36.53125 
Q 60.6875 51.171875 53.6875 57.984375 
Q 46.6875 64.796875 31.59375 64.796875 
z
M 9.8125 72.90625 
L 30.078125 72.90625 
Q 51.265625 72.90625 61.171875 64.09375 
Q 71.09375 55.28125 71.09375 36.53125 
Q 71.09375 17.671875 61.125 8.828125 
Q 51.171875 0 30.078125 0 
L 9.8125 0 
z
" id="DejaVuSans-68"/>
     </defs>
     <g transform="translate(84.6525 103.906813)scale(0.1 -0.1)">
      <use xlink:href="#DejaVuSans-68"/>
      <use x="77.001953" xlink:href="#DejaVuSans-78"/>
      <use x="151.806641" xlink:href="#DejaVuSans-78"/>
     </g>
    </g>
   </g>
  </g>
 </g>
 <defs>
  <clipPath id="p70c83574d3">
   <rect height="326.16" width="446.4" x="47.6525" y="43.274"/>
  </clipPath>
 </defs>
</svg>
